M48
; DRILL file {KiCad (5.99.0-2358-g6d8fb94d8)} date Mon Jul 27 20:38:34 2020
; FORMAT={-:-/ absolute / metric / decimal}
; #@! TF.CreationDate,2020-07-27T20:38:34+08:00
; #@! TF.GenerationSoftware,Kicad,Pcbnew,(5.99.0-2358-g6d8fb94d8)
; #@! TF.FileFunction,Plated,1,4,PTH
FMAT,2
METRIC
T1C0.400
T2C0.500
T3C1.000
T4C3.200
%
G90
G05
T1
X52.54Y-77.94
X52.54Y-83.02
X52.54Y-88.1
X57.366Y-68.288
X57.366Y-69.655
X57.366Y-72.352
X57.62Y-77.94
X57.62Y-83.02
X57.62Y-88.1
X62.132Y-119.168
X62.7Y-57.62
X62.7Y-77.94
X63.148Y-112.056
X64.672Y-112.056
X67.78Y-57.62
X67.78Y-77.94
X72.86Y-52.54
X72.86Y-57.62
X72.988Y-100.221
X73.043Y-119.253
X74.567Y-112.141
X77.94Y-52.54
X77.94Y-57.62
X77.94Y-62.446
X77.94Y-67.78
X77.94Y-72.86
X82.785Y-119.253
X83.02Y-52.54
X83.02Y-72.86
X83.02Y-88.1
X83.02Y-93.18
X83.02Y-98.26
X83.02Y-103.34
X83.02Y-108.42
X84.055Y-112.141
X88.1Y-52.54
X88.1Y-72.86
X88.1Y-83.02
X88.1Y-88.1
X88.1Y-93.18
X88.1Y-98.26
X88.1Y-103.34
X88.1Y-108.42
X88.1Y-113.5
X92.418Y-115.443
X93.18Y-52.54
X93.18Y-57.62
X93.18Y-62.446
X93.18Y-108.42
X93.18Y-113.5
X93.434Y-72.86
X93.688Y-119.253
X93.995Y-83.73
X94.196Y-85.508
X94.196Y-87.032
X94.196Y-88.582
X96.228Y-115.443
X97.498Y-119.253
X98.006Y-72.86
X98.26Y-52.54
X98.26Y-62.7
X98.514Y-57.62
X100.038Y-119.253
X100.292Y-112.395
X102.578Y-112.395
X102.832Y-85.306
X103.34Y-52.54
X103.34Y-72.86
X103.594Y-57.62
X103.594Y-62.7
X103.848Y-119.253
X104.102Y-77.686
X104.61Y-112.395
X104.864Y-89.37
X105.118Y-77.686
X105.88Y-98.019
X106.134Y-81.242
X106.134Y-89.37
X106.134Y-112.395
X107.15Y-77.686
X107.15Y-81.242
X107.404Y-89.37
X107.658Y-98.019
X108.166Y-77.686
X108.42Y-62.7
X108.928Y-94.971
X108.928Y-96.482
X109.182Y-77.686
X110.96Y-85.052
X110.96Y-86.068
X110.96Y-87.084
X110.96Y-98.26
X110.96Y-103.34
X114.008Y-76.416
X114.008Y-79.972
X114.75Y-115.443
X115.278Y-75.4
X115.786Y-62.7
X116.04Y-52.54
X116.04Y-98.26
X116.04Y-103.34
X116.274Y-119.253
X118.072Y-86.83
X119.25Y-80.25
X119.25Y-89.37
X119.596Y-78.194
X121.12Y-52.54
X121.12Y-57.366
X121.12Y-62.7
X121.12Y-98.26
X121.12Y-103.34
X121.12Y-108.42
X121.12Y-113.5
X126.028Y-115.433
X126.2Y-52.54
X126.2Y-57.62
X126.2Y-108.42
X126.2Y-113.5
X127.298Y-119.243
X129.838Y-115.433
X131.108Y-119.243
X131.28Y-52.54
X133.566Y-112.131
X133.648Y-119.243
X133.82Y-98.26
X136.188Y-112.131
X136.36Y-52.54
X137.376Y-119.243
X138.22Y-112.131
X138.9Y-98.26
X138.9Y-103.34
X140.932Y-112.131
X141.44Y-52.54
X141.44Y-57.62
X141.44Y-62.7
X143.98Y-103.34
X143.98Y-108.42
X146.52Y-52.54
X146.52Y-57.62
X146.52Y-62.7
X148.175Y-119.283
X149.06Y-103.34
X149.06Y-108.42
X149.445Y-112.171
X149.568Y-119.342
X150.969Y-112.171
X151.6Y-52.54
X151.6Y-57.62
X151.6Y-62.7
X152.362Y-115.278
X156.68Y-52.54
X156.68Y-62.7
X156.934Y-57.874
X158.989Y-119.253
X159.22Y-103.34
X159.22Y-108.42
X160.513Y-112.141
X161.76Y-52.54
X162.014Y-115.278
X166.84Y-52.54
X166.84Y-57.62
X166.84Y-103.34
X166.84Y-108.42
X167.602Y-62.954
X169.126Y-119.342
X170.142Y-115.278
X171.653Y-115.358
X171.92Y-52.286
X171.92Y-57.62
X172.923Y-119.168
X177.0Y-103.34
X177.0Y-108.42
T2
X57.366Y-65.748
X57.366Y-71.082
X58.636Y-105.88
X61.43Y-82.766
X61.43Y-84.036
X61.43Y-86.576
X61.43Y-87.846
X61.43Y-92.164
X61.43Y-93.688
X61.43Y-96.228
X61.43Y-97.498
X64.732Y-90.64
X64.732Y-91.91
X65.494Y-82.004
X67.526Y-89.37
X74.384Y-103.269
X74.384Y-104.356
X75.908Y-93.688
X110.198Y-53.302
X126.708Y-74.638
X127.978Y-74.674
X136.106Y-74.674
X137.376Y-74.638
T3
X143.86Y-82.72
X143.86Y-85.26
X143.86Y-87.8
X143.86Y-90.34
X143.86Y-92.88
X143.86Y-95.42
X163.09Y-63.43
X163.09Y-65.97
X163.09Y-68.51
X163.09Y-71.05
X52.54Y-95.72
X52.54Y-98.26
X52.54Y-100.8
X52.54Y-103.34
X52.54Y-105.88
X52.54Y-108.42
X131.534Y-56.35
X131.534Y-58.89
X134.074Y-56.35
X134.074Y-58.89
X136.614Y-56.35
X136.614Y-58.89
X62.954Y-63.97
X62.954Y-66.51
X62.954Y-69.05
X62.954Y-71.59
X75.654Y-64.014
X75.654Y-66.554
X75.654Y-69.094
X75.654Y-71.634
T4
X179.0Y-54.0
X54.0Y-54.0
X54.064Y-119.0
X179.0Y-119.0
T0
M30
