%TF.GenerationSoftware,KiCad,Pcbnew,(5.99.0-2358-g6d8fb94d8)*%
%TF.CreationDate,2020-07-27T20:41:13+08:00*%
%TF.ProjectId,TheSPT_v2,54686553-5054-45f7-9632-2e6b69636164,V3.0*%
%TF.SameCoordinates,Original*%
%TF.FileFunction,Legend,Top*%
%TF.FilePolarity,Positive*%
%FSLAX46Y46*%
G04 Gerber Fmt 4.6, Leading zero omitted, Abs format (unit mm)*
G04 Created by KiCad (PCBNEW (5.99.0-2358-g6d8fb94d8)) date 2020-07-27 20:41:13*
%MOMM*%
%LPD*%
G01*
G04 APERTURE LIST*
%ADD10C,0.120000*%
%ADD11C,0.150000*%
%ADD12C,0.300000*%
G04 APERTURE END LIST*
D10*
X61276000Y-71744000D02*
G75*
G03*
X61276000Y-71744000I-100000J0D01*
G01*
X138746000Y-56350000D02*
G75*
G03*
X138746000Y-56350000I-100000J0D01*
G01*
X167900000Y-117500000D02*
G75*
G03*
X167900000Y-117500000I-100000J0D01*
G01*
X158200000Y-117500000D02*
G75*
G03*
X158200000Y-117500000I-100000J0D01*
G01*
X147200000Y-117500000D02*
G75*
G03*
X147200000Y-117500000I-100000J0D01*
G01*
X125000000Y-117500000D02*
G75*
G03*
X125000000Y-117500000I-100000J0D01*
G01*
X113900000Y-117500000D02*
G75*
G03*
X113900000Y-117500000I-100000J0D01*
G01*
X91700000Y-117500000D02*
G75*
G03*
X91700000Y-117500000I-100000J0D01*
G01*
X82000000Y-117500000D02*
G75*
G03*
X82000000Y-117500000I-100000J0D01*
G01*
X72100000Y-117500000D02*
G75*
G03*
X72100000Y-117500000I-100000J0D01*
G01*
X61100000Y-117400000D02*
G75*
G03*
X61100000Y-117400000I-100000J0D01*
G01*
D11*
X60763809Y-53770380D02*
X61335238Y-53770380D01*
X61049523Y-54770380D02*
X61049523Y-53770380D01*
X61668571Y-54770380D02*
X61668571Y-53770380D01*
X62097142Y-54770380D02*
X62097142Y-54246571D01*
X62049523Y-54151333D01*
X61954285Y-54103714D01*
X61811428Y-54103714D01*
X61716190Y-54151333D01*
X61668571Y-54198952D01*
X62954285Y-54722761D02*
X62859047Y-54770380D01*
X62668571Y-54770380D01*
X62573333Y-54722761D01*
X62525714Y-54627523D01*
X62525714Y-54246571D01*
X62573333Y-54151333D01*
X62668571Y-54103714D01*
X62859047Y-54103714D01*
X62954285Y-54151333D01*
X63001904Y-54246571D01*
X63001904Y-54341809D01*
X62525714Y-54437047D01*
X63382857Y-54722761D02*
X63525714Y-54770380D01*
X63763809Y-54770380D01*
X63859047Y-54722761D01*
X63906666Y-54675142D01*
X63954285Y-54579904D01*
X63954285Y-54484666D01*
X63906666Y-54389428D01*
X63859047Y-54341809D01*
X63763809Y-54294190D01*
X63573333Y-54246571D01*
X63478095Y-54198952D01*
X63430476Y-54151333D01*
X63382857Y-54056095D01*
X63382857Y-53960857D01*
X63430476Y-53865619D01*
X63478095Y-53818000D01*
X63573333Y-53770380D01*
X63811428Y-53770380D01*
X63954285Y-53818000D01*
X64382857Y-54770380D02*
X64382857Y-53770380D01*
X64763809Y-53770380D01*
X64859047Y-53818000D01*
X64906666Y-53865619D01*
X64954285Y-53960857D01*
X64954285Y-54103714D01*
X64906666Y-54198952D01*
X64859047Y-54246571D01*
X64763809Y-54294190D01*
X64382857Y-54294190D01*
X65240000Y-53770380D02*
X65811428Y-53770380D01*
X65525714Y-54770380D02*
X65525714Y-53770380D01*
X66811428Y-54103714D02*
X67049523Y-54770380D01*
X67287619Y-54103714D01*
X67573333Y-53770380D02*
X68192380Y-53770380D01*
X67859047Y-54151333D01*
X68001904Y-54151333D01*
X68097142Y-54198952D01*
X68144761Y-54246571D01*
X68192380Y-54341809D01*
X68192380Y-54579904D01*
X68144761Y-54675142D01*
X68097142Y-54722761D01*
X68001904Y-54770380D01*
X67716190Y-54770380D01*
X67620952Y-54722761D01*
X67573333Y-54675142D01*
X68620952Y-54675142D02*
X68668571Y-54722761D01*
X68620952Y-54770380D01*
X68573333Y-54722761D01*
X68620952Y-54675142D01*
X68620952Y-54770380D01*
X69287619Y-53770380D02*
X69382857Y-53770380D01*
X69478095Y-53818000D01*
X69525714Y-53865619D01*
X69573333Y-53960857D01*
X69620952Y-54151333D01*
X69620952Y-54389428D01*
X69573333Y-54579904D01*
X69525714Y-54675142D01*
X69478095Y-54722761D01*
X69382857Y-54770380D01*
X69287619Y-54770380D01*
X69192380Y-54722761D01*
X69144761Y-54675142D01*
X69097142Y-54579904D01*
X69049523Y-54389428D01*
X69049523Y-54151333D01*
X69097142Y-53960857D01*
X69144761Y-53865619D01*
X69192380Y-53818000D01*
X69287619Y-53770380D01*
D10*
X52740000Y-93434000D02*
G75*
G03*
X52740000Y-93434000I-100000J0D01*
G01*
X55534000Y-62192000D02*
G75*
G03*
X55534000Y-62192000I-100000J0D01*
G01*
X109000000Y-55100000D02*
G75*
G03*
X109000000Y-55100000I-100000J0D01*
G01*
X114000000Y-89400000D02*
G75*
G03*
X114000000Y-89400000I-100000J0D01*
G01*
X146112000Y-82766000D02*
G75*
G03*
X146112000Y-82766000I-100000J0D01*
G01*
X165416000Y-63362000D02*
G75*
G03*
X165416000Y-63362000I-100000J0D01*
G01*
X182880000Y-101120000D02*
X182880000Y-77120000D01*
X140880000Y-101120000D02*
X182880000Y-101120000D01*
X140880000Y-77120000D02*
X140880000Y-101120000D01*
X182880000Y-77120000D02*
X140880000Y-77120000D01*
X182590000Y-74930000D02*
X182590000Y-59930000D01*
X161590000Y-74930000D02*
X182590000Y-74930000D01*
X161590000Y-59930000D02*
X161590000Y-74930000D01*
X182590000Y-59930000D02*
X161590000Y-59930000D01*
D11*
%TO.C,J13*%
X129803809Y-54008380D02*
X129803809Y-53008380D01*
X130851428Y-53913142D02*
X130803809Y-53960761D01*
X130660952Y-54008380D01*
X130565714Y-54008380D01*
X130422857Y-53960761D01*
X130327619Y-53865523D01*
X130280000Y-53770285D01*
X130232380Y-53579809D01*
X130232380Y-53436952D01*
X130280000Y-53246476D01*
X130327619Y-53151238D01*
X130422857Y-53056000D01*
X130565714Y-53008380D01*
X130660952Y-53008380D01*
X130803809Y-53056000D01*
X130851428Y-53103619D01*
X131232380Y-53960761D02*
X131375238Y-54008380D01*
X131613333Y-54008380D01*
X131708571Y-53960761D01*
X131756190Y-53913142D01*
X131803809Y-53817904D01*
X131803809Y-53722666D01*
X131756190Y-53627428D01*
X131708571Y-53579809D01*
X131613333Y-53532190D01*
X131422857Y-53484571D01*
X131327619Y-53436952D01*
X131280000Y-53389333D01*
X131232380Y-53294095D01*
X131232380Y-53198857D01*
X131280000Y-53103619D01*
X131327619Y-53056000D01*
X131422857Y-53008380D01*
X131660952Y-53008380D01*
X131803809Y-53056000D01*
X132232380Y-54008380D02*
X132232380Y-53008380D01*
X132613333Y-53008380D01*
X132708571Y-53056000D01*
X132756190Y-53103619D01*
X132803809Y-53198857D01*
X132803809Y-53341714D01*
X132756190Y-53436952D01*
X132708571Y-53484571D01*
X132613333Y-53532190D01*
X132232380Y-53532190D01*
%TO.C,H4*%
X178238095Y-115252380D02*
X178238095Y-114252380D01*
X178238095Y-114728571D02*
X178809523Y-114728571D01*
X178809523Y-115252380D02*
X178809523Y-114252380D01*
X179714285Y-114585714D02*
X179714285Y-115252380D01*
X179476190Y-114204761D02*
X179238095Y-114919047D01*
X179857142Y-114919047D01*
D12*
%TO.C,XiaoNiuNiu*%
X93325142Y-66945428D02*
X94341142Y-68469428D01*
X94341142Y-66945428D02*
X93325142Y-68469428D01*
X94921714Y-68469428D02*
X94921714Y-67453428D01*
X94921714Y-66945428D02*
X94849142Y-67018000D01*
X94921714Y-67090571D01*
X94994285Y-67018000D01*
X94921714Y-66945428D01*
X94921714Y-67090571D01*
X96300571Y-68469428D02*
X96300571Y-67671142D01*
X96228000Y-67526000D01*
X96082857Y-67453428D01*
X95792571Y-67453428D01*
X95647428Y-67526000D01*
X96300571Y-68396857D02*
X96155428Y-68469428D01*
X95792571Y-68469428D01*
X95647428Y-68396857D01*
X95574857Y-68251714D01*
X95574857Y-68106571D01*
X95647428Y-67961428D01*
X95792571Y-67888857D01*
X96155428Y-67888857D01*
X96300571Y-67816285D01*
X97244000Y-68469428D02*
X97098857Y-68396857D01*
X97026285Y-68324285D01*
X96953714Y-68179142D01*
X96953714Y-67743714D01*
X97026285Y-67598571D01*
X97098857Y-67526000D01*
X97244000Y-67453428D01*
X97461714Y-67453428D01*
X97606857Y-67526000D01*
X97679428Y-67598571D01*
X97752000Y-67743714D01*
X97752000Y-68179142D01*
X97679428Y-68324285D01*
X97606857Y-68396857D01*
X97461714Y-68469428D01*
X97244000Y-68469428D01*
X98405142Y-68469428D02*
X98405142Y-66945428D01*
X99276000Y-68469428D01*
X99276000Y-66945428D01*
X100001714Y-68469428D02*
X100001714Y-67453428D01*
X100001714Y-66945428D02*
X99929142Y-67018000D01*
X100001714Y-67090571D01*
X100074285Y-67018000D01*
X100001714Y-66945428D01*
X100001714Y-67090571D01*
X101380571Y-67453428D02*
X101380571Y-68469428D01*
X100727428Y-67453428D02*
X100727428Y-68251714D01*
X100800000Y-68396857D01*
X100945142Y-68469428D01*
X101162857Y-68469428D01*
X101308000Y-68396857D01*
X101380571Y-68324285D01*
X102106285Y-68469428D02*
X102106285Y-66945428D01*
X102977142Y-68469428D01*
X102977142Y-66945428D01*
X103702857Y-68469428D02*
X103702857Y-67453428D01*
X103702857Y-66945428D02*
X103630285Y-67018000D01*
X103702857Y-67090571D01*
X103775428Y-67018000D01*
X103702857Y-66945428D01*
X103702857Y-67090571D01*
X105081714Y-67453428D02*
X105081714Y-68469428D01*
X104428571Y-67453428D02*
X104428571Y-68251714D01*
X104501142Y-68396857D01*
X104646285Y-68469428D01*
X104864000Y-68469428D01*
X105009142Y-68396857D01*
X105081714Y-68324285D01*
D11*
%TO.C,J5*%
X144285714Y-115166666D02*
X144761904Y-115166666D01*
X144190476Y-115452380D02*
X144523809Y-114452380D01*
X144857142Y-115452380D01*
X145190476Y-114452380D02*
X145190476Y-115261904D01*
X145238095Y-115357142D01*
X145285714Y-115404761D01*
X145380952Y-115452380D01*
X145571428Y-115452380D01*
X145666666Y-115404761D01*
X145714285Y-115357142D01*
X145761904Y-115261904D01*
X145761904Y-114452380D01*
X146142857Y-114452380D02*
X146809523Y-115452380D01*
X146809523Y-114452380D02*
X146142857Y-115452380D01*
X147095238Y-114452380D02*
X147714285Y-114452380D01*
X147380952Y-114833333D01*
X147523809Y-114833333D01*
X147619047Y-114880952D01*
X147666666Y-114928571D01*
X147714285Y-115023809D01*
X147714285Y-115261904D01*
X147666666Y-115357142D01*
X147619047Y-115404761D01*
X147523809Y-115452380D01*
X147238095Y-115452380D01*
X147142857Y-115404761D01*
X147095238Y-115357142D01*
%TO.C,J15*%
X57147619Y-59523809D02*
X58147619Y-59523809D01*
X58052380Y-59952380D02*
X58100000Y-60000000D01*
X58147619Y-60095238D01*
X58147619Y-60333333D01*
X58100000Y-60428571D01*
X58052380Y-60476190D01*
X57957142Y-60523809D01*
X57861904Y-60523809D01*
X57719047Y-60476190D01*
X57147619Y-59904761D01*
X57147619Y-60523809D01*
X57242857Y-61523809D02*
X57195238Y-61476190D01*
X57147619Y-61333333D01*
X57147619Y-61238095D01*
X57195238Y-61095238D01*
X57290476Y-61000000D01*
X57385714Y-60952380D01*
X57576190Y-60904761D01*
X57719047Y-60904761D01*
X57909523Y-60952380D01*
X58004761Y-61000000D01*
X58100000Y-61095238D01*
X58147619Y-61238095D01*
X58147619Y-61333333D01*
X58100000Y-61476190D01*
X58052380Y-61523809D01*
%TO.C,J14*%
X122190476Y-114452380D02*
X122190476Y-115166666D01*
X122142857Y-115309523D01*
X122047619Y-115404761D01*
X121904761Y-115452380D01*
X121809523Y-115452380D01*
X122619047Y-115404761D02*
X122761904Y-115452380D01*
X123000000Y-115452380D01*
X123095238Y-115404761D01*
X123142857Y-115357142D01*
X123190476Y-115261904D01*
X123190476Y-115166666D01*
X123142857Y-115071428D01*
X123095238Y-115023809D01*
X123000000Y-114976190D01*
X122809523Y-114928571D01*
X122714285Y-114880952D01*
X122666666Y-114833333D01*
X122619047Y-114738095D01*
X122619047Y-114642857D01*
X122666666Y-114547619D01*
X122714285Y-114500000D01*
X122809523Y-114452380D01*
X123047619Y-114452380D01*
X123190476Y-114500000D01*
X124142857Y-115452380D02*
X123571428Y-115452380D01*
X123857142Y-115452380D02*
X123857142Y-114452380D01*
X123761904Y-114595238D01*
X123666666Y-114690476D01*
X123571428Y-114738095D01*
%TO.C,J12*%
X162023809Y-73928571D02*
X161690476Y-73928571D01*
X161690476Y-74452380D02*
X161690476Y-73452380D01*
X162166666Y-73452380D01*
X162404761Y-73452380D02*
X162976190Y-73452380D01*
X162690476Y-74452380D02*
X162690476Y-73452380D01*
X163309523Y-74452380D02*
X163309523Y-73452380D01*
X163547619Y-73452380D01*
X163690476Y-73500000D01*
X163785714Y-73595238D01*
X163833333Y-73690476D01*
X163880952Y-73880952D01*
X163880952Y-74023809D01*
X163833333Y-74214285D01*
X163785714Y-74309523D01*
X163690476Y-74404761D01*
X163547619Y-74452380D01*
X163309523Y-74452380D01*
X164309523Y-74452380D02*
X164309523Y-73452380D01*
%TO.C,J11*%
X166309523Y-115452380D02*
X165833333Y-115452380D01*
X165833333Y-114452380D01*
X167214285Y-115357142D02*
X167166666Y-115404761D01*
X167023809Y-115452380D01*
X166928571Y-115452380D01*
X166785714Y-115404761D01*
X166690476Y-115309523D01*
X166642857Y-115214285D01*
X166595238Y-115023809D01*
X166595238Y-114880952D01*
X166642857Y-114690476D01*
X166690476Y-114595238D01*
X166785714Y-114500000D01*
X166928571Y-114452380D01*
X167023809Y-114452380D01*
X167166666Y-114500000D01*
X167214285Y-114547619D01*
X167642857Y-115452380D02*
X167642857Y-114452380D01*
X167880952Y-114452380D01*
X168023809Y-114500000D01*
X168119047Y-114595238D01*
X168166666Y-114690476D01*
X168214285Y-114880952D01*
X168214285Y-115023809D01*
X168166666Y-115214285D01*
X168119047Y-115309523D01*
X168023809Y-115404761D01*
X167880952Y-115452380D01*
X167642857Y-115452380D01*
%TO.C,J10*%
X89190476Y-114452380D02*
X89190476Y-115166666D01*
X89142857Y-115309523D01*
X89047619Y-115404761D01*
X88904761Y-115452380D01*
X88809523Y-115452380D01*
X89619047Y-115404761D02*
X89761904Y-115452380D01*
X90000000Y-115452380D01*
X90095238Y-115404761D01*
X90142857Y-115357142D01*
X90190476Y-115261904D01*
X90190476Y-115166666D01*
X90142857Y-115071428D01*
X90095238Y-115023809D01*
X90000000Y-114976190D01*
X89809523Y-114928571D01*
X89714285Y-114880952D01*
X89666666Y-114833333D01*
X89619047Y-114738095D01*
X89619047Y-114642857D01*
X89666666Y-114547619D01*
X89714285Y-114500000D01*
X89809523Y-114452380D01*
X90047619Y-114452380D01*
X90190476Y-114500000D01*
X90809523Y-114452380D02*
X90904761Y-114452380D01*
X91000000Y-114500000D01*
X91047619Y-114547619D01*
X91095238Y-114642857D01*
X91142857Y-114833333D01*
X91142857Y-115071428D01*
X91095238Y-115261904D01*
X91047619Y-115357142D01*
X91000000Y-115404761D01*
X90904761Y-115452380D01*
X90809523Y-115452380D01*
X90714285Y-115404761D01*
X90666666Y-115357142D01*
X90619047Y-115261904D01*
X90571428Y-115071428D01*
X90571428Y-114833333D01*
X90619047Y-114642857D01*
X90666666Y-114547619D01*
X90714285Y-114500000D01*
X90809523Y-114452380D01*
%TO.C,J9*%
X106166666Y-53452380D02*
X106166666Y-52452380D01*
X106547619Y-52452380D01*
X106642857Y-52500000D01*
X106690476Y-52547619D01*
X106738095Y-52642857D01*
X106738095Y-52785714D01*
X106690476Y-52880952D01*
X106642857Y-52928571D01*
X106547619Y-52976190D01*
X106166666Y-52976190D01*
X107166666Y-53452380D02*
X107166666Y-52452380D01*
X107547619Y-52452380D01*
X107642857Y-52500000D01*
X107690476Y-52547619D01*
X107738095Y-52642857D01*
X107738095Y-52785714D01*
X107690476Y-52880952D01*
X107642857Y-52928571D01*
X107547619Y-52976190D01*
X107166666Y-52976190D01*
X108166666Y-53452380D02*
X108166666Y-52452380D01*
X108500000Y-53166666D01*
X108833333Y-52452380D01*
X108833333Y-53452380D01*
%TO.C,J8*%
X142257904Y-98458380D02*
X142257904Y-97458380D01*
X142591238Y-98172666D01*
X142924571Y-97458380D01*
X142924571Y-98458380D01*
X143400761Y-98458380D02*
X143400761Y-97791714D01*
X143400761Y-97458380D02*
X143353142Y-97506000D01*
X143400761Y-97553619D01*
X143448380Y-97506000D01*
X143400761Y-97458380D01*
X143400761Y-97553619D01*
X144305523Y-98410761D02*
X144210285Y-98458380D01*
X144019809Y-98458380D01*
X143924571Y-98410761D01*
X143876952Y-98363142D01*
X143829333Y-98267904D01*
X143829333Y-97982190D01*
X143876952Y-97886952D01*
X143924571Y-97839333D01*
X144019809Y-97791714D01*
X144210285Y-97791714D01*
X144305523Y-97839333D01*
X144734095Y-98458380D02*
X144734095Y-97791714D01*
X144734095Y-97982190D02*
X144781714Y-97886952D01*
X144829333Y-97839333D01*
X144924571Y-97791714D01*
X145019809Y-97791714D01*
X145496000Y-98458380D02*
X145400761Y-98410761D01*
X145353142Y-98363142D01*
X145305523Y-98267904D01*
X145305523Y-97982190D01*
X145353142Y-97886952D01*
X145400761Y-97839333D01*
X145496000Y-97791714D01*
X145638857Y-97791714D01*
X145734095Y-97839333D01*
X145781714Y-97886952D01*
X145829333Y-97982190D01*
X145829333Y-98267904D01*
X145781714Y-98363142D01*
X145734095Y-98410761D01*
X145638857Y-98458380D01*
X145496000Y-98458380D01*
X146210285Y-98410761D02*
X146353142Y-98458380D01*
X146591238Y-98458380D01*
X146686476Y-98410761D01*
X146734095Y-98363142D01*
X146781714Y-98267904D01*
X146781714Y-98172666D01*
X146734095Y-98077428D01*
X146686476Y-98029809D01*
X146591238Y-97982190D01*
X146400761Y-97934571D01*
X146305523Y-97886952D01*
X146257904Y-97839333D01*
X146210285Y-97744095D01*
X146210285Y-97648857D01*
X146257904Y-97553619D01*
X146305523Y-97506000D01*
X146400761Y-97458380D01*
X146638857Y-97458380D01*
X146781714Y-97506000D01*
X147210285Y-98458380D02*
X147210285Y-97458380D01*
X147448380Y-97458380D01*
X147591238Y-97506000D01*
X147686476Y-97601238D01*
X147734095Y-97696476D01*
X147781714Y-97886952D01*
X147781714Y-98029809D01*
X147734095Y-98220285D01*
X147686476Y-98315523D01*
X147591238Y-98410761D01*
X147448380Y-98458380D01*
X147210285Y-98458380D01*
%TO.C,J7*%
X155285714Y-115166666D02*
X155761904Y-115166666D01*
X155190476Y-115452380D02*
X155523809Y-114452380D01*
X155857142Y-115452380D01*
X156190476Y-114452380D02*
X156190476Y-115261904D01*
X156238095Y-115357142D01*
X156285714Y-115404761D01*
X156380952Y-115452380D01*
X156571428Y-115452380D01*
X156666666Y-115404761D01*
X156714285Y-115357142D01*
X156761904Y-115261904D01*
X156761904Y-114452380D01*
X157142857Y-114452380D02*
X157809523Y-115452380D01*
X157809523Y-114452380D02*
X157142857Y-115452380D01*
X158619047Y-114785714D02*
X158619047Y-115452380D01*
X158380952Y-114404761D02*
X158142857Y-115119047D01*
X158761904Y-115119047D01*
%TO.C,J6*%
X110761904Y-115452380D02*
X110761904Y-114452380D01*
X111333333Y-115452380D02*
X110904761Y-114880952D01*
X111333333Y-114452380D02*
X110761904Y-115023809D01*
X112095238Y-114928571D02*
X112238095Y-114976190D01*
X112285714Y-115023809D01*
X112333333Y-115119047D01*
X112333333Y-115261904D01*
X112285714Y-115357142D01*
X112238095Y-115404761D01*
X112142857Y-115452380D01*
X111761904Y-115452380D01*
X111761904Y-114452380D01*
X112095238Y-114452380D01*
X112190476Y-114500000D01*
X112238095Y-114547619D01*
X112285714Y-114642857D01*
X112285714Y-114738095D01*
X112238095Y-114833333D01*
X112190476Y-114880952D01*
X112095238Y-114928571D01*
X111761904Y-114928571D01*
X113285714Y-115452380D02*
X112714285Y-115452380D01*
X113000000Y-115452380D02*
X113000000Y-114452380D01*
X112904761Y-114595238D01*
X112809523Y-114690476D01*
X112714285Y-114738095D01*
%TO.C,J4*%
X58285714Y-115166666D02*
X58761904Y-115166666D01*
X58190476Y-115452380D02*
X58523809Y-114452380D01*
X58857142Y-115452380D01*
X59190476Y-114452380D02*
X59190476Y-115261904D01*
X59238095Y-115357142D01*
X59285714Y-115404761D01*
X59380952Y-115452380D01*
X59571428Y-115452380D01*
X59666666Y-115404761D01*
X59714285Y-115357142D01*
X59761904Y-115261904D01*
X59761904Y-114452380D01*
X60142857Y-114452380D02*
X60809523Y-115452380D01*
X60809523Y-114452380D02*
X60142857Y-115452380D01*
X61714285Y-115452380D02*
X61142857Y-115452380D01*
X61428571Y-115452380D02*
X61428571Y-114452380D01*
X61333333Y-114595238D01*
X61238095Y-114690476D01*
X61142857Y-114738095D01*
%TO.C,J3*%
X79857142Y-115404761D02*
X80000000Y-115452380D01*
X80238095Y-115452380D01*
X80333333Y-115404761D01*
X80380952Y-115357142D01*
X80428571Y-115261904D01*
X80428571Y-115166666D01*
X80380952Y-115071428D01*
X80333333Y-115023809D01*
X80238095Y-114976190D01*
X80047619Y-114928571D01*
X79952380Y-114880952D01*
X79904761Y-114833333D01*
X79857142Y-114738095D01*
X79857142Y-114642857D01*
X79904761Y-114547619D01*
X79952380Y-114500000D01*
X80047619Y-114452380D01*
X80285714Y-114452380D01*
X80428571Y-114500000D01*
X80857142Y-114928571D02*
X81190476Y-114928571D01*
X81333333Y-115452380D02*
X80857142Y-115452380D01*
X80857142Y-114452380D01*
X81333333Y-114452380D01*
X82238095Y-115452380D02*
X81761904Y-115452380D01*
X81761904Y-114452380D01*
%TO.C,J2*%
X56271428Y-94309523D02*
X56223809Y-94452380D01*
X56176190Y-94500000D01*
X56080952Y-94547619D01*
X55938095Y-94547619D01*
X55842857Y-94500000D01*
X55795238Y-94452380D01*
X55747619Y-94357142D01*
X55747619Y-93976190D01*
X56747619Y-93976190D01*
X56747619Y-94309523D01*
X56700000Y-94404761D01*
X56652380Y-94452380D01*
X56557142Y-94500000D01*
X56461904Y-94500000D01*
X56366666Y-94452380D01*
X56319047Y-94404761D01*
X56271428Y-94309523D01*
X56271428Y-93976190D01*
X56033333Y-94928571D02*
X56033333Y-95404761D01*
X55747619Y-94833333D02*
X56747619Y-95166666D01*
X55747619Y-95500000D01*
X56747619Y-95690476D02*
X56747619Y-96261904D01*
X55747619Y-95976190D02*
X56747619Y-95976190D01*
X56795238Y-97309523D02*
X55509523Y-96452380D01*
X55795238Y-97595238D02*
X55747619Y-97738095D01*
X55747619Y-97976190D01*
X55795238Y-98071428D01*
X55842857Y-98119047D01*
X55938095Y-98166666D01*
X56033333Y-98166666D01*
X56128571Y-98119047D01*
X56176190Y-98071428D01*
X56223809Y-97976190D01*
X56271428Y-97785714D01*
X56319047Y-97690476D01*
X56366666Y-97642857D01*
X56461904Y-97595238D01*
X56557142Y-97595238D01*
X56652380Y-97642857D01*
X56700000Y-97690476D01*
X56747619Y-97785714D01*
X56747619Y-98023809D01*
X56700000Y-98166666D01*
X56747619Y-98500000D02*
X55747619Y-98738095D01*
X56461904Y-98928571D01*
X55747619Y-99119047D01*
X56747619Y-99357142D01*
X56795238Y-100452380D02*
X55509523Y-99595238D01*
X55747619Y-101261904D02*
X55747619Y-100785714D01*
X56747619Y-100785714D01*
X56271428Y-101595238D02*
X56271428Y-101928571D01*
X55747619Y-102071428D02*
X55747619Y-101595238D01*
X56747619Y-101595238D01*
X56747619Y-102071428D01*
X55747619Y-102500000D02*
X56747619Y-102500000D01*
X56747619Y-102738095D01*
X56700000Y-102880952D01*
X56604761Y-102976190D01*
X56509523Y-103023809D01*
X56319047Y-103071428D01*
X56176190Y-103071428D01*
X55985714Y-103023809D01*
X55890476Y-102976190D01*
X55795238Y-102880952D01*
X55747619Y-102738095D01*
X55747619Y-102500000D01*
%TO.C,J1*%
X69285714Y-115166666D02*
X69761904Y-115166666D01*
X69190476Y-115452380D02*
X69523809Y-114452380D01*
X69857142Y-115452380D01*
X70190476Y-114452380D02*
X70190476Y-115261904D01*
X70238095Y-115357142D01*
X70285714Y-115404761D01*
X70380952Y-115452380D01*
X70571428Y-115452380D01*
X70666666Y-115404761D01*
X70714285Y-115357142D01*
X70761904Y-115261904D01*
X70761904Y-114452380D01*
X71142857Y-114452380D02*
X71809523Y-115452380D01*
X71809523Y-114452380D02*
X71142857Y-115452380D01*
X72142857Y-114547619D02*
X72190476Y-114500000D01*
X72285714Y-114452380D01*
X72523809Y-114452380D01*
X72619047Y-114500000D01*
X72666666Y-114547619D01*
X72714285Y-114642857D01*
X72714285Y-114738095D01*
X72666666Y-114880952D01*
X72095238Y-115452380D01*
X72714285Y-115452380D01*
D10*
%TO.C,U4*%
X74324000Y-62684000D02*
X75654000Y-62684000D01*
X74324000Y-64014000D02*
X74324000Y-62684000D01*
X61624000Y-63970000D02*
X61624000Y-62640000D01*
X61624000Y-62640000D02*
X62954000Y-62640000D01*
%TO.C,J13*%
X137944000Y-55020000D02*
X137944000Y-56350000D01*
X136614000Y-55020000D02*
X137944000Y-55020000D01*
X137944000Y-57620000D02*
X137944000Y-60220000D01*
X135344000Y-57620000D02*
X137944000Y-57620000D01*
X135344000Y-55020000D02*
X135344000Y-57620000D01*
X137944000Y-60220000D02*
X130204000Y-60220000D01*
X135344000Y-55020000D02*
X130204000Y-55020000D01*
X130204000Y-55020000D02*
X130204000Y-60220000D01*
%TO.C,XiaoNiuNiu*%
G36*
X87425593Y-59580861D02*
G01*
X87565934Y-59672252D01*
X87660972Y-59809163D01*
X87697458Y-59973356D01*
X87662141Y-60146589D01*
X87559988Y-60293190D01*
X87383974Y-60412128D01*
X87197442Y-60435163D01*
X87013586Y-60360698D01*
X87011954Y-60359559D01*
X86883073Y-60215514D01*
X86830722Y-60037457D01*
X86853001Y-59853953D01*
X86948009Y-59693568D01*
X87061996Y-59607603D01*
X87253197Y-59553232D01*
X87425593Y-59580861D01*
G37*
G36*
X84921699Y-59583022D02*
G01*
X85067018Y-59665551D01*
X85173962Y-59792690D01*
X85223631Y-59952477D01*
X85197125Y-60132954D01*
X85174099Y-60184371D01*
X85041540Y-60353545D01*
X84875671Y-60433983D01*
X84694395Y-60422836D01*
X84515613Y-60317255D01*
X84490210Y-60293190D01*
X84371034Y-60117103D01*
X84349384Y-59931477D01*
X84426143Y-59747326D01*
X84444486Y-59722679D01*
X84591533Y-59599626D01*
X84756904Y-59557060D01*
X84921699Y-59583022D01*
G37*
G36*
X86839239Y-63164115D02*
G01*
X86930460Y-63228289D01*
X86953755Y-63250988D01*
X87036494Y-63398293D01*
X87047667Y-63579429D01*
X86994536Y-63766055D01*
X86884362Y-63929829D01*
X86754608Y-64028202D01*
X86598487Y-64092465D01*
X86486305Y-64088618D01*
X86386247Y-64014438D01*
X86374380Y-64001629D01*
X86296262Y-63847170D01*
X86293296Y-63663193D01*
X86357480Y-63476435D01*
X86480811Y-63313633D01*
X86607334Y-63223324D01*
X86744727Y-63163514D01*
X86839239Y-63164115D01*
G37*
G36*
X85357656Y-63195135D02*
G01*
X85530126Y-63301334D01*
X85657069Y-63457154D01*
X85729533Y-63637713D01*
X85738567Y-63818127D01*
X85675220Y-63973514D01*
X85648617Y-64003953D01*
X85516209Y-64090128D01*
X85374946Y-64083713D01*
X85212120Y-63983943D01*
X85204041Y-63977211D01*
X85074760Y-63827143D01*
X84988366Y-63646728D01*
X84959690Y-63472653D01*
X84971123Y-63401032D01*
X85057229Y-63267346D01*
X85192831Y-63190626D01*
X85342237Y-63189886D01*
X85357656Y-63195135D01*
G37*
G36*
X79443849Y-63217373D02*
G01*
X79503842Y-62443230D01*
X79653008Y-61680502D01*
X79890453Y-60938706D01*
X80215280Y-60227360D01*
X80626595Y-59555980D01*
X80759578Y-59373221D01*
X80939659Y-59134783D01*
X80671312Y-59134041D01*
X80432514Y-59119113D01*
X80179013Y-59079595D01*
X79930349Y-59021517D01*
X79706063Y-58950908D01*
X79525698Y-58873798D01*
X79408795Y-58796218D01*
X79373914Y-58733687D01*
X79407462Y-58669464D01*
X79725297Y-58669464D01*
X79771111Y-58709498D01*
X79892237Y-58755032D01*
X80064199Y-58800535D01*
X80262521Y-58840475D01*
X80462727Y-58869320D01*
X80640341Y-58881538D01*
X80663862Y-58881591D01*
X80861537Y-58863839D01*
X81058134Y-58822304D01*
X81105732Y-58807051D01*
X81279809Y-58749086D01*
X81394376Y-58731421D01*
X81456531Y-58765544D01*
X81473370Y-58862942D01*
X81451993Y-59035104D01*
X81401244Y-59285376D01*
X81359256Y-59548105D01*
X81330691Y-59865271D01*
X81315935Y-60208533D01*
X81315377Y-60549551D01*
X81329403Y-60859987D01*
X81358401Y-61111499D01*
X81375173Y-61192886D01*
X81462772Y-61468212D01*
X81595194Y-61789808D01*
X81756618Y-62123933D01*
X81931219Y-62436849D01*
X82034246Y-62598211D01*
X82263203Y-62900919D01*
X82551945Y-63229936D01*
X82875018Y-63558525D01*
X83206969Y-63859949D01*
X83339526Y-63969314D01*
X83716008Y-64269830D01*
X83739347Y-64085170D01*
X84042104Y-64085170D01*
X84047647Y-64281888D01*
X84070880Y-64421067D01*
X84073780Y-64429179D01*
X84140416Y-64500093D01*
X84284003Y-64593008D01*
X84485812Y-64699522D01*
X84727113Y-64811231D01*
X84989178Y-64919735D01*
X85253275Y-65016631D01*
X85500675Y-65093517D01*
X85623518Y-65124383D01*
X85876185Y-65151217D01*
X86183249Y-65137767D01*
X86508185Y-65086312D01*
X86606892Y-65062986D01*
X86829749Y-64995658D01*
X87083880Y-64903202D01*
X87341353Y-64797452D01*
X87574233Y-64690244D01*
X87754588Y-64593412D01*
X87822424Y-64547983D01*
X87914933Y-64418778D01*
X87963897Y-64224402D01*
X87970341Y-63989639D01*
X87935293Y-63739278D01*
X87859778Y-63498103D01*
X87771969Y-63330036D01*
X87511710Y-63018361D01*
X87190748Y-62773805D01*
X86823963Y-62597409D01*
X86426233Y-62490211D01*
X86012437Y-62453250D01*
X85597454Y-62487566D01*
X85196164Y-62594197D01*
X84823444Y-62774183D01*
X84494174Y-63028563D01*
X84427325Y-63096448D01*
X84292094Y-63254990D01*
X84177676Y-63413741D01*
X84114584Y-63526525D01*
X84077275Y-63669814D01*
X84052548Y-63868587D01*
X84042104Y-64085170D01*
X83739347Y-64085170D01*
X83752555Y-63980668D01*
X83797751Y-63758505D01*
X83870869Y-63523604D01*
X83911200Y-63424806D01*
X84131949Y-63057855D01*
X84431897Y-62749923D01*
X84812803Y-62499502D01*
X85175751Y-62340013D01*
X85470648Y-62265927D01*
X85821233Y-62229171D01*
X86189997Y-62229744D01*
X86539430Y-62267647D01*
X86824250Y-62340013D01*
X87254338Y-62538770D01*
X87616533Y-62793326D01*
X87903912Y-63095825D01*
X88109551Y-63438409D01*
X88226524Y-63813221D01*
X88245422Y-63952596D01*
X88265115Y-64111679D01*
X88288747Y-64221202D01*
X88307814Y-64254941D01*
X88357661Y-64224540D01*
X88468003Y-64141654D01*
X88622791Y-64018757D01*
X88805972Y-63868324D01*
X88815616Y-63860280D01*
X89344470Y-63368766D01*
X89794894Y-62844958D01*
X90161416Y-62297052D01*
X90438564Y-61733243D01*
X90620866Y-61161726D01*
X90622698Y-61153801D01*
X90652582Y-60948127D01*
X90668678Y-60670687D01*
X90671423Y-60349097D01*
X90661254Y-60010973D01*
X90638609Y-59683931D01*
X90603924Y-59395588D01*
X90593921Y-59335573D01*
X90548060Y-59066359D01*
X90527715Y-58883952D01*
X90539600Y-58776539D01*
X90590426Y-58732307D01*
X90686907Y-58739446D01*
X90835756Y-58786142D01*
X90894269Y-58807051D01*
X91075610Y-58853236D01*
X91280975Y-58879510D01*
X91336139Y-58881591D01*
X91508167Y-58872390D01*
X91706513Y-58845720D01*
X91906701Y-58807112D01*
X92084256Y-58762099D01*
X92214701Y-58716213D01*
X92273562Y-58674984D01*
X92274704Y-58669464D01*
X92236806Y-58599369D01*
X92134566Y-58486062D01*
X91985163Y-58344924D01*
X91805779Y-58191337D01*
X91613592Y-58040682D01*
X91425783Y-57908341D01*
X91421344Y-57905434D01*
X90959404Y-57655305D01*
X90469563Y-57494883D01*
X90116206Y-57433731D01*
X89901282Y-57413390D01*
X89758425Y-57415292D01*
X89661505Y-57440768D01*
X89628545Y-57458610D01*
X89505700Y-57513081D01*
X89421193Y-57528459D01*
X89375495Y-57537954D01*
X89345288Y-57578828D01*
X89325930Y-57669660D01*
X89312777Y-57829031D01*
X89304616Y-57994955D01*
X89278189Y-58305805D01*
X89224342Y-58536912D01*
X89134385Y-58707166D01*
X88999626Y-58835457D01*
X88886364Y-58903997D01*
X88644592Y-58987813D01*
X88342003Y-59027008D01*
X87997979Y-59025546D01*
X87631903Y-58987390D01*
X87263155Y-58916506D01*
X86911117Y-58816856D01*
X86595171Y-58692407D01*
X86334698Y-58547120D01*
X86149081Y-58384962D01*
X86112945Y-58336747D01*
X86016843Y-58105461D01*
X86001919Y-57843386D01*
X86064145Y-57572824D01*
X86199495Y-57316082D01*
X86323997Y-57167955D01*
X86436417Y-57085847D01*
X86609693Y-56992548D01*
X86808805Y-56906642D01*
X86834336Y-56897142D01*
X87127122Y-56778433D01*
X87324631Y-56665598D01*
X87430870Y-56549630D01*
X87449848Y-56421522D01*
X87385573Y-56272269D01*
X87242053Y-56092865D01*
X87208306Y-56056877D01*
X86960880Y-55797503D01*
X86203991Y-55779042D01*
X85451332Y-55793575D01*
X84768101Y-55876307D01*
X84149171Y-56028199D01*
X83589414Y-56250214D01*
X83526197Y-56281502D01*
X83409702Y-56345413D01*
X83369337Y-56393690D01*
X83390313Y-56453280D01*
X83413252Y-56487299D01*
X83480293Y-56663279D01*
X83479231Y-56876389D01*
X83416323Y-57096307D01*
X83297823Y-57292709D01*
X83233051Y-57360828D01*
X83036877Y-57479904D01*
X82794340Y-57541809D01*
X82547713Y-57536523D01*
X82517677Y-57530405D01*
X82381808Y-57491203D01*
X82289369Y-57449775D01*
X82278376Y-57441142D01*
X82200618Y-57420071D01*
X82050307Y-57421261D01*
X81851974Y-57441413D01*
X81630152Y-57477224D01*
X81409373Y-57525394D01*
X81214170Y-57582619D01*
X81206127Y-57585444D01*
X81005168Y-57670574D01*
X80775045Y-57788473D01*
X80578657Y-57905434D01*
X80391174Y-58037127D01*
X80198888Y-58187515D01*
X80018980Y-58341215D01*
X79868629Y-58482846D01*
X79765017Y-58597027D01*
X79725322Y-58668374D01*
X79725297Y-58669464D01*
X79407462Y-58669464D01*
X79408652Y-58667187D01*
X79503644Y-58548750D01*
X79645056Y-58394186D01*
X79819053Y-58219309D01*
X79849989Y-58189546D01*
X80089857Y-57968154D01*
X80294019Y-57801314D01*
X80492215Y-57667443D01*
X80714184Y-57544961D01*
X80791195Y-57506555D01*
X81070327Y-57384451D01*
X81348875Y-57288436D01*
X81605147Y-57223928D01*
X81817452Y-57196344D01*
X81964098Y-57211103D01*
X81968169Y-57212603D01*
X82024978Y-57217722D01*
X82026435Y-57197624D01*
X81995283Y-57133187D01*
X81932511Y-57004128D01*
X81850567Y-56836033D01*
X81833704Y-56801478D01*
X81690759Y-56434784D01*
X81642035Y-56166337D01*
X81634243Y-56001142D01*
X81647931Y-55903075D01*
X81693204Y-55839517D01*
X81757926Y-55792270D01*
X81849538Y-55742859D01*
X81944185Y-55727111D01*
X82079031Y-55742315D01*
X82177737Y-55761629D01*
X82368770Y-55815130D01*
X82598283Y-55899119D01*
X82816892Y-55995508D01*
X82818785Y-55996438D01*
X83176502Y-56172463D01*
X83500080Y-56025746D01*
X84162448Y-55777818D01*
X84866192Y-55610968D01*
X85594823Y-55525221D01*
X86331850Y-55520601D01*
X87060784Y-55597130D01*
X87765134Y-55754834D01*
X88428412Y-55993735D01*
X88484022Y-56018537D01*
X88791701Y-56158045D01*
X89115119Y-55991442D01*
X89434244Y-55849233D01*
X89719263Y-55765832D01*
X89959573Y-55742005D01*
X90144576Y-55778523D01*
X90263670Y-55876153D01*
X90280450Y-55906949D01*
X90307230Y-56063134D01*
X90283157Y-56280697D01*
X90213045Y-56537471D01*
X90101710Y-56811286D01*
X90069983Y-56875908D01*
X89992658Y-57052508D01*
X89965592Y-57172756D01*
X89989134Y-57226496D01*
X90058626Y-57206737D01*
X90160241Y-57190021D01*
X90331368Y-57209869D01*
X90550419Y-57260655D01*
X90795806Y-57336750D01*
X91045943Y-57432529D01*
X91208806Y-57506555D01*
X91443950Y-57629859D01*
X91646247Y-57757967D01*
X91845435Y-57912460D01*
X92071256Y-58114919D01*
X92150012Y-58189546D01*
X92328062Y-58366258D01*
X92475814Y-58525270D01*
X92579434Y-58650770D01*
X92625086Y-58726945D01*
X92626087Y-58733687D01*
X92579461Y-58806587D01*
X92452665Y-58884376D01*
X92265325Y-58960974D01*
X92037064Y-59030298D01*
X91787508Y-59086268D01*
X91536281Y-59122803D01*
X91334082Y-59134041D01*
X91071128Y-59134783D01*
X91342299Y-59512715D01*
X91768392Y-60192344D01*
X92108138Y-60923019D01*
X92361256Y-61704103D01*
X92433686Y-62009417D01*
X92502578Y-62440580D01*
X92541310Y-62929955D01*
X92549955Y-63444406D01*
X92528584Y-63950798D01*
X92477268Y-64415997D01*
X92427897Y-64680562D01*
X92198306Y-65484028D01*
X91885482Y-66231820D01*
X91487968Y-66926502D01*
X91004307Y-67570637D01*
X90463586Y-68138198D01*
X90006507Y-68568472D01*
X90110866Y-68715031D01*
X90290422Y-69040114D01*
X90409612Y-69411715D01*
X90448995Y-69676285D01*
X90452602Y-69924904D01*
X90411904Y-70103353D01*
X90314091Y-70236789D01*
X90146350Y-70350370D01*
X90091107Y-70379052D01*
X90007247Y-70419122D01*
X89926751Y-70449864D01*
X89834896Y-70472750D01*
X89716959Y-70489253D01*
X89558216Y-70500846D01*
X89343943Y-70509001D01*
X89059417Y-70515192D01*
X88689914Y-70520890D01*
X88670290Y-70521169D01*
X88138393Y-70524214D01*
X87697213Y-70515558D01*
X87337549Y-70493258D01*
X87050199Y-70455370D01*
X86825960Y-70399952D01*
X86655632Y-70325060D01*
X86530010Y-70228749D01*
X86439894Y-70109077D01*
X86406689Y-70043085D01*
X86361906Y-69954631D01*
X86308325Y-69908482D01*
X86216119Y-69892564D01*
X86055463Y-69894802D01*
X86041642Y-69895299D01*
X85874173Y-69905114D01*
X85775592Y-69929301D01*
X85714398Y-69983091D01*
X85660052Y-70079776D01*
X85529881Y-70245527D01*
X85320788Y-70371932D01*
X85025134Y-70463277D01*
X84948838Y-70478880D01*
X84786045Y-70498475D01*
X84545969Y-70512759D01*
X84248196Y-70521905D01*
X83912311Y-70526082D01*
X83557900Y-70525463D01*
X83204548Y-70520218D01*
X82871842Y-70510518D01*
X82579366Y-70496534D01*
X82346707Y-70478437D01*
X82193451Y-70456399D01*
X82186378Y-70454755D01*
X81929567Y-70363012D01*
X81757986Y-70226232D01*
X81662210Y-70032835D01*
X81632807Y-69774634D01*
X81663680Y-69467734D01*
X81747511Y-69152329D01*
X81871116Y-68872366D01*
X81932860Y-68774318D01*
X82040464Y-68623202D01*
X81443502Y-68032846D01*
X81012678Y-67578402D01*
X80655499Y-67135337D01*
X80352525Y-66677414D01*
X80113535Y-66237747D01*
X79807874Y-65513118D01*
X79594970Y-64761834D01*
X79538268Y-64401869D01*
X79743755Y-64401869D01*
X79755345Y-64486446D01*
X79787209Y-64635375D01*
X79833471Y-64832214D01*
X80043489Y-65515697D01*
X80339875Y-66186759D01*
X80711499Y-66827352D01*
X81147230Y-67419426D01*
X81635940Y-67944933D01*
X81895491Y-68176091D01*
X82187670Y-68419245D01*
X82437650Y-68239652D01*
X82835129Y-68011812D01*
X83254411Y-67877084D01*
X83682973Y-67834468D01*
X84108294Y-67882965D01*
X84517851Y-68021574D01*
X84899123Y-68249297D01*
X85136449Y-68455146D01*
X85363939Y-68728289D01*
X85543965Y-69035944D01*
X85659232Y-69345866D01*
X85685556Y-69478883D01*
X85712034Y-69676285D01*
X86030752Y-69676285D01*
X86204433Y-69673738D01*
X86303023Y-69659436D01*
X86351814Y-69623382D01*
X86376095Y-69555581D01*
X86380035Y-69538241D01*
X86488880Y-69156201D01*
X86637889Y-68841666D01*
X86843601Y-68564563D01*
X87007203Y-68398062D01*
X87354627Y-68136545D01*
X87745968Y-67952720D01*
X88161824Y-67852524D01*
X88582794Y-67841890D01*
X88751105Y-67864565D01*
X88972272Y-67920548D01*
X89208127Y-68004707D01*
X89429937Y-68104258D01*
X89608967Y-68206415D01*
X89711225Y-68291754D01*
X89792294Y-68358028D01*
X89882173Y-68351025D01*
X90004238Y-68267297D01*
X90030452Y-68244674D01*
X90119603Y-68155406D01*
X90139705Y-68087042D01*
X90106546Y-68007822D01*
X90077875Y-67905112D01*
X90052384Y-67707108D01*
X90030549Y-67418873D01*
X90012847Y-67045473D01*
X90010866Y-66990712D01*
X89998836Y-66665939D01*
X89986459Y-66419489D01*
X89970305Y-66229337D01*
X89946943Y-66073457D01*
X89912942Y-65929824D01*
X89864871Y-65776413D01*
X89799299Y-65591199D01*
X89788020Y-65560079D01*
X89677862Y-65227130D01*
X89614460Y-64959780D01*
X89592971Y-64740356D01*
X89596021Y-64568128D01*
X89619916Y-64458126D01*
X89678270Y-64372441D01*
X89749598Y-64304225D01*
X89901073Y-64194277D01*
X90080001Y-64119733D01*
X90307178Y-64075441D01*
X90603399Y-64056249D01*
X90757838Y-64054430D01*
X91030003Y-64045392D01*
X91248970Y-64020406D01*
X91385308Y-63984575D01*
X91490623Y-63917974D01*
X91638570Y-63797301D01*
X91804749Y-63643219D01*
X91889173Y-63557895D01*
X92040144Y-63405819D01*
X92168990Y-63285970D01*
X92258116Y-63214196D01*
X92285634Y-63200791D01*
X92312199Y-63154527D01*
X92321888Y-63028059D01*
X92316247Y-62839877D01*
X92296821Y-62608466D01*
X92265157Y-62352314D01*
X92222800Y-62089909D01*
X92172133Y-61843331D01*
X92123414Y-61638750D01*
X92082179Y-61474524D01*
X92054094Y-61372758D01*
X92045888Y-61350846D01*
X91992447Y-61334469D01*
X91865125Y-61307078D01*
X91689097Y-61273991D01*
X91647119Y-61266612D01*
X91443304Y-61223269D01*
X91263346Y-61171071D01*
X91143238Y-61120618D01*
X91135808Y-61116014D01*
X91071131Y-61067602D01*
X91034734Y-61011018D01*
X91020816Y-60920513D01*
X91023578Y-60770337D01*
X91030396Y-60648075D01*
X91070125Y-60327137D01*
X91148710Y-60080590D01*
X91165543Y-60046023D01*
X91225597Y-59901714D01*
X91250562Y-59783301D01*
X91246446Y-59746220D01*
X91199945Y-59661009D01*
X91119030Y-59540620D01*
X91024247Y-59412430D01*
X90936140Y-59303816D01*
X90875253Y-59242155D01*
X90864118Y-59236730D01*
X90854650Y-59280385D01*
X90862353Y-59394353D01*
X90876885Y-59498716D01*
X90909767Y-59780389D01*
X90927543Y-60108216D01*
X90930638Y-60453928D01*
X90919479Y-60789258D01*
X90894496Y-61085938D01*
X90856113Y-61315701D01*
X90849000Y-61343478D01*
X90633244Y-61947929D01*
X90323046Y-62536740D01*
X89923956Y-63103240D01*
X89441528Y-63640757D01*
X88881312Y-64142622D01*
X88248859Y-64602162D01*
X88013887Y-64750296D01*
X87817589Y-64861330D01*
X87589051Y-64977963D01*
X87350352Y-65090384D01*
X87123568Y-65188782D01*
X86930780Y-65263347D01*
X86794066Y-65304267D01*
X86756350Y-65309091D01*
X86693802Y-65350981D01*
X86634445Y-65448146D01*
X86603123Y-65557829D01*
X86602372Y-65574098D01*
X86634119Y-65639880D01*
X86719555Y-65759503D01*
X86843968Y-65913319D01*
X86933682Y-66016628D01*
X87146388Y-66269313D01*
X87289592Y-66476150D01*
X87372531Y-66653574D01*
X87404441Y-66818019D01*
X87405534Y-66856182D01*
X87358730Y-67056111D01*
X87231447Y-67239723D01*
X87043378Y-67397395D01*
X86814215Y-67519505D01*
X86563652Y-67596429D01*
X86311380Y-67618546D01*
X86077093Y-67576232D01*
X86000103Y-67542938D01*
X85825491Y-67408121D01*
X85669340Y-67207637D01*
X85558072Y-66975900D01*
X85553080Y-66960756D01*
X85448145Y-66708363D01*
X85296713Y-66476979D01*
X85088514Y-66257223D01*
X84813276Y-66039715D01*
X84460729Y-65815074D01*
X84053038Y-65590783D01*
X83716670Y-65405758D01*
X83472217Y-65249018D01*
X83316106Y-65117857D01*
X83244761Y-65009567D01*
X83239131Y-64974349D01*
X83266397Y-64843566D01*
X83333224Y-64691544D01*
X83417157Y-64562794D01*
X83472866Y-64511055D01*
X83537060Y-64463862D01*
X83514188Y-64426121D01*
X83476551Y-64402469D01*
X83246462Y-64241180D01*
X82977781Y-64014947D01*
X82688321Y-63741880D01*
X82395898Y-63440087D01*
X82118325Y-63127677D01*
X81873418Y-62822758D01*
X81740768Y-62638020D01*
X81600051Y-62398956D01*
X81453820Y-62097803D01*
X81317434Y-61770669D01*
X81206254Y-61453667D01*
X81149495Y-61247943D01*
X81114055Y-61025992D01*
X81090382Y-60736087D01*
X81078909Y-60410026D01*
X81080067Y-60079607D01*
X81094291Y-59776630D01*
X81122011Y-59532894D01*
X81125864Y-59511275D01*
X81151481Y-59360786D01*
X81157679Y-59269073D01*
X81138489Y-59240450D01*
X81087938Y-59279232D01*
X81000058Y-59389731D01*
X80868877Y-59576262D01*
X80709033Y-59812451D01*
X80445575Y-60230645D01*
X80236496Y-60626229D01*
X80059616Y-61041537D01*
X80045278Y-61079309D01*
X79969281Y-61294746D01*
X79936712Y-61440434D01*
X79949840Y-61538191D01*
X80010930Y-61609838D01*
X80106539Y-61668816D01*
X80303530Y-61807907D01*
X80494061Y-61998453D01*
X80652763Y-62210173D01*
X80754264Y-62412789D01*
X80767547Y-62457723D01*
X80798691Y-62609505D01*
X80834727Y-62821804D01*
X80869130Y-63055391D01*
X80877763Y-63120672D01*
X80912735Y-63347016D01*
X80955444Y-63557158D01*
X80998240Y-63714960D01*
X81010554Y-63748143D01*
X81124497Y-63949947D01*
X81272709Y-64114851D01*
X81429470Y-64215771D01*
X81465863Y-64227552D01*
X81588302Y-64305796D01*
X81681606Y-64456114D01*
X81744137Y-64654632D01*
X81774254Y-64877478D01*
X81770317Y-65100778D01*
X81730686Y-65300659D01*
X81653721Y-65453248D01*
X81555261Y-65528897D01*
X81421596Y-65558434D01*
X81278001Y-65541544D01*
X81113768Y-65472246D01*
X80918191Y-65344559D01*
X80680565Y-65152502D01*
X80390182Y-64890094D01*
X80358350Y-64860242D01*
X80165476Y-64681874D01*
X79996455Y-64531163D01*
X79865459Y-64420320D01*
X79786657Y-64361554D01*
X79772377Y-64355336D01*
X79750185Y-64364035D01*
X79743755Y-64401869D01*
X79538268Y-64401869D01*
X79473927Y-63993413D01*
X79443849Y-63217373D01*
G37*
%TO.C,J5*%
X146656000Y-118675000D02*
X146656000Y-118225000D01*
X146656000Y-118225000D02*
X147606000Y-118225000D01*
X147606000Y-118225000D02*
X147606000Y-116735000D01*
X152376000Y-118675000D02*
X152376000Y-118225000D01*
X152376000Y-118225000D02*
X151426000Y-118225000D01*
X146656000Y-122195000D02*
X146656000Y-122645000D01*
X146656000Y-122645000D02*
X152376000Y-122645000D01*
X152376000Y-122645000D02*
X152376000Y-122195000D01*
%TO.C,Y1*%
X119936000Y-81484000D02*
X119936000Y-88034000D01*
X123836000Y-81484000D02*
X119936000Y-81484000D01*
X123836000Y-88034000D02*
X123836000Y-81484000D01*
D11*
%TO.C,U3*%
X112071000Y-90545000D02*
X112071000Y-89970000D01*
X101721000Y-90545000D02*
X101721000Y-89870000D01*
X101721000Y-80195000D02*
X101721000Y-80870000D01*
X112071000Y-80195000D02*
X112071000Y-80870000D01*
X112071000Y-90545000D02*
X111396000Y-90545000D01*
X112071000Y-80195000D02*
X111396000Y-80195000D01*
X101721000Y-80195000D02*
X102396000Y-80195000D01*
X101721000Y-90545000D02*
X102396000Y-90545000D01*
X112071000Y-89970000D02*
X113346000Y-89970000D01*
D10*
%TO.C,U2*%
X66425500Y-80894000D02*
X72435500Y-80894000D01*
X68675500Y-87714000D02*
X72435500Y-87714000D01*
X72435500Y-80894000D02*
X72435500Y-82154000D01*
X72435500Y-87714000D02*
X72435500Y-86454000D01*
%TO.C,U1*%
X66474000Y-90278000D02*
X72484000Y-90278000D01*
X68724000Y-97098000D02*
X72484000Y-97098000D01*
X72484000Y-90278000D02*
X72484000Y-91538000D01*
X72484000Y-97098000D02*
X72484000Y-95838000D01*
%TO.C,SW1*%
X135272000Y-75508000D02*
X128812000Y-75508000D01*
X135272000Y-80038000D02*
X135272000Y-77438000D01*
X135272000Y-81968000D02*
X128812000Y-81968000D01*
X128812000Y-80038000D02*
X128812000Y-77438000D01*
X135272000Y-81938000D02*
X135272000Y-81968000D01*
X135272000Y-75508000D02*
X135272000Y-75538000D01*
X128812000Y-75508000D02*
X128812000Y-75538000D01*
X128812000Y-81968000D02*
X128812000Y-81938000D01*
%TO.C,R20*%
X134076000Y-114579529D02*
X134076000Y-114253971D01*
X133056000Y-114579529D02*
X133056000Y-114253971D01*
%TO.C,R19*%
X136947401Y-114582695D02*
X136947401Y-114257137D01*
X135927401Y-114582695D02*
X135927401Y-114257137D01*
%TO.C,R18*%
X138516014Y-114579529D02*
X138516014Y-114253971D01*
X137496014Y-114579529D02*
X137496014Y-114253971D01*
%TO.C,R17*%
X141442000Y-114579529D02*
X141442000Y-114253971D01*
X140422000Y-114579529D02*
X140422000Y-114253971D01*
%TO.C,R16*%
X100802000Y-114589779D02*
X100802000Y-114264221D01*
X99782000Y-114589779D02*
X99782000Y-114264221D01*
%TO.C,R15*%
X103088000Y-114589779D02*
X103088000Y-114264221D01*
X102068000Y-114589779D02*
X102068000Y-114264221D01*
%TO.C,R14*%
X105120000Y-114589779D02*
X105120000Y-114264221D01*
X104100000Y-114589779D02*
X104100000Y-114264221D01*
%TO.C,R13*%
X106644000Y-114589779D02*
X106644000Y-114264221D01*
X105624000Y-114589779D02*
X105624000Y-114264221D01*
%TO.C,R12*%
X161023000Y-114589779D02*
X161023000Y-114264221D01*
X160003000Y-114589779D02*
X160003000Y-114264221D01*
%TO.C,R11*%
X149955000Y-114619529D02*
X149955000Y-114293971D01*
X148935000Y-114619529D02*
X148935000Y-114293971D01*
%TO.C,R10*%
X151479000Y-114619529D02*
X151479000Y-114293971D01*
X150459000Y-114619529D02*
X150459000Y-114293971D01*
%TO.C,R9*%
X72477772Y-102356517D02*
X72477772Y-102682075D01*
X73497772Y-102356517D02*
X73497772Y-102682075D01*
%TO.C,R8*%
X71973772Y-102707575D02*
X71973772Y-102382017D01*
X70953772Y-102707575D02*
X70953772Y-102382017D01*
%TO.C,R7*%
X63658000Y-114504779D02*
X63658000Y-114179221D01*
X62638000Y-114504779D02*
X62638000Y-114179221D01*
%TO.C,R6*%
X65182000Y-114504779D02*
X65182000Y-114179221D01*
X64162000Y-114504779D02*
X64162000Y-114179221D01*
%TO.C,R5*%
X115974279Y-86320000D02*
X115648721Y-86320000D01*
X115974279Y-87340000D02*
X115648721Y-87340000D01*
%TO.C,R4*%
X84565000Y-114589779D02*
X84565000Y-114264221D01*
X83545000Y-114589779D02*
X83545000Y-114264221D01*
%TO.C,R3*%
X114514000Y-83593721D02*
X114514000Y-83919279D01*
X115534000Y-83593721D02*
X115534000Y-83919279D01*
%TO.C,R2*%
X56187221Y-106390000D02*
X56512779Y-106390000D01*
X56187221Y-105370000D02*
X56512779Y-105370000D01*
%TO.C,R1*%
X75077000Y-114564279D02*
X75077000Y-114238721D01*
X74057000Y-114564279D02*
X74057000Y-114238721D01*
%TO.C,J15*%
X54308000Y-61795000D02*
X54758000Y-61795000D01*
X54758000Y-61795000D02*
X54758000Y-62745000D01*
X54758000Y-62745000D02*
X56248000Y-62745000D01*
X54308000Y-73765000D02*
X54758000Y-73765000D01*
X54758000Y-73765000D02*
X54758000Y-72815000D01*
X50788000Y-61795000D02*
X50338000Y-61795000D01*
X50338000Y-61795000D02*
X50338000Y-73765000D01*
X50338000Y-73765000D02*
X50788000Y-73765000D01*
%TO.C,J14*%
X124392000Y-118675000D02*
X124392000Y-118225000D01*
X124392000Y-118225000D02*
X125342000Y-118225000D01*
X125342000Y-118225000D02*
X125342000Y-116735000D01*
X141362000Y-118675000D02*
X141362000Y-118225000D01*
X141362000Y-118225000D02*
X140412000Y-118225000D01*
X124392000Y-122195000D02*
X124392000Y-122645000D01*
X124392000Y-122645000D02*
X141362000Y-122645000D01*
X141362000Y-122645000D02*
X141362000Y-122195000D01*
%TO.C,J12*%
X161760000Y-62100000D02*
X163090000Y-62100000D01*
X161760000Y-63430000D02*
X161760000Y-62100000D01*
X161760000Y-64700000D02*
X164420000Y-64700000D01*
X164420000Y-64700000D02*
X164420000Y-72380000D01*
X161760000Y-64700000D02*
X161760000Y-72380000D01*
X161760000Y-72380000D02*
X164420000Y-72380000D01*
%TO.C,J11*%
X167419000Y-118675000D02*
X167419000Y-118225000D01*
X167419000Y-118225000D02*
X168369000Y-118225000D01*
X168369000Y-118225000D02*
X168369000Y-116735000D01*
X174389000Y-118675000D02*
X174389000Y-118225000D01*
X174389000Y-118225000D02*
X173439000Y-118225000D01*
X167419000Y-122195000D02*
X167419000Y-122645000D01*
X167419000Y-122645000D02*
X174389000Y-122645000D01*
X174389000Y-122645000D02*
X174389000Y-122195000D01*
%TO.C,J10*%
X91114000Y-118675000D02*
X91114000Y-118225000D01*
X91114000Y-118225000D02*
X92064000Y-118225000D01*
X92064000Y-118225000D02*
X92064000Y-116735000D01*
X108084000Y-118675000D02*
X108084000Y-118225000D01*
X108084000Y-118225000D02*
X107134000Y-118225000D01*
X91114000Y-122195000D02*
X91114000Y-122645000D01*
X91114000Y-122645000D02*
X108084000Y-122645000D01*
X108084000Y-122645000D02*
X108084000Y-122195000D01*
%TO.C,J9*%
X108628000Y-56360000D02*
X108628000Y-55910000D01*
X108628000Y-55910000D02*
X109578000Y-55910000D01*
X109578000Y-55910000D02*
X109578000Y-54420000D01*
X116848000Y-56360000D02*
X116848000Y-55910000D01*
X116848000Y-55910000D02*
X115898000Y-55910000D01*
X108628000Y-59880000D02*
X108628000Y-60330000D01*
X108628000Y-60330000D02*
X116848000Y-60330000D01*
X116848000Y-60330000D02*
X116848000Y-59880000D01*
%TO.C,J8*%
X142530000Y-81390000D02*
X143860000Y-81390000D01*
X142530000Y-82720000D02*
X142530000Y-81390000D01*
X142530000Y-83990000D02*
X145190000Y-83990000D01*
X145190000Y-83990000D02*
X145190000Y-96750000D01*
X142530000Y-83990000D02*
X142530000Y-96750000D01*
X142530000Y-96750000D02*
X145190000Y-96750000D01*
%TO.C,J7*%
X157660000Y-118675000D02*
X157660000Y-118225000D01*
X157660000Y-118225000D02*
X158610000Y-118225000D01*
X158610000Y-118225000D02*
X158610000Y-116735000D01*
X162130000Y-118675000D02*
X162130000Y-118225000D01*
X162130000Y-118225000D02*
X161180000Y-118225000D01*
X157660000Y-122195000D02*
X157660000Y-122645000D01*
X157660000Y-122645000D02*
X162130000Y-122645000D01*
X162130000Y-122645000D02*
X162130000Y-122195000D01*
%TO.C,J6*%
X113378000Y-118675000D02*
X113378000Y-118225000D01*
X113378000Y-118225000D02*
X114328000Y-118225000D01*
X114328000Y-118225000D02*
X114328000Y-116735000D01*
X119098000Y-118675000D02*
X119098000Y-118225000D01*
X119098000Y-118225000D02*
X118148000Y-118225000D01*
X113378000Y-122195000D02*
X113378000Y-122645000D01*
X113378000Y-122645000D02*
X119098000Y-122645000D01*
X119098000Y-122645000D02*
X119098000Y-122195000D01*
%TO.C,J4*%
X60602000Y-118675000D02*
X60602000Y-118225000D01*
X60602000Y-118225000D02*
X61552000Y-118225000D01*
X61552000Y-118225000D02*
X61552000Y-116735000D01*
X66322000Y-118675000D02*
X66322000Y-118225000D01*
X66322000Y-118225000D02*
X65372000Y-118225000D01*
X60602000Y-122195000D02*
X60602000Y-122645000D01*
X60602000Y-122645000D02*
X66322000Y-122645000D01*
X66322000Y-122645000D02*
X66322000Y-122195000D01*
%TO.C,J3*%
X81355000Y-118675000D02*
X81355000Y-118225000D01*
X81355000Y-118225000D02*
X82305000Y-118225000D01*
X82305000Y-118225000D02*
X82305000Y-116735000D01*
X85825000Y-118675000D02*
X85825000Y-118225000D01*
X85825000Y-118225000D02*
X84875000Y-118225000D01*
X81355000Y-122195000D02*
X81355000Y-122645000D01*
X81355000Y-122645000D02*
X85825000Y-122645000D01*
X85825000Y-122645000D02*
X85825000Y-122195000D01*
%TO.C,J2*%
X51210000Y-94390000D02*
X52540000Y-94390000D01*
X51210000Y-95720000D02*
X51210000Y-94390000D01*
X51210000Y-96990000D02*
X53870000Y-96990000D01*
X53870000Y-96990000D02*
X53870000Y-109750000D01*
X51210000Y-96990000D02*
X51210000Y-109750000D01*
X51210000Y-109750000D02*
X53870000Y-109750000D01*
%TO.C,J1*%
X71606000Y-118675000D02*
X71606000Y-118225000D01*
X71606000Y-118225000D02*
X72556000Y-118225000D01*
X72556000Y-118225000D02*
X72556000Y-116735000D01*
X76076000Y-118675000D02*
X76076000Y-118225000D01*
X76076000Y-118225000D02*
X75126000Y-118225000D01*
X71606000Y-122195000D02*
X71606000Y-122645000D01*
X71606000Y-122645000D02*
X76076000Y-122645000D01*
X76076000Y-122645000D02*
X76076000Y-122195000D01*
%TO.C,FB2*%
X68479725Y-98518921D02*
X67962569Y-98518921D01*
X68479725Y-99938921D02*
X67962569Y-99938921D01*
%TO.C,FB1*%
X96021922Y-84440000D02*
X96539078Y-84440000D01*
X96021922Y-83020000D02*
X96539078Y-83020000D01*
%TO.C,F1*%
X67877868Y-102031921D02*
X68203426Y-102031921D01*
X67877868Y-101011921D02*
X68203426Y-101011921D01*
%TO.C,D1*%
X66555647Y-103907921D02*
X68840647Y-103907921D01*
X66555647Y-102437921D02*
X66555647Y-103907921D01*
X68840647Y-102437921D02*
X66555647Y-102437921D01*
%TO.C,C12*%
X115974279Y-87844000D02*
X115648721Y-87844000D01*
X115974279Y-88864000D02*
X115648721Y-88864000D01*
%TO.C,C11*%
X96619279Y-88072000D02*
X96293721Y-88072000D01*
X96619279Y-89092000D02*
X96293721Y-89092000D01*
%TO.C,C10*%
X64150078Y-83319000D02*
X63632922Y-83319000D01*
X64150078Y-84739000D02*
X63632922Y-84739000D01*
%TO.C,C9*%
X64150078Y-92978000D02*
X63632922Y-92978000D01*
X64150078Y-94398000D02*
X63632922Y-94398000D01*
%TO.C,C8*%
X105370000Y-95569971D02*
X105370000Y-95895529D01*
X106390000Y-95569971D02*
X106390000Y-95895529D01*
%TO.C,C7*%
X64150078Y-85859000D02*
X63632922Y-85859000D01*
X64150078Y-87279000D02*
X63632922Y-87279000D01*
%TO.C,C6*%
X64150078Y-95518000D02*
X63632922Y-95518000D01*
X64150078Y-96938000D02*
X63632922Y-96938000D01*
%TO.C,C5*%
X107148000Y-95569971D02*
X107148000Y-95895529D01*
X108168000Y-95569971D02*
X108168000Y-95895529D01*
%TO.C,C4*%
X96619279Y-86522000D02*
X96293721Y-86522000D01*
X96619279Y-87542000D02*
X96293721Y-87542000D01*
%TO.C,C3*%
X122019279Y-88860000D02*
X121693721Y-88860000D01*
X122019279Y-89880000D02*
X121693721Y-89880000D01*
%TO.C,C2*%
X96619279Y-84998000D02*
X96293721Y-84998000D01*
X96619279Y-86018000D02*
X96293721Y-86018000D01*
%TO.C,C1*%
X122044779Y-79716000D02*
X121719221Y-79716000D01*
X122044779Y-80736000D02*
X121719221Y-80736000D01*
%TD*%
M02*
