<?xml version="1.0" encoding="UTF-8" standalone="no"?>
<svg
   xmlns:dc="http://purl.org/dc/elements/1.1/"
   xmlns:cc="http://creativecommons.org/ns#"
   xmlns:rdf="http://www.w3.org/1999/02/22-rdf-syntax-ns#"
   xmlns:svg="http://www.w3.org/2000/svg"
   xmlns="http://www.w3.org/2000/svg"
   xmlns:sodipodi="http://sodipodi.sourceforge.net/DTD/sodipodi-0.dtd"
   xmlns:inkscape="http://www.inkscape.org/namespaces/inkscape"
   width="420mm"
   height="297mm"
   viewBox="-3 -13 42 29.7"
   version="1.1"
   id="svg2"
   inkscape:version="0.91 r13725"
   sodipodi:docname="page2.svg">
  <metadata
     id="metadata12">
    <rdf:RDF>
      <cc:Work
         rdf:about="">
        <dc:format>image/svg+xml</dc:format>
        <dc:type
           rdf:resource="http://purl.org/dc/dcmitype/StillImage" />
        <dc:title>OpenSCAD Model</dc:title>
      </cc:Work>
    </rdf:RDF>
  </metadata>
  <defs
     id="defs10" />
  <sodipodi:namedview
     pagecolor="#ffffff"
     bordercolor="#666666"
     borderopacity="1"
     objecttolerance="10"
     gridtolerance="10"
     guidetolerance="10"
     inkscape:pageopacity="0"
     inkscape:pageshadow="2"
     inkscape:window-width="1920"
     inkscape:window-height="1016"
     id="namedview8"
     showgrid="false"
     units="mm"
     inkscape:zoom="0.37002469"
     inkscape:cx="400.57386"
     inkscape:cy="313.4926"
     inkscape:window-x="0"
     inkscape:window-y="27"
     inkscape:window-maximized="1"
     inkscape:current-layer="svg2" />
  <title
     id="title4">OpenSCAD Model</title>
  <path
     d="m 37.926082,-8.1852212 -2.2231,-3.4113898 -4.3301,2.4999998 -14,0 -1,1 0,3.5 1,1 14,0 z m -4.9921,2.17923 -0.0698,-0.03551 -0.0552,-0.05531 -0.0356,-0.06969 -0.0122,-0.07725 0.0122,-0.07726 0.0356,-0.0697 0.0552,-0.0553 0.0698,-0.0355 0.0772,-0.01224 0.0772,0.01224 0.0697,0.0355 0.0553,0.0553 0.0356,0.0697 0.0122,0.07726 -0.0122,0.07725 -0.0356,0.06969 -0.0553,0.05531 -0.0697,0.03551 -0.0772,0.01224 z m -11.5611,1.35939 0,-1.1 1.2,0 0,1.1 z m 2.5,0 0,-1.1 2,0 0,1.1 z m -0.34636,-0.40735 -0.04181,-0.0213 -0.03319,-0.03319 -0.02131,-0.0418 -0.0073,-0.04636 0.0073,-0.04636 0.02131,-0.04181 0.03319,-0.03318 0.04181,-0.02131 0.04636,-0.00733 0.04635,0.00733 0.04181,0.02131 0.03319,0.03318 0.0213,0.04181 0.0073,0.04636 -0.0073,0.04636 -0.0213,0.0418 -0.03319,0.03319 -0.04181,0.0213 -0.04635,0.00734 z m 2.60001,0 -0.04183,-0.0213 -0.03319,-0.03319 -0.0213,-0.0418 -0.0073,-0.04636 0.0073,-0.04636 0.0213,-0.04181 0.03319,-0.03318 0.04183,-0.02131 0.04634,-0.00733 0.04635,0.00733 0.04181,0.02131 0.03319,0.03318 0.02132,0.04181 0.0073,0.04636 -0.0073,0.04636 -0.02132,0.0418 -0.03319,0.03319 -0.04181,0.0213 -0.04635,0.00734 z m 3.24635,0.40735 0,-0.5 1,0 0,0.5 z m -0.67319,-0.17868 -0.0209,-0.01065 -0.01659,-0.01659 -0.01065,-0.0209 -0.0037,-0.02318 0.0037,-0.02318 0.01065,-0.0209 0.01659,-0.0166 0.0209,-0.01065 0.02318,-0.00366 0.02318,0.00366 0.0209,0.01065 0.01661,0.0166 0.01065,0.0209 0.0037,0.02318 -0.0037,0.02318 -0.01065,0.0209 -0.01661,0.01659 -0.0209,0.01065 -0.02318,0.00368 z m 2.29999,0 -0.0209,-0.01065 -0.0166,-0.01659 -0.0106,-0.0209 -0.0037,-0.02318 0.0037,-0.02318 0.0106,-0.0209 0.0166,-0.0166 0.0209,-0.01065 0.0232,-0.00366 0.0232,0.00366 0.0209,0.01065 0.0166,0.0166 0.0106,0.0209 0.0037,0.02318 -0.0037,0.02318 -0.0106,0.0209 -0.0166,0.01659 -0.0209,0.01065 -0.0232,0.00368 z m 6.9264,6.6400623 -2.2231,-3.4113923 -4.3301,2.49999997 -14,0 -1,1.00000033 0,3.5 1,1 14,0 z m -4.9921,2.179228 -0.0698,-0.03551 -0.0552,-0.05531 -0.0356,-0.06969 -0.0122,-0.07725 0.0122,-0.07726 0.0356,-0.0697 0.0552,-0.0553 0.0698,-0.0355 0.0772,-0.01224 0.0772,0.01224 0.0697,0.0355 0.0553,0.0553 0.0356,0.0697 0.0122,0.07726 -0.0122,0.07725 -0.0356,0.06969 -0.0553,0.05531 -0.0697,0.03551 -0.0772,0.01224 z m -3.5611,1.35939 0,-0.5 1,0 0,0.5 z m -0.67319,-0.17868 -0.0209,-0.01065 -0.01659,-0.01659 -0.01065,-0.0209 -0.0037,-0.02318 0.0037,-0.02318 0.01065,-0.0209 0.01659,-0.0166 0.0209,-0.01065 0.02318,-0.0037 0.02318,0.0037 0.0209,0.01065 0.01661,0.0166 0.01065,0.0209 0.0037,0.02318 -0.0037,0.02318 -0.01065,0.0209 -0.01661,0.01659 -0.0209,0.01065 -0.02318,0.0037 z m 2.29999,0 -0.0209,-0.01065 -0.0166,-0.01659 -0.0106,-0.0209 -0.0037,-0.02318 0.0037,-0.02318 0.0106,-0.0209 0.0166,-0.0166 0.0209,-0.01065 0.0232,-0.0037 0.0232,0.0037 0.0209,0.01065 0.0166,0.0166 0.0106,0.0209 0.0037,0.02318 -0.0037,0.02318 -0.0106,0.0209 -0.0166,0.01659 -0.0209,0.01065 -0.0232,0.0037 z"
     id="path6"
     inkscape:connector-curvature="0"
     style="fill:#d3d3d3;stroke:#000000;stroke-width:0.05" />
</svg>
