<?xml version="1.0" encoding="UTF-8" standalone="no"?>
<svg
   xmlns:dc="http://purl.org/dc/elements/1.1/"
   xmlns:cc="http://creativecommons.org/ns#"
   xmlns:rdf="http://www.w3.org/1999/02/22-rdf-syntax-ns#"
   xmlns:svg="http://www.w3.org/2000/svg"
   xmlns="http://www.w3.org/2000/svg"
   xmlns:sodipodi="http://sodipodi.sourceforge.net/DTD/sodipodi-0.dtd"
   xmlns:inkscape="http://www.inkscape.org/namespaces/inkscape"
   width="420mm"
   height="297mm"
   viewBox="-21 -15 42 29.7"
   version="1.1"
   id="svg2"
   inkscape:version="0.91 r13725"
   sodipodi:docname="page1.svg">
  <metadata
     id="metadata12">
    <rdf:RDF>
      <cc:Work
         rdf:about="">
        <dc:format>image/svg+xml</dc:format>
        <dc:type
           rdf:resource="http://purl.org/dc/dcmitype/StillImage" />
        <dc:title>OpenSCAD Model</dc:title>
      </cc:Work>
    </rdf:RDF>
  </metadata>
  <defs
     id="defs10" />
  <sodipodi:namedview
     pagecolor="#ffffff"
     bordercolor="#666666"
     borderopacity="1"
     objecttolerance="10"
     gridtolerance="10"
     guidetolerance="10"
     inkscape:pageopacity="0"
     inkscape:pageshadow="2"
     inkscape:window-width="1920"
     inkscape:window-height="1016"
     id="namedview8"
     showgrid="false"
     units="mm"
     inkscape:zoom="0.20427513"
     inkscape:cx="753.88521"
     inkscape:cy="521.70535"
     inkscape:window-x="0"
     inkscape:window-y="27"
     inkscape:window-maximized="1"
     inkscape:current-layer="svg2" />
  <title
     id="title4">OpenSCAD Model</title>
  <path
     d="m -0.5,-14.630668 -20,0 0,14.00000132 20,0 z m -6.12318,0.9713 -0.02091,-0.0106 -0.0166,-0.0166 -0.01065,-0.0209 -0.00366,-0.0232 0.00366,-0.0232 0.01065,-0.0209 0.0166,-0.0166 0.02091,-0.0106 0.02317,-0.0037 0.02318,0.0037 0.02091,0.0106 0.01658,0.0166 0.01067,0.0209 0.00366,0.0232 -0.00366,0.0232 -0.01067,0.0209 -0.01658,0.0166 -0.02091,0.0106 -0.02318,0.0037 z m -10.00002,0 -0.0209,-0.0106 -0.0166,-0.0166 -0.0106,-0.0209 -0.0037,-0.0232 0.0037,-0.0232 0.0106,-0.0209 0.0166,-0.0166 0.0209,-0.0106 0.0232,-0.0037 0.0232,0.0037 0.0209,0.0106 0.0166,0.0166 0.0106,0.0209 0.0037,0.0232 -0.0037,0.0232 -0.0106,0.0209 -0.0166,0.0166 -0.0209,0.0106 -0.0232,0.0037 z m 2.2,0 -0.0209,-0.0106 -0.0166,-0.0166 -0.0106,-0.0209 -0.0037,-0.0232 0.0037,-0.0232 0.0106,-0.0209 0.0166,-0.0166 0.0209,-0.0106 0.0232,-0.0037 0.0232,0.0037 0.0209,0.0106 0.0166,0.0166 0.0106,0.0209 0.0037,0.0232 -0.0037,0.0232 -0.0106,0.0209 -0.0166,0.0166 -0.0209,0.0106 -0.0232,0.0037 z m 10.00001,0 -0.0209,-0.0106 -0.01659,-0.0166 -0.01065,-0.0209 -0.00368,-0.0232 0.00368,-0.0232 0.01065,-0.0209 0.01659,-0.0166 0.0209,-0.0106 0.02318,-0.0037 0.02318,0.0037 0.0209,0.0106 0.01661,0.0166 0.01065,0.0209 0.00366,0.0232 -0.00366,0.0232 -0.01065,0.0209 -0.01661,0.0166 -0.0209,0.0106 -0.02318,0.0037 z m -11.83391,4.9088015 -0.683,-0.348 -0.542,-0.54202 -0.348,-0.6829815 -0.1199,-0.7571 0.1199,-0.7571 0.348,-0.683 0.542,-0.542 0.683,-0.348 0.7571,-0.1199 0.7571,0.1199 0.683,0.348 0.542,0.542 0.348,0.683 0.1199,0.7571 -0.1199,0.7571 -0.348,0.6829815 -0.542,0.54202 -0.683,0.348 -0.7571,0.1199 z m 10,0 -0.68298,-0.348 -0.54202,-0.54202 -0.34799,-0.6829815 -0.11992,-0.7571 0.11992,-0.7571 0.34799,-0.683 0.54202,-0.542 0.68298,-0.348 0.7571,-0.1199 0.75708,0.1199 0.68298,0.348 0.54203,0.542 0.34799,0.683 0.11992,0.7571 -0.11992,0.7571 -0.34799,0.6829815 -0.54203,0.54202 -0.68298,0.348 -0.75708,0.1199 z m 4.21074,-1.237431 -0.04182,-0.02132 -0.03317,-0.03317 -0.02132,-0.04182 -0.00734,-0.04636 0.00734,-0.0463 0.02132,-0.0419 0.03317,-0.0331 0.04182,-0.0214 0.04636,-0.0073 0.04634,0.0073 0.04183,0.0214 0.03318,0.0331 0.0213,0.0419 0.00734,0.0463 -0.00734,0.04636 -0.0213,0.04182 -0.03318,0.03317 -0.04183,0.02132 -0.04634,0.0073 z m -17.00004,0 -0.0418,-0.02132 -0.0332,-0.03317 -0.0213,-0.04182 -0.0073,-0.04636 0.0073,-0.0463 0.0213,-0.0419 0.0332,-0.0331 0.0418,-0.0214 0.0464,-0.0073 0.0463,0.0073 0.0419,0.0214 0.0331,0.0331 0.0214,0.0419 0.0073,0.0463 -0.0073,0.04636 -0.0214,0.04182 -0.0331,0.03317 -0.0419,0.02132 -0.0463,0.0073 z m 12.42322,1.628661 -0.02091,-0.01065 -0.0166,-0.01659 -0.01065,-0.0209 -0.00366,-0.02318 0.00366,-0.02318 0.01065,-0.0209 0.0166,-0.0166 0.02091,-0.01065 0.02317,-0.00368 0.02318,0.00368 0.02091,0.01065 0.01658,0.0166 0.01067,0.0209 0.00366,0.02318 -0.00366,0.02318 -0.01067,0.0209 -0.01658,0.01659 -0.02091,0.01065 -0.02318,0.00368 z m 2.19999,0 -0.0209,-0.01065 -0.01659,-0.01659 -0.01065,-0.0209 -0.00368,-0.02318 0.00368,-0.02318 0.01065,-0.0209 0.01659,-0.0166 0.0209,-0.01065 0.02318,-0.00368 0.02318,0.00368 0.0209,0.01065 0.01661,0.0166 0.01065,0.0209 0.00366,0.02318 -0.00366,0.02318 -0.01065,0.0209 -0.01661,0.01659 -0.0209,0.01065 -0.02318,0.00368 z m -10.00001,0 -0.0209,-0.01065 -0.0166,-0.01659 -0.0106,-0.0209 -0.0037,-0.02318 0.0037,-0.02318 0.0106,-0.0209 0.0166,-0.0166 0.0209,-0.01065 0.0232,-0.00368 0.0232,0.00368 0.0209,0.01065 0.0166,0.0166 0.0106,0.0209 0.0037,0.02318 -0.0037,0.02318 -0.0106,0.0209 -0.0166,0.01659 -0.0209,0.01065 -0.0232,0.00368 z m -2.2,0 -0.0209,-0.01065 -0.0166,-0.01659 -0.0106,-0.0209 -0.0037,-0.02318 0.0037,-0.02318 0.0106,-0.0209 0.0166,-0.0166 0.0209,-0.01065 0.0232,-0.00368 0.0232,0.00368 0.0209,0.01065 0.0166,0.0166 0.0106,0.0209 0.0037,0.02318 -0.0037,0.02318 -0.0106,0.0209 -0.0166,0.01659 -0.0209,0.01065 -0.0232,0.00368 z m 10.6232,0.97867 0,-0.5 1,0 0,0.5 z m -10,0 0,-0.5 1,0 0,0.5 z m -0.6732,-0.17867 -0.0209,-0.01065 -0.0166,-0.01658 -0.0106,-0.02092 -0.0037,-0.02318 0.0037,-0.02316 0.0106,-0.02092 0.0166,-0.01659 0.0209,-0.01065 0.0232,-0.00368 0.0232,0.00368 0.0209,0.01065 0.0166,0.01659 0.0106,0.02092 0.0037,0.02316 -0.0037,0.02318 -0.0106,0.02092 -0.0166,0.01658 -0.0209,0.01065 -0.0232,0.00368 z m 12.30002,0 -0.02091,-0.01065 -0.0166,-0.01658 -0.01065,-0.02092 -0.00366,-0.02318 0.00366,-0.02316 0.01065,-0.02092 0.0166,-0.01659 0.02091,-0.01065 0.02317,-0.00368 0.02318,0.00368 0.02091,0.01065 0.01658,0.01659 0.01067,0.02092 0.00366,0.02316 -0.00366,0.02318 -0.01067,0.02092 -0.01658,0.01658 -0.02091,0.01065 -0.02318,0.00368 z m -2.30001,0 -0.0209,-0.01065 -0.01659,-0.01658 -0.01065,-0.02092 -0.00368,-0.02318 0.00368,-0.02316 0.01065,-0.02092 0.01659,-0.01659 0.0209,-0.01065 0.02318,-0.00368 0.02318,0.00368 0.0209,0.01065 0.01661,0.01659 0.01065,0.02092 0.00366,0.02316 -0.00366,0.02318 -0.01065,0.02092 -0.01661,0.01658 -0.0209,0.01065 -0.02318,0.00368 z m -7.70001,0 -0.0209,-0.01065 -0.0166,-0.01658 -0.0106,-0.02092 -0.0037,-0.02318 0.0037,-0.02316 0.0106,-0.02092 0.0166,-0.01659 0.0209,-0.01065 0.0232,-0.00368 0.0232,0.00368 0.0209,0.01065 0.0166,0.01659 0.0106,0.02092 0.0037,0.02316 -0.0037,0.02318 -0.0106,0.02092 -0.0166,0.01658 -0.0209,0.01065 -0.0232,0.00368 z m -4.6732,4.07134 -0.0418,-0.02132 -0.0332,-0.03317 -0.0213,-0.04182 -0.0073,-0.04636 0.0073,-0.04634 0.0213,-0.04183 0.0332,-0.03317 0.0418,-0.02131 0.0464,-0.00734 0.0463,0.00734 0.0419,0.02131 0.0331,0.03317 0.0214,0.04183 0.0073,0.04634 -0.0073,0.04636 -0.0214,0.04182 -0.0331,0.03317 -0.0419,0.02132 -0.0463,0.00734 z m 12.50004,0 -0.04182,-0.02132 -0.03317,-0.03317 -0.02132,-0.04182 -0.00734,-0.04636 0.00734,-0.04634 0.02132,-0.04183 0.03317,-0.03317 0.04182,-0.02131 0.04636,-0.00734 0.04634,0.00734 0.04183,0.02131 0.03317,0.03317 0.02131,0.04183 0.00734,0.04634 -0.00734,0.04636 -0.02131,0.04182 -0.03317,0.03317 -0.04183,0.02132 -0.04634,0.00734 z M 20.5,-11.102468 l -20,0 0,3.4718015 20,0 z m -17.09271,2.0212215 -0.08364,-0.04261 -0.06636,-0.06638 -0.04261,-0.08362 -0.01468,-0.09271 0.01468,-0.09271 0.04261,-0.08362 0.06636,-0.06638 0.08364,-0.04261 0.09271,-0.01468 0.0927,0.01468 0.08363,0.04261 0.06636,0.06638 0.04262,0.08362 0.01468,0.09271 -0.01468,0.09271 -0.04262,0.08362 -0.06636,0.06638 -0.08363,0.04261 -0.0927,0.01468 z m 17.09271,2.53638 -20,0 0,1.4142 20,0 z m 0,2.4142 -20,0 0,3.49999982 20,0 z m -21,4.49999982 -20,0 0,13.99999868 20,0 z m -19.5464,1.14267018 -0.0418,-0.02132 -0.0332,-0.03317 -0.0213,-0.04182 -0.0073,-0.04636 0.0073,-0.04634 0.0213,-0.04183 0.0332,-0.03317 0.0418,-0.02131 0.0464,-0.00734 0.0463,0.00734 0.0419,0.02131 0.0331,0.03317 0.0214,0.04183 0.0073,0.04634 -0.0073,0.04636 -0.0214,0.04182 -0.0331,0.03317 -0.0419,0.02132 -0.0463,0.00734 z m 19.00004,0 -0.04182,-0.02132 -0.03317,-0.03317 -0.02132,-0.04182 -0.00734,-0.04636 0.00734,-0.04634 0.02132,-0.04183 0.03317,-0.03317 0.04182,-0.02131 0.04636,-0.00734 0.046341,0.00734 0.041824,0.02131 0.033188,0.03317 0.021301,0.04183 0.00734,0.04634 -0.00734,0.04636 -0.021301,0.04182 -0.033188,0.03317 -0.041824,0.02132 L -1,1.5193435 Z m -19.00004,12.0000285 -0.0418,-0.0213 -0.0332,-0.0332 -0.0213,-0.0418 -0.0073,-0.0464 0.0073,-0.0463 0.0213,-0.0419 0.0332,-0.0331 0.0418,-0.0214 0.0464,-0.0073 0.0463,0.0073 0.0419,0.0214 0.0331,0.0331 0.0214,0.0419 0.0073,0.0463 -0.0073,0.0464 -0.0214,0.0418 -0.0331,0.0332 -0.0419,0.0213 -0.0463,0.0073 z m 19.00004,0 -0.04182,-0.0213 -0.03317,-0.0332 -0.02132,-0.0418 -0.00734,-0.0464 0.00734,-0.0463 0.02132,-0.0419 0.03317,-0.0331 0.04182,-0.0214 0.04636,-0.0073 0.046341,0.0073 0.041824,0.0214 0.033188,0.0331 0.021301,0.0419 0.00734,0.0463 -0.00734,0.0464 -0.021301,0.0418 -0.033188,0.0332 -0.041824,0.0213 L -1,13.519332 Z M 20.5,0.36933332 l -20,0 0,5.00000018 20,0 z m -3.0773,2.73778018 -0.0697,-0.03552 -0.0553,-0.0553 -0.0355,-0.0697 -0.0122,-0.07726 0.0122,-0.07724 0.0355,-0.0697 0.0553,-0.0553 0.0697,-0.03552 0.0773,-0.01224 0.0772,0.01224 0.0697,0.03552 0.0553,0.0553 0.0356,0.0697 0.0122,0.07724 -0.0122,0.07726 -0.0356,0.0697 -0.0553,0.0553 -0.0697,0.03552 -0.0772,0.01222 z m 3.0773,3.26222 -20,0 0,7.9999985 20,0 z"
     id="path6"
     inkscape:connector-curvature="0"
     style="fill:#d3d3d3;stroke:#000000;stroke-width:0.05" />
</svg>
