<?xml version='1.0' encoding='UTF-8' standalone='no'?>
<!-- Created with Fritzing (http://www.fritzing.org/) -->
<svg xmlns="http://www.w3.org/2000/svg" xmlns:svg="http://www.w3.org/2000/svg" version="1.2" viewBox="0 0 79.3701 51.0236" width="1.10236in" baseProfile="tiny" x="0in" y="0in" height="0.708661in" >
 <g partID="858843090">
  <g id="board" >
   <rect width="78.7941" stroke="black" id="boardoutline" x="0.288" fill-opacity="0.5" stroke-width="0.5" fill="none" height="50.4476" y="0.288" />
  </g>
 </g>
 <g partID="858843350">
  <g transform="translate(39.888,13.392)">
   <g id="groundplane" >
    <g id="connector0pad" >
     <polygon points="0.576,0,0.576,0.144,0.432,0.144,0.432,0.288,0.288,0.288,0.288,0.432,0,0.432,0,3.456,0.144,3.456,0.144,3.6,0.288,3.6,0.288,3.744,0.432,3.744,0.432,3.888,0.576,3.888,0.576,4.032,0.72,4.032,0.72,4.176,0.864,4.176,0.864,4.32,1.008,4.32,1.008,4.464,1.152,4.464,1.152,4.608,1.296,4.608,1.296,4.752,1.44,4.752,1.44,4.896,1.584,4.896,1.584,5.04,1.728,5.04,1.728,5.184,1.872,5.184,1.872,5.328,2.016,5.328,2.016,5.472,2.16,5.472,2.16,5.616,2.304,5.616,2.304,5.76,2.448,5.76,2.448,5.904,2.592,5.904,2.592,6.048,2.736,6.048,2.736,6.192,2.88,6.192,2.88,6.336,3.024,6.336,3.024,6.48,3.168,6.48,3.168,6.624,3.312,6.624,3.312,6.768,3.456,6.768,3.456,6.912,3.6,6.912,3.6,7.056,3.744,7.056,3.744,7.2,3.888,7.2,3.888,7.344,4.032,7.344,4.032,7.488,4.176,7.488,4.176,7.632,4.32,7.632,4.32,7.776,4.464,7.776,4.464,7.92,4.608,7.92,4.608,8.064,4.752,8.064,4.752,8.208,4.896,8.208,4.896,8.352,5.04,8.352,5.04,8.496,5.184,8.496,5.184,8.64,5.328,8.64,5.328,8.784,5.472,8.784,5.472,8.928,5.616,8.928,5.616,9.072,5.76,9.072,5.76,9.216,5.904,9.216,5.904,9.36,6.048,9.36,6.048,9.504,6.192,9.504,6.192,9.648,6.336,9.648,6.336,9.792,6.48,9.792,6.48,9.936,6.624,9.936,6.624,10.08,6.768,10.08,6.768,10.368,6.912,10.368,6.912,10.656,7.056,10.656,7.056,11.232,7.2,11.232,7.2,15.264,7.344,15.264,7.344,15.408,7.632,15.408,7.632,15.552,7.776,15.552,7.776,15.696,7.92,15.696,7.92,15.84,8.064,15.84,8.064,16.128,8.208,16.128,8.208,16.272,8.352,16.272,8.352,16.416,9.792,16.416,9.792,5.184,9.648,5.184,9.648,5.04,9.504,5.04,9.504,4.896,9.36,4.896,9.36,4.752,9.216,4.752,9.216,4.608,9.072,4.608,9.072,4.464,8.928,4.464,8.928,4.32,8.784,4.32,8.784,4.176,8.64,4.176,8.64,4.032,8.496,4.032,8.496,3.888,8.352,3.888,8.352,3.744,8.208,3.744,8.208,3.6,8.064,3.6,8.064,3.456,7.92,3.456,7.92,3.312,7.776,3.312,7.776,3.168,7.632,3.168,7.632,3.024,7.488,3.024,7.488,2.88,7.344,2.88,7.344,2.736,7.2,2.736,7.2,2.592,7.056,2.592,7.056,2.448,6.912,2.448,6.912,2.304,6.768,2.304,6.768,2.016,6.624,2.016,6.624,1.872,6.48,1.872,6.48,1.728,6.336,1.728,6.336,1.584,6.192,1.584,6.192,1.44,6.048,1.44,6.048,1.296,4.752,1.296,4.752,1.152,3.744,1.152,3.744,1.008,3.312,1.008,3.312,0.864,3.024,0.864,3.024,0.72,2.736,0.72,2.736,0.576,2.592,0.576,2.592,0.432,2.304,0.432,2.304,0.288,2.16,0.288,2.16,0.144,2.016,0.144,2.016,0" stroke="none" stroke-width="0" fill="black" />
    </g>
   </g>
  </g>
 </g>
 <g partID="858843360">
  <g transform="translate(2.88,2.88)">
   <g id="groundplane" >
    <polygon points="0,0,0,3.312,42.912,3.312,42.912,3.456,43.344,3.456,43.344,3.6,43.776,3.6,43.776,3.744,43.92,3.744,43.92,3.888,44.208,3.888,44.208,4.032,44.352,4.032,44.352,4.176,44.64,4.176,44.64,4.32,44.784,4.32,44.784,4.464,44.928,4.464,44.928,4.608,45.072,4.608,45.072,4.752,45.216,4.752,45.216,5.04,45.36,5.04,45.36,5.184,45.504,5.184,45.504,5.472,45.648,5.472,45.648,5.616,45.792,5.616,45.792,6.048,45.936,6.048,45.936,6.48,46.08,6.48,46.08,8.496,46.224,8.496,46.224,8.64,46.368,8.64,46.368,8.784,46.512,8.784,46.512,8.928,46.656,8.928,46.656,9.072,46.8,9.072,46.8,9.216,46.944,9.216,46.944,9.36,47.088,9.36,47.088,9.504,47.232,9.504,47.232,9.648,47.376,9.648,47.376,9.792,47.52,9.792,47.52,9.936,47.664,9.936,47.664,10.08,47.808,10.08,47.808,10.224,47.952,10.224,47.952,10.368,48.096,10.368,48.096,10.512,48.24,10.512,48.24,10.656,48.384,10.656,48.384,10.8,48.528,10.8,48.528,10.944,48.672,10.944,48.672,11.088,48.816,11.088,48.816,11.232,48.96,11.232,48.96,11.376,49.104,11.376,49.104,11.52,49.248,11.52,49.248,11.664,49.392,11.664,49.392,11.808,49.536,11.808,49.536,11.952,49.68,11.952,49.68,12.096,49.824,12.096,49.824,12.24,49.968,12.24,49.968,12.384,50.112,12.384,50.112,12.528,50.256,12.528,50.256,12.672,50.4,12.672,50.4,12.816,50.544,12.816,50.544,12.96,50.688,12.96,50.688,13.248,50.832,13.248,50.832,13.392,50.976,13.392,50.976,13.536,51.12,13.536,51.12,13.824,51.264,13.824,51.264,14.4,51.408,14.4,51.408,24.912,60.768,24.912,60.768,25.056,61.488,25.056,61.488,25.2,61.92,25.2,61.92,25.344,62.208,25.344,62.208,25.488,62.496,25.488,62.496,25.632,62.64,25.632,62.64,25.776,62.784,25.776,62.784,25.92,63.072,25.92,63.072,26.064,63.216,26.064,63.216,26.208,63.36,26.208,63.36,26.352,63.504,26.352,63.504,26.64,63.648,26.64,63.648,26.784,63.792,26.784,63.792,26.928,63.936,26.928,63.936,27.216,64.08,27.216,64.08,27.504,64.224,27.504,64.224,28.08,64.368,28.08,64.368,28.944,64.512,28.944,64.512,29.232,64.368,29.232,64.368,30.096,64.224,30.096,64.224,30.672,64.08,30.672,64.08,30.96,63.936,30.96,63.936,31.248,68.4,31.248,68.4,31.392,69.12,31.392,69.12,31.536,69.552,31.536,69.552,31.68,69.84,31.68,69.84,31.824,70.128,31.824,70.128,31.968,70.416,31.968,70.416,32.112,70.56,32.112,70.56,32.256,70.704,32.256,70.704,32.4,70.848,32.4,70.848,32.544,70.992,32.544,70.992,32.688,71.136,32.688,71.136,32.832,71.28,32.832,71.28,32.976,71.424,32.976,71.424,33.12,71.568,33.12,71.568,33.408,71.712,33.408,71.712,33.696,71.856,33.696,71.856,33.984,72,33.984,72,34.416,72.144,34.416,72.144,35.136,73.584,35.136,73.584,0" stroke="none" stroke-width="0" fill="black" />
    <polygon points="0,3.312,0,24.912,13.536,24.912,13.536,25.056,14.256,25.056,14.256,25.2,14.688,25.2,14.688,25.344,14.976,25.344,14.976,25.488,15.264,25.488,15.264,25.632,15.408,25.632,15.408,25.776,15.552,25.776,15.552,25.92,15.84,25.92,15.84,26.064,15.984,26.064,15.984,26.208,16.128,26.208,16.128,26.352,16.272,26.352,16.272,26.64,16.416,26.64,16.416,26.784,16.56,26.784,16.56,26.928,16.704,26.928,16.704,27.216,16.848,27.216,16.848,27.504,16.992,27.504,16.992,27.936,17.136,27.936,17.136,28.8,17.28,28.8,17.28,29.376,17.136,29.376,17.136,30.24,16.992,30.24,16.992,30.672,16.848,30.672,16.848,30.96,16.704,30.96,16.704,31.248,16.56,31.248,16.56,31.392,16.416,31.392,16.416,31.68,16.272,31.68,16.272,31.824,16.128,31.824,16.128,31.968,15.984,31.968,15.984,32.112,15.84,32.112,15.84,32.256,15.696,32.256,15.696,32.4,15.408,32.4,15.408,32.544,15.264,32.544,15.264,32.688,14.976,32.688,14.976,32.832,14.688,32.832,14.688,32.976,14.256,32.976,14.256,33.12,13.536,33.12,13.536,33.264,30.96,33.264,30.96,33.12,30.24,33.12,30.24,32.976,29.952,32.976,29.952,32.832,29.664,32.832,29.664,32.688,29.376,32.688,29.376,32.544,29.088,32.544,29.088,32.4,28.944,32.4,28.944,32.256,28.8,32.256,28.8,32.112,28.656,32.112,28.656,31.968,28.512,31.968,28.512,31.824,28.368,31.824,28.368,31.68,28.224,31.68,28.224,31.536,28.08,31.536,28.08,31.248,27.936,31.248,27.936,31.104,27.792,31.104,27.792,30.816,27.648,30.816,27.648,30.384,27.504,30.384,27.504,29.664,27.36,29.664,27.36,28.512,27.504,28.512,27.504,26.64,27.36,26.64,27.36,26.352,27.216,26.352,27.216,26.064,27.072,26.064,27.072,25.92,26.928,25.92,26.928,25.632,26.784,25.632,26.784,25.344,26.64,25.344,26.64,25.056,26.496,25.056,26.496,24.912,26.352,24.912,26.352,24.624,26.208,24.624,26.208,24.336,26.064,24.336,26.064,24.048,25.92,24.048,25.92,23.904,25.776,23.904,25.776,23.616,25.632,23.616,25.632,23.328,25.488,23.328,25.488,23.04,25.344,23.04,25.344,22.752,25.2,22.752,25.2,22.176,25.056,22.176,25.056,12.96,25.2,12.96,25.2,10.944,24.912,10.944,24.912,10.8,24.768,10.8,24.768,10.656,24.624,10.656,24.624,10.512,24.48,10.512,24.48,10.368,24.336,10.368,24.336,10.224,24.192,10.224,24.192,10.08,24.048,10.08,24.048,9.936,23.904,9.936,23.904,9.648,23.76,9.648,23.76,9.36,23.616,9.36,23.616,9.072,23.472,9.072,23.472,8.64,23.328,8.64,23.328,7.776,23.184,7.776,23.184,7.2,23.328,7.2,23.328,6.336,23.472,6.336,23.472,5.904,23.616,5.904,23.616,5.616,23.76,5.616,23.76,5.328,23.904,5.328,23.904,5.184,24.048,5.184,24.048,4.896,24.192,4.896,24.192,4.752,24.336,4.752,24.336,4.608,24.48,4.608,24.48,4.464,24.624,4.464,24.624,4.32,24.768,4.32,24.768,4.176,24.912,4.176,24.912,4.032,25.2,4.032,25.2,3.888,25.344,3.888,25.344,3.744,25.632,3.744,25.632,3.6,25.92,3.6,25.92,3.456,26.496,3.456,26.496,3.312" stroke="none" stroke-width="0" fill="black" />
    <polygon points="28.512,3.312,28.512,3.456,28.944,3.456,28.944,3.6,29.376,3.6,29.376,3.744,29.52,3.744,29.52,3.888,29.808,3.888,29.808,4.032,29.952,4.032,29.952,4.176,30.24,4.176,30.24,4.32,30.384,4.32,30.384,4.464,31.824,4.464,31.824,4.32,31.968,4.32,31.968,4.176,32.112,4.176,32.112,4.032,32.4,4.032,32.4,3.888,32.544,3.888,32.544,3.744,32.832,3.744,32.832,3.6,33.12,3.6,33.12,3.456,33.696,3.456,33.696,3.312" stroke="none" stroke-width="0" fill="black" />
    <polygon points="35.712,3.312,35.712,3.456,36.144,3.456,36.144,3.6,36.576,3.6,36.576,3.744,36.72,3.744,36.72,3.888,37.008,3.888,37.008,4.032,37.152,4.032,37.152,4.176,37.44,4.176,37.44,4.32,37.584,4.32,37.584,4.464,39.024,4.464,39.024,4.32,39.168,4.32,39.168,4.176,39.312,4.176,39.312,4.032,39.6,4.032,39.6,3.888,39.744,3.888,39.744,3.744,40.032,3.744,40.032,3.6,40.32,3.6,40.32,3.456,40.896,3.456,40.896,3.312" stroke="none" stroke-width="0" fill="black" />
    <polygon points="30.384,10.512,30.384,10.656,30.24,10.656,30.24,10.8,30.096,10.8,30.096,10.944,29.808,10.944,29.808,13.104,29.664,13.104,29.664,21.312,29.808,21.312,29.808,21.6,29.952,21.6,29.952,21.888,30.096,21.888,30.096,22.176,30.24,22.176,30.24,22.32,30.384,22.32,30.384,22.608,30.528,22.608,30.528,22.896,30.672,22.896,30.672,23.184,30.816,23.184,30.816,23.328,30.96,23.328,30.96,23.616,31.104,23.616,31.104,23.904,31.248,23.904,31.248,24.192,31.392,24.192,31.392,24.336,31.536,24.336,31.536,24.624,31.68,24.624,31.68,24.912,31.968,24.912,31.968,25.056,32.688,25.056,32.688,25.2,33.12,25.2,33.12,25.344,33.408,25.344,33.408,25.488,33.696,25.488,33.696,25.632,33.84,25.632,33.84,25.776,33.984,25.776,33.984,25.92,34.272,25.92,34.272,26.064,34.416,26.064,34.416,26.208,34.56,26.208,34.56,26.352,34.704,26.352,34.704,26.64,34.848,26.64,34.848,26.784,34.992,26.784,34.992,26.928,35.136,26.928,35.136,27.216,35.28,27.216,35.28,27.504,35.424,27.504,35.424,28.08,35.568,28.08,35.568,28.944,35.712,28.944,35.712,29.232,35.568,29.232,35.568,30.096,35.424,30.096,35.424,30.672,35.28,30.672,35.28,30.96,35.136,30.96,35.136,31.248,34.992,31.248,34.992,31.392,34.848,31.392,34.848,31.536,34.704,31.536,34.704,31.824,34.56,31.824,34.56,31.968,34.416,31.968,34.416,32.112,34.272,32.112,34.272,32.256,34.128,32.256,34.128,32.4,33.84,32.4,33.84,32.544,33.696,32.544,33.696,32.688,33.408,32.688,33.408,32.832,33.12,32.832,33.12,32.976,32.688,32.976,32.688,33.12,31.968,33.12,31.968,33.264,41.328,33.264,41.328,33.12,40.608,33.12,40.608,32.976,40.32,32.976,40.32,32.832,40.032,32.832,40.032,32.688,39.744,32.688,39.744,32.544,39.456,32.544,39.456,32.4,39.312,32.4,39.312,32.256,39.168,32.256,39.168,32.112,39.024,32.112,39.024,31.968,38.88,31.968,38.88,31.824,38.736,31.824,38.736,31.68,38.592,31.68,38.592,31.536,38.448,31.536,38.448,31.248,38.304,31.248,38.304,31.104,38.16,31.104,38.16,30.672,38.016,30.672,38.016,30.384,37.872,30.384,37.872,29.664,37.728,29.664,37.728,28.512,37.872,28.512,37.872,27.792,38.016,27.792,38.016,27.504,38.16,27.504,38.16,27.216,38.304,27.216,38.304,26.928,38.448,26.928,38.448,26.784,38.592,26.784,38.592,26.496,38.736,26.496,38.736,26.352,38.88,26.352,38.88,26.208,39.024,26.208,39.024,26.064,39.168,26.064,39.168,25.92,39.312,25.92,39.312,25.776,39.6,25.776,39.6,22.896,39.456,22.896,39.456,22.752,39.312,22.752,39.312,22.608,39.168,22.608,39.168,22.464,39.024,22.464,39.024,22.32,38.88,22.32,38.88,22.176,38.736,22.176,38.736,22.032,38.592,22.032,38.592,21.888,38.448,21.888,38.448,21.744,38.304,21.744,38.304,21.6,38.16,21.6,38.16,21.456,38.016,21.456,38.016,21.312,37.872,21.312,37.872,21.168,37.728,21.168,37.728,21.024,37.584,21.024,37.584,20.88,37.44,20.88,37.44,20.736,37.296,20.736,37.296,20.592,37.152,20.592,37.152,20.448,37.008,20.448,37.008,20.304,36.864,20.304,36.864,20.16,36.72,20.16,36.72,20.016,36.576,20.016,36.576,19.872,36.432,19.872,36.432,19.728,36.288,19.728,36.288,19.584,36.144,19.584,36.144,19.44,36,19.44,36,19.296,35.856,19.296,35.856,19.152,35.712,19.152,35.712,19.008,35.568,19.008,35.568,18.864,35.424,18.864,35.424,18.72,35.28,18.72,35.28,18.576,35.136,18.576,35.136,18.432,34.992,18.432,34.992,18.288,34.848,18.288,34.848,18.144,34.704,18.144,34.704,18,34.56,18,34.56,17.856,34.416,17.856,34.416,17.712,34.272,17.712,34.272,17.568,34.128,17.568,34.128,17.424,33.984,17.424,33.984,17.28,33.84,17.28,33.84,17.136,33.696,17.136,33.696,16.992,33.552,16.992,33.552,16.848,33.408,16.848,33.408,16.704,33.264,16.704,33.264,16.56,33.12,16.56,33.12,16.416,32.976,16.416,32.976,16.272,32.832,16.272,32.832,16.128,32.688,16.128,32.688,15.84,32.544,15.84,32.544,15.552,32.4,15.552,32.4,10.944,32.112,10.944,32.112,10.8,31.968,10.8,31.968,10.656,31.824,10.656,31.824,10.512" stroke="none" stroke-width="0" fill="black" />
    <polygon points="0,24.912,0,31.248,6.336,31.248,6.336,31.392,6.768,31.392,6.768,31.536,7.2,31.536,7.2,31.68,7.344,31.68,7.344,31.824,7.632,31.824,7.632,31.968,7.92,31.968,7.92,32.112,8.064,32.112,8.064,32.256,8.208,32.256,8.208,32.4,8.352,32.4,8.352,32.544,8.496,32.544,8.496,32.688,8.64,32.688,8.64,32.832,8.784,32.832,8.784,33.12,8.928,33.12,8.928,33.264,12.528,33.264,12.528,33.12,11.808,33.12,11.808,32.976,11.52,32.976,11.52,32.832,11.232,32.832,11.232,32.688,10.944,32.688,10.944,32.544,10.656,32.544,10.656,32.4,10.512,32.4,10.512,32.256,10.368,32.256,10.368,32.112,10.224,32.112,10.224,31.968,10.08,31.968,10.08,31.824,9.936,31.824,9.936,31.68,9.792,31.68,9.792,31.536,9.648,31.536,9.648,31.248,9.504,31.248,9.504,31.104,9.36,31.104,9.36,30.672,9.216,30.672,9.216,30.384,9.072,30.384,9.072,29.664,8.928,29.664,8.928,28.512,9.072,28.512,9.072,27.792,9.216,27.792,9.216,27.504,9.36,27.504,9.36,27.216,9.504,27.216,9.504,26.928,9.648,26.928,9.648,26.784,9.792,26.784,9.792,26.496,9.936,26.496,9.936,26.352,10.08,26.352,10.08,26.208,10.224,26.208,10.224,26.064,10.368,26.064,10.368,25.92,10.512,25.92,10.512,25.776,10.8,25.776,10.8,25.632,10.944,25.632,10.944,25.488,11.232,25.488,11.232,25.344,11.52,25.344,11.52,25.2,11.952,25.2,11.952,25.056,12.672,25.056,12.672,24.912" stroke="none" stroke-width="0" fill="black" />
    <polygon points="51.408,24.912,51.408,33.264,59.76,33.264,59.76,33.12,59.04,33.12,59.04,32.976,58.752,32.976,58.752,32.832,58.464,32.832,58.464,32.688,58.176,32.688,58.176,32.544,57.888,32.544,57.888,32.4,57.744,32.4,57.744,32.256,57.6,32.256,57.6,32.112,57.456,32.112,57.456,31.968,57.312,31.968,57.312,31.824,57.168,31.824,57.168,31.68,57.024,31.68,57.024,31.536,56.88,31.536,56.88,31.248,56.736,31.248,56.736,31.104,56.592,31.104,56.592,30.816,56.448,30.816,56.448,30.384,56.304,30.384,56.304,29.664,56.16,29.664,56.16,28.512,56.304,28.512,56.304,27.792,56.448,27.792,56.448,27.504,56.592,27.504,56.592,27.216,56.736,27.216,56.736,26.928,56.88,26.928,56.88,26.64,57.024,26.64,57.024,26.496,57.168,26.496,57.168,26.352,57.312,26.352,57.312,26.208,57.456,26.208,57.456,26.064,57.6,26.064,57.6,25.92,57.744,25.92,57.744,25.776,58.032,25.776,58.032,25.632,58.176,25.632,58.176,25.488,58.464,25.488,58.464,25.344,58.752,25.344,58.752,25.2,59.184,25.2,59.184,25.056,59.904,25.056,59.904,24.912" stroke="none" stroke-width="0" fill="black" />
    <polygon points="0,31.248,0,33.84,1.44,33.84,1.44,33.552,1.584,33.552,1.584,33.264,1.728,33.264,1.728,33.12,1.872,33.12,1.872,32.832,2.016,32.832,2.016,32.688,2.16,32.688,2.16,32.544,2.304,32.544,2.304,32.4,2.448,32.4,2.448,32.256,2.592,32.256,2.592,32.112,2.736,32.112,2.736,31.968,3.024,31.968,3.024,31.824,3.312,31.824,3.312,31.68,3.456,31.68,3.456,31.536,3.888,31.536,3.888,31.392,4.32,31.392,4.32,31.248" stroke="none" stroke-width="0" fill="black" />
    <polygon points="45.36,31.248,45.36,31.392,45.216,31.392,45.216,31.68,45.072,31.68,45.072,31.824,44.928,31.824,44.928,31.968,44.784,31.968,44.784,32.112,44.64,32.112,44.64,32.256,44.496,32.256,44.496,32.4,44.208,32.4,44.208,32.544,44.064,32.544,44.064,32.688,43.776,32.688,43.776,32.832,43.488,32.832,43.488,32.976,43.056,32.976,43.056,33.12,42.336,33.12,42.336,33.264,46.8,33.264,46.8,31.248" stroke="none" stroke-width="0" fill="black" />
    <polygon points="63.792,31.248,63.792,31.392,63.648,31.392,63.648,31.536,63.504,31.536,63.504,31.824,63.36,31.824,63.36,31.968,63.216,31.968,63.216,32.112,63.072,32.112,63.072,32.256,62.928,32.256,62.928,32.4,62.64,32.4,62.64,32.544,62.496,32.544,62.496,32.688,62.208,32.688,62.208,32.832,61.92,32.832,61.92,32.976,61.488,32.976,61.488,33.12,60.768,33.12,60.768,33.264,64.368,33.264,64.368,33.12,64.512,33.12,64.512,32.976,64.656,32.976,64.656,32.832,64.8,32.832,64.8,32.544,64.944,32.544,64.944,32.4,65.232,32.4,65.232,32.256,65.376,32.256,65.376,32.112,65.52,32.112,65.52,31.968,65.808,31.968,65.808,31.824,66.096,31.824,66.096,31.68,66.384,31.68,66.384,31.536,66.816,31.536,66.816,31.392,67.536,31.392,67.536,31.248" stroke="none" stroke-width="0" fill="black" />
    <polygon points="9.072,33.264,9.072,33.408,46.8,33.408,46.8,33.264" stroke="none" stroke-width="0" fill="black" />
    <polygon points="9.072,33.264,9.072,33.408,46.8,33.408,46.8,33.264" stroke="none" stroke-width="0" fill="black" />
    <polygon points="9.072,33.264,9.072,33.408,46.8,33.408,46.8,33.264" stroke="none" stroke-width="0" fill="black" />
    <polygon points="9.072,33.264,9.072,33.408,46.8,33.408,46.8,33.264" stroke="none" stroke-width="0" fill="black" />
    <polygon points="51.408,33.264,51.408,33.408,64.368,33.408,64.368,33.264" stroke="none" stroke-width="0" fill="black" />
    <polygon points="51.408,33.264,51.408,33.408,64.368,33.408,64.368,33.264" stroke="none" stroke-width="0" fill="black" />
    <polygon points="9.072,33.408,9.072,33.552,9.216,33.552,9.216,33.84,9.36,33.84,9.36,34.272,9.504,34.272,9.504,35.136,9.648,35.136,9.648,35.856,9.504,35.856,9.504,36.576,9.36,36.576,9.36,37.008,9.216,37.008,9.216,37.44,9.072,37.44,9.072,37.584,8.928,37.584,8.928,37.728,32.256,37.728,32.256,37.872,32.832,37.872,32.832,38.016,33.264,38.016,33.264,38.16,33.552,38.16,33.552,38.304,33.696,38.304,33.696,38.448,33.984,38.448,33.984,38.592,34.128,38.592,34.128,38.736,34.272,38.736,34.272,38.88,34.416,38.88,34.416,39.024,34.56,39.024,34.56,39.168,34.704,39.168,34.704,39.312,34.848,39.312,34.848,39.456,34.992,39.456,34.992,39.6,38.448,39.6,38.448,39.456,38.592,39.456,38.592,39.312,38.736,39.312,38.736,39.168,38.88,39.168,38.88,38.88,39.168,38.88,39.168,38.736,39.312,38.736,39.312,38.592,39.456,38.592,39.456,38.448,39.6,38.448,39.6,38.304,39.888,38.304,39.888,38.16,40.176,38.16,40.176,38.016,40.608,38.016,40.608,37.872,41.04,37.872,41.04,37.728,43.632,37.728,43.632,37.584,43.776,37.584,43.776,37.44,43.92,37.44,43.92,37.296,44.208,37.296,44.208,37.152,44.352,37.152,44.352,37.008,44.496,37.008,44.496,36.864,44.784,36.864,44.784,36.72,44.928,36.72,44.928,36.576,45.072,36.576,45.072,36.432,45.36,36.432,45.36,36.288,45.504,36.288,45.504,36.144,45.648,36.144,45.648,36,45.792,36,45.792,35.856,46.08,35.856,46.08,35.712,46.224,35.712,46.224,35.568,46.368,35.568,46.368,35.424,46.656,35.424,46.656,35.28,46.8,35.28,46.8,33.408" stroke="none" stroke-width="0" fill="black" />
    <polygon points="51.408,33.408,51.408,36.72,51.264,36.72,51.264,37.296,51.12,37.296,51.12,37.584,50.976,37.584,50.976,37.728,61.056,37.728,61.056,37.872,61.632,37.872,61.632,38.016,62.064,38.016,62.064,38.16,62.352,38.16,62.352,38.304,62.496,38.304,62.496,38.448,62.784,38.448,62.784,38.592,62.928,38.592,62.928,38.736,63.072,38.736,63.072,38.88,63.216,38.88,63.216,39.024,63.36,39.024,63.36,39.168,63.504,39.168,63.504,39.312,63.648,39.312,63.648,39.456,63.792,39.456,63.792,39.744,63.936,39.744,63.936,39.888,67.68,39.888,67.68,39.744,66.816,39.744,66.816,39.6,66.384,39.6,66.384,39.456,66.096,39.456,66.096,39.312,65.808,39.312,65.808,39.168,65.52,39.168,65.52,39.024,65.376,39.024,65.376,38.88,65.232,38.88,65.232,38.736,65.088,38.736,65.088,38.592,64.944,38.592,64.944,38.448,64.8,38.448,64.8,38.304,64.656,38.304,64.656,38.16,64.512,38.16,64.512,38.016,64.368,38.016,64.368,37.728,64.224,37.728,64.224,37.44,64.08,37.44,64.08,37.152,63.936,37.152,63.936,36.72,63.792,36.72,63.792,36,63.648,36,63.648,35.136,63.792,35.136,63.792,34.416,63.936,34.416,63.936,33.984,64.08,33.984,64.08,33.696,64.224,33.696,64.224,33.408" stroke="none" stroke-width="0" fill="black" />
    <polygon points="72.144,36,72.144,36.72,72,36.72,72,37.152,71.856,37.152,71.856,37.44,71.712,37.44,71.712,37.728,71.568,37.728,71.568,38.016,71.424,38.016,71.424,38.16,71.28,38.16,71.28,38.304,71.136,38.304,71.136,38.448,70.992,38.448,70.992,38.592,70.848,38.592,70.848,38.736,70.704,38.736,70.704,38.88,70.56,38.88,70.56,39.024,70.416,39.024,70.416,39.168,70.128,39.168,70.128,39.312,69.84,39.312,69.84,39.456,69.552,39.456,69.552,39.6,69.12,39.6,69.12,39.744,68.256,39.744,68.256,39.888,73.584,39.888,73.584,36" stroke="none" stroke-width="0" fill="black" />
    <polygon points="0,37.152,0,39.744,4.608,39.744,4.608,39.6,4.032,39.6,4.032,39.456,3.6,39.456,3.6,39.312,3.312,39.312,3.312,39.168,3.024,39.168,3.024,39.024,2.88,39.024,2.88,38.88,2.592,38.88,2.592,38.736,2.448,38.736,2.448,38.592,2.304,38.592,2.304,38.448,2.16,38.448,2.16,38.304,2.016,38.304,2.016,38.016,1.872,38.016,1.872,37.872,1.728,37.872,1.728,37.584,1.584,37.584,1.584,37.44,1.44,37.44,1.44,37.152" stroke="none" stroke-width="0" fill="black" />
    <polygon points="8.928,37.728,8.928,37.872,8.784,37.872,8.784,38.016,8.64,38.016,8.64,38.304,8.496,38.304,8.496,38.448,8.352,38.448,8.352,38.592,8.208,38.592,8.208,38.736,8.064,38.736,8.064,38.88,7.776,38.88,7.776,39.024,7.632,39.024,7.632,39.168,7.344,39.168,7.344,39.312,7.056,39.312,7.056,39.456,6.624,39.456,6.624,39.6,6.048,39.6,6.048,39.744,9.648,39.744,9.648,39.456,9.792,39.456,9.792,39.312,9.936,39.312,9.936,39.168,10.08,39.168,10.08,38.88,10.368,38.88,10.368,38.736,10.512,38.736,10.512,38.592,10.656,38.592,10.656,38.448,10.8,38.448,10.8,38.304,11.088,38.304,11.088,38.16,11.376,38.16,11.376,38.016,11.808,38.016,11.808,37.872,12.24,37.872,12.24,37.728" stroke="none" stroke-width="0" fill="black" />
    <polygon points="13.824,37.728,13.824,37.872,14.4,37.872,14.4,38.016,14.832,38.016,14.832,38.16,15.12,38.16,15.12,38.304,15.264,38.304,15.264,38.448,15.552,38.448,15.552,38.592,15.696,38.592,15.696,38.736,15.84,38.736,15.84,38.88,15.984,38.88,15.984,39.024,16.128,39.024,16.128,39.168,16.272,39.168,16.272,39.312,16.416,39.312,16.416,39.456,16.56,39.456,16.56,39.744,16.704,39.744,16.704,40.032,16.848,40.032,16.848,40.32,16.992,40.32,16.992,40.752,17.136,40.752,17.136,41.616,17.28,41.616,17.28,42.192,17.136,42.192,17.136,42.912,16.992,42.912,16.992,43.344,16.848,43.344,16.848,43.776,16.704,43.776,16.704,45.216,27.936,45.216,27.936,43.776,27.792,43.776,27.792,43.488,27.648,43.488,27.648,43.056,27.504,43.056,27.504,42.48,27.36,42.48,27.36,41.184,27.504,41.184,27.504,40.608,27.648,40.608,27.648,40.176,27.792,40.176,27.792,39.888,27.936,39.888,27.936,39.6,28.08,39.6,28.08,39.456,28.224,39.456,28.224,39.312,28.368,39.312,28.368,39.168,28.512,39.168,28.512,38.88,28.8,38.88,28.8,38.736,28.944,38.736,28.944,38.592,29.088,38.592,29.088,38.448,29.232,38.448,29.232,38.304,29.52,38.304,29.52,38.16,29.808,38.16,29.808,38.016,30.096,38.016,30.096,37.872,30.672,37.872,30.672,37.728" stroke="none" stroke-width="0" fill="black" />
    <polygon points="50.832,37.728,50.832,37.872,50.688,37.872,50.688,38.016,50.544,38.016,50.544,38.16,50.4,38.16,50.4,38.304,50.256,38.304,50.256,38.448,50.112,38.448,50.112,38.592,49.824,38.592,49.824,38.736,49.68,38.736,49.68,38.88,49.536,38.88,49.536,39.024,49.248,39.024,49.248,39.168,49.104,39.168,49.104,39.312,48.96,39.312,48.96,39.456,48.672,39.456,48.672,39.6,48.528,39.6,48.528,39.744,48.384,39.744,48.384,39.888,48.24,39.888,48.24,40.032,47.952,40.032,47.952,40.176,47.808,40.176,47.808,40.32,47.664,40.32,47.664,40.464,47.376,40.464,47.376,40.608,47.232,40.608,47.232,40.752,47.088,40.752,47.088,40.896,46.8,40.896,46.8,41.04,46.656,41.04,46.656,41.184,46.512,41.184,46.512,41.328,46.224,41.328,46.224,41.472,46.08,41.472,46.08,42.192,45.936,42.192,45.936,42.912,45.792,42.912,45.792,43.344,45.648,43.344,45.648,43.776,45.504,43.776,45.504,45.216,56.736,45.216,56.736,43.776,56.592,43.776,56.592,43.488,56.448,43.488,56.448,43.056,56.304,43.056,56.304,42.48,56.16,42.48,56.16,41.184,56.304,41.184,56.304,40.608,56.448,40.608,56.448,40.176,56.592,40.176,56.592,39.888,56.736,39.888,56.736,39.6,56.88,39.6,56.88,39.456,57.024,39.456,57.024,39.312,57.168,39.312,57.168,39.168,57.312,39.168,57.312,38.88,57.6,38.88,57.6,38.736,57.744,38.736,57.744,38.592,57.888,38.592,57.888,38.448,58.032,38.448,58.032,38.304,58.32,38.304,58.32,38.16,58.608,38.16,58.608,38.016,58.896,38.016,58.896,37.872,59.472,37.872,59.472,37.728" stroke="none" stroke-width="0" fill="black" />
    <polygon points="0,39.744,0,39.888,9.504,39.888,9.504,39.744" stroke="none" stroke-width="0" fill="black" />
    <polygon points="0,39.744,0,39.888,9.504,39.888,9.504,39.744" stroke="none" stroke-width="0" fill="black" />
    <polygon points="0,39.888,0,45.216,9.504,45.216,9.504,43.776,9.36,43.776,9.36,43.488,9.216,43.488,9.216,43.056,9.072,43.056,9.072,42.48,8.928,42.48,8.928,41.328,9.072,41.328,9.072,40.608,9.216,40.608,9.216,40.176,9.36,40.176,9.36,39.888" stroke="none" stroke-width="0" fill="black" />
    <polygon points="63.936,39.888,63.936,40.032,73.584,40.032,73.584,39.888" stroke="none" stroke-width="0" fill="black" />
    <polygon points="63.936,39.888,63.936,40.032,73.584,40.032,73.584,39.888" stroke="none" stroke-width="0" fill="black" />
    <polygon points="64.08,40.032,64.08,40.32,64.224,40.32,64.224,40.752,64.368,40.752,64.368,41.616,64.512,41.616,64.512,42.048,64.368,42.048,64.368,42.912,64.224,42.912,64.224,43.344,64.08,43.344,64.08,43.632,63.936,43.632,63.936,45.216,73.584,45.216,73.584,40.032" stroke="none" stroke-width="0" fill="black" />
    <g id="connector0pad" >
     <circle stroke="none" r="2.7" stroke-width="0" fill="black" cy="5.56407"  cx="50.457"/>
    </g>
   </g>
  </g>
 </g>
 <g partID="855162880">
  <g transform="translate(65.6115,47.5787)">
   <g transform="matrix(-1,0,0,-1,0,0)">
    <g id="copper0" >
     <circle stroke="black" id="connector0pad" r="1.98" stroke-width="1.44" fill="none" cy="15.6024"  cx="20.8462"/>
     <circle stroke="black" id="connector1pad" r="1.98" stroke-width="1.44" fill="none" cy="15.6024"  cx="2.42064"/>
     <circle stroke="black" id="connector2pad" r="1.98" stroke-width="1.44" fill="none" cy="2.84616"  cx="20.8462"/>
     <circle stroke="black" id="connector3pad" r="1.98" stroke-width="1.44" fill="none" cy="2.84616"  cx="2.42064"/>
    </g>
   </g>
  </g>
 </g>
 <g partID="855162870">
  <g transform="translate(36.8115,47.5787)">
   <g transform="matrix(-1,0,0,-1,0,0)">
    <g id="copper0" >
     <circle stroke="black" id="connector0pad" r="1.98" stroke-width="1.44" fill="none" cy="15.6024"  cx="20.8462"/>
     <circle stroke="black" id="connector1pad" r="1.98" stroke-width="1.44" fill="none" cy="15.6024"  cx="2.42064"/>
     <circle stroke="black" id="connector2pad" r="1.98" stroke-width="1.44" fill="none" cy="2.84616"  cx="20.8462"/>
     <circle stroke="black" id="connector3pad" r="1.98" stroke-width="1.44" fill="none" cy="2.84616"  cx="2.42064"/>
    </g>
   </g>
  </g>
 </g>
 <g partID="855162900">
  <g transform="translate(49.8053,5.33627)">
   <g transform="matrix(0,1,-1,0,0,0)">
    <g id="copper0" >
     <circle stroke="black" id="connector0pin" r="2.088" stroke-width="1.44" fill="none" cy="5.04"  cx="5.04"/>
     <circle stroke="black" id="connector1pin" r="2.088" stroke-width="1.44" fill="none" cy="12.24"  cx="5.04"/>
     <circle stroke="black" id="connector2pin" r="2.088" stroke-width="1.44" fill="none" cy="19.44"  cx="5.04"/>
    </g>
   </g>
  </g>
 </g>
 <g partID="858843120">
  <g transform="translate(3.77092,33.9234)">
   <g id="copper0" >
    <circle stroke="black" id="nonconn0" r="2.83465" stroke-width="0" fill="black" cy="4.43465"  cx="4.43465"/>
   </g>
  </g>
 </g>
 <g partID="858843270">
  <g transform="translate(66.4097,34.0055)">
   <g id="copper0" >
    <circle stroke="black" id="nonconn0" r="2.83465" stroke-width="0" fill="black" cy="4.43465"  cx="4.43465"/>
   </g>
  </g>
 </g>
 <g partID="855169960">
  <line stroke-linecap="round" x1="42.7053" stroke="black" y2="44.7325" x2="36.4508" stroke-width="1.728" y1="44.7325"/>
 </g>
 <g partID="858842720">
  <line stroke-linecap="round" x1="51.9456" stroke="black" y2="43.4836" x2="46.4035" stroke-width="1.728" y1="39.2584"/>
 </g>
 <g partID="858842730">
  <line stroke-linecap="round" x1="46.2927" stroke="black" y2="17.6091" x2="51.9456" stroke-width="1.728" y1="11.9149"/>
 </g>
 <g partID="858842780">
  <line stroke-linecap="round" x1="51.9456" stroke="black" y2="39.2584" x2="51.9456" stroke-width="1.728" y1="17.6091"/>
 </g>
 <g partID="858842850">
  <line stroke-linecap="round" x1="37.5127" stroke="black" y2="12.5442" x2="37.5496" stroke-width="1.728" y1="17.6091"/>
 </g>
 <g partID="858842910">
  <line stroke-linecap="round" x1="44.7291" stroke="black" y2="17.6091" x2="37.5127" stroke-width="1.728" y1="24.8256"/>
 </g>
 <g partID="858842860">
  <line stroke-linecap="round" x1="44.7549" stroke="black" y2="24.8256" x2="44.7291" stroke-width="1.728" y1="29.9163"/>
 </g>
 <g partID="858842980">
  <line stroke-linecap="round" x1="30.2963" stroke="black" y2="12.5442" x2="30.3446" stroke-width="1.728" y1="17.6091"/>
 </g>
 <g partID="858842990">
  <line stroke-linecap="round" x1="33.3672" stroke="black" y2="24.8256" x2="30.2963" stroke-width="1.728" y1="30.1886"/>
 </g>
 <g partID="858843040">
  <line stroke-linecap="round" x1="30.2963" stroke="black" y2="17.6091" x2="30.2963" stroke-width="1.728" y1="24.8256"/>
 </g>
</svg>
