<?xml version='1.0' encoding='UTF-8' standalone='no'?>
<!-- Created with Fritzing (http://www.fritzing.org/) -->
<svg xmlns="http://www.w3.org/2000/svg" xmlns:svg="http://www.w3.org/2000/svg" version="1.2" viewBox="0 0 79.3701 51.0236" width="1.10236in" baseProfile="tiny" x="0in" y="0in" height="0.708661in" >
 <g transform="matrix(-1, 0, 0, 1, 79.3701, 0)">
  <g partID="858843092">
   <g id="silkscreen">
    <rect width="78.7941" stroke="black" x="0.288" stroke-width="0.576" fill="none" height="50.4476" y="0.288"/>
   </g>
  </g>
  <g partID="858843090">
   <g id="board">
    <rect width="78.7941" stroke="black" id="boardoutline" x="0.288" fill-opacity="0.5" stroke-width="0.5" fill="none" height="50.4476" y="0.288"/>
   </g>
  </g>
  <g partID="855162882">
   <g transform="translate(65.6115,47.5787)">
    <g transform="matrix(-1,0,0,-1,0,0)">
     <g id="silkscreen">
      <line x1="20.137" stroke="black" y2="12.0586" stroke-width="0.72" x2="20.137" y1="6.38928"/>
      <line x1="5.96376" stroke="black" y2="0.72" stroke-width="0.72" x2="18.0115" y1="0.72"/>
      <line x1="5.96376" stroke="black" y2="17.7278" stroke-width="0.72" x2="18.0115" y1="17.7278"/>
      <line x1="3.12912" stroke="black" y2="12.0586" stroke-width="0.72" x2="3.12912" y1="6.38928"/>
      <line x1="11.633" stroke="black" y2="10.6416" stroke-width="0.72" x2="11.633" y1="7.80696"/>
      <line x1="13.0507" stroke="black" y2="9.22392" stroke-width="0.72" x2="10.2161" y1="9.22392"/>
     </g>
    </g>
   </g>
  </g>
  <g partID="855162872">
   <g transform="translate(36.8115,47.5787)">
    <g transform="matrix(-1,0,0,-1,0,0)">
     <g id="silkscreen">
      <line x1="20.137" stroke="black" y2="12.0586" stroke-width="0.72" x2="20.137" y1="6.38928"/>
      <line x1="5.96376" stroke="black" y2="0.72" stroke-width="0.72" x2="18.0115" y1="0.72"/>
      <line x1="5.96376" stroke="black" y2="17.7278" stroke-width="0.72" x2="18.0115" y1="17.7278"/>
      <line x1="3.12912" stroke="black" y2="12.0586" stroke-width="0.72" x2="3.12912" y1="6.38928"/>
      <line x1="11.633" stroke="black" y2="10.6416" stroke-width="0.72" x2="11.633" y1="7.80696"/>
      <line x1="13.0507" stroke="black" y2="9.22392" stroke-width="0.72" x2="10.2161" y1="9.22392"/>
     </g>
    </g>
   </g>
  </g>
  <g partID="855162902">
   <g transform="translate(49.8053,5.33627)">
    <g transform="matrix(0,1,-1,0,0,0)">
     <g id="silkscreen">
      <line x1="1.44" stroke="black" y2="23.04" stroke-width="0.72" x2="1.44" y1="1.44"/>
      <line x1="1.44" stroke="black" y2="23.04" stroke-width="0.72" x2="8.64" y1="23.04"/>
      <line x1="8.64" stroke="black" y2="1.44" stroke-width="0.72" x2="8.64" y1="23.04"/>
      <line x1="8.64" stroke="black" y2="1.44" stroke-width="0.72" x2="1.44" y1="1.44"/>
      <line x1="1.44" stroke="black" y2="1.44" stroke-width="0.36" x2="3.96" y1="3.96"/>
      <!-- 120 -->
     </g>
    </g>
   </g>
  </g>
  <g partID="858843092">
   <g id="silkscreen">
    <rect width="78.7941" stroke="black" x="0.288" stroke-width="0.576" fill="none" height="50.4476" y="0.288"/>
   </g>
  </g>
  <g id="partLabel" partID="855162880">
   <g transform="translate(68.802,49.9885)">
    <g transform="matrix(0,1,-1,0,0,0)">
     <g font-family="'OCRA'" font-size="5" stroke="none" id="silkscreenLabel" font-style="normal" fill-opacity="1" fill="#000000" font-weight="normal">
      <text x="0" y="3.75">S6</text>
     </g>
    </g>
   </g>
  </g>
  <g id="partLabel" partID="855162870">
   <g transform="translate(10.3542,26.7212)">
    <g transform="matrix(0,-1,1,0,0,0)">
     <g font-family="'OCRA'" font-size="5" stroke="none" id="silkscreenLabel" font-style="normal" fill-opacity="1" fill="#000000" font-weight="normal">
      <text x="0" y="3.75">S5</text>
     </g>
    </g>
   </g>
  </g>
  <g id="partLabel" partID="855162900">
   <g transform="translate(42.6053,-7.46373)">
    <g font-family="'OCRA'" font-size="5" stroke="none" id="silkscreenLabel" font-style="normal" fill-opacity="1" fill="#000000" font-weight="normal">
     <text x="0" y="3.75">J5</text>
    </g>
   </g>
  </g>
  <g partID="855162881">
   <g transform="translate(65.6115,47.5787)">
    <g transform="matrix(-1,0,0,-1,0,0)">
     <g id="copper1">
      <g id="copper0">
       <circle stroke="white" id="connector0pad" r="1.98" stroke-width="2.16" fill="white" cy="15.6024" cx="20.8462"/>
       <circle stroke="white" id="connector1pad" r="1.98" stroke-width="2.16" fill="white" cy="15.6024" cx="2.42064"/>
       <circle stroke="white" id="connector2pad" r="1.98" stroke-width="2.16" fill="white" cy="2.84616" cx="20.8462"/>
       <circle stroke="white" id="connector3pad" r="1.98" stroke-width="2.16" fill="white" cy="2.84616" cx="2.42064"/>
      </g>
     </g>
    </g>
   </g>
  </g>
  <g partID="855162871">
   <g transform="translate(36.8115,47.5787)">
    <g transform="matrix(-1,0,0,-1,0,0)">
     <g id="copper1">
      <g id="copper0">
       <circle stroke="white" id="connector0pad" r="1.98" stroke-width="2.16" fill="white" cy="15.6024" cx="20.8462"/>
       <circle stroke="white" id="connector1pad" r="1.98" stroke-width="2.16" fill="white" cy="15.6024" cx="2.42064"/>
       <circle stroke="white" id="connector2pad" r="1.98" stroke-width="2.16" fill="white" cy="2.84616" cx="20.8462"/>
       <circle stroke="white" id="connector3pad" r="1.98" stroke-width="2.16" fill="white" cy="2.84616" cx="2.42064"/>
      </g>
     </g>
    </g>
   </g>
  </g>
  <g partID="855162901">
   <g transform="translate(49.8053,5.33627)">
    <g transform="matrix(0,1,-1,0,0,0)">
     <g id="copper1">
      <g id="copper0">
       <circle stroke="white" id="connector0pin" r="2.088" stroke-width="2.16" fill="white" cy="5.04" cx="5.04"/>
       <circle stroke="white" id="connector1pin" r="2.088" stroke-width="2.16" fill="white" cy="12.24" cx="5.04"/>
       <circle stroke="white" id="connector2pin" r="2.088" stroke-width="2.16" fill="white" cy="19.44" cx="5.04"/>
      </g>
     </g>
    </g>
   </g>
  </g>
  <g partID="858843121">
   <g transform="translate(3.77092,33.9234)">
    <g id="copper1">
     <circle stroke="white" id="nonconn0" r="2.83465" stroke-width="0.72" fill="white" cy="4.43465" cx="4.43465"/>
    </g>
   </g>
  </g>
  <g partID="858843271">
   <g transform="translate(66.4097,34.0055)">
    <g id="copper1">
     <circle stroke="white" id="nonconn0" r="2.83465" stroke-width="0.72" fill="white" cy="4.43465" cx="4.43465"/>
    </g>
   </g>
  </g>
 </g>
</svg>
