<?xml version='1.0' encoding='UTF-8' standalone='no'?>
<!-- Created with Fritzing (http://www.fritzing.org/) -->
<svg xmlns="http://www.w3.org/2000/svg" xmlns:svg="http://www.w3.org/2000/svg" version="1.2" viewBox="0 0 79.3701 51.0236" width="1.10236in" baseProfile="tiny" x="0in" y="0in" height="0.708661in" >
 <g partID="858843090">
  <g id="board" >
   <rect width="78.7941" stroke="black" id="boardoutline" x="0.288" fill-opacity="0.5" stroke-width="0.5" fill="none" height="50.4476" y="0.288" />
  </g>
 </g>
 <g partID="855162880">
  <g transform="translate(65.6115,47.5787)">
   <g transform="matrix(-1,0,0,-1,0,0)">
    <g id="copper0" >
     <circle stroke="black" id="connector0pad" r="1.98" stroke-width="2.16" fill="black" cy="15.6024"  cx="20.8462"/>
     <circle stroke="black" id="connector1pad" r="1.98" stroke-width="2.16" fill="black" cy="15.6024"  cx="2.42064"/>
     <circle stroke="black" id="connector2pad" r="1.98" stroke-width="2.16" fill="black" cy="2.84616"  cx="20.8462"/>
     <circle stroke="black" id="connector3pad" r="1.98" stroke-width="2.16" fill="black" cy="2.84616"  cx="2.42064"/>
    </g>
   </g>
  </g>
 </g>
 <g partID="855162870">
  <g transform="translate(36.8115,47.5787)">
   <g transform="matrix(-1,0,0,-1,0,0)">
    <g id="copper0" >
     <circle stroke="black" id="connector0pad" r="1.98" stroke-width="2.16" fill="black" cy="15.6024"  cx="20.8462"/>
     <circle stroke="black" id="connector1pad" r="1.98" stroke-width="2.16" fill="black" cy="15.6024"  cx="2.42064"/>
     <circle stroke="black" id="connector2pad" r="1.98" stroke-width="2.16" fill="black" cy="2.84616"  cx="20.8462"/>
     <circle stroke="black" id="connector3pad" r="1.98" stroke-width="2.16" fill="black" cy="2.84616"  cx="2.42064"/>
    </g>
   </g>
  </g>
 </g>
 <g partID="855162900">
  <g transform="translate(49.8053,5.33627)">
   <g transform="matrix(0,1,-1,0,0,0)">
    <g id="copper0" >
     <circle stroke="black" id="connector0pin" r="2.088" stroke-width="2.16" fill="black" cy="5.04"  cx="5.04"/>
     <circle stroke="black" id="connector1pin" r="2.088" stroke-width="2.16" fill="black" cy="12.24"  cx="5.04"/>
     <circle stroke="black" id="connector2pin" r="2.088" stroke-width="2.16" fill="black" cy="19.44"  cx="5.04"/>
    </g>
   </g>
  </g>
 </g>
 <g partID="858843120">
  <g transform="translate(3.77092,33.9234)">
   <g id="copper0" >
    <circle stroke="black" id="nonconn0" r="2.83465" stroke-width="0.72" fill="black" cy="4.43465"  cx="4.43465"/>
   </g>
  </g>
 </g>
 <g partID="858843270">
  <g transform="translate(66.4097,34.0055)">
   <g id="copper0" >
    <circle stroke="black" id="nonconn0" r="2.83465" stroke-width="0.72" fill="black" cy="4.43465"  cx="4.43465"/>
   </g>
  </g>
 </g>
</svg>
