<?xml version='1.0' encoding='UTF-8' standalone='no'?>
<!-- Created with Fritzing (http://www.fritzing.org/) -->
<svg xmlns="http://www.w3.org/2000/svg" y="0in" height="2.95276in" version="1.2" xmlns:svg="http://www.w3.org/2000/svg"  viewBox="0 0 510.236 212.598" width="7.08661in" baseProfile="tiny" x="0in">
 <g partID="57360">
  <g  id="board">
   <rect height="212.022" y="0.288"  stroke-width="0.5" stroke="black" id="boardoutline" fill-opacity="0.5" width="509.661" fill="none" x="0.288"/>
  </g>
 </g>
 <g partID="857974572">
  <g transform="translate(184.889,188.28)">
   <g transform="matrix(-1,0,0,-1,0,0)">
    <g  id="copper1">
     <circle  stroke-width="2.16" r="2.16" stroke="black" id="connector1pin" cx="2.88" fill="black" cy="2.88"/>
     <circle  stroke-width="2.16" r="2.16" stroke="black" id="connector0pin" cx="31.68" fill="black" cy="2.88"/>
    </g>
   </g>
  </g>
 </g>
 <g partID="858280221">
  <g transform="translate(82.2936,53.2844)">
   <g  id="copper1">
    <circle  stroke-width="2.16" r="1.99559" stroke="black" id="connector0pin" fill="black" cx="4.31559" cy="4.31559"/>
   </g>
  </g>
 </g>
 <g partID="858280111">
  <g transform="translate(123.694,65.8844)">
   <g  id="copper1">
    <circle  stroke-width="2.16" r="1.99559" stroke="black" id="connector0pin" fill="black" cx="4.31559" cy="4.31559"/>
   </g>
  </g>
 </g>
 <g partID="858317511">
  <g transform="translate(210.094,73.0844)">
   <g  id="copper1">
    <circle  stroke-width="2.16" r="1.99559" stroke="black" id="connector0pin" fill="black" cx="4.31559" cy="4.31559"/>
   </g>
  </g>
 </g>
 <g partID="858328751">
  <g transform="translate(213.694,91.0848)">
   <g  id="copper1">
    <circle  stroke-width="2.16" r="1.99559" stroke="black" id="connector0pin" fill="black" cx="4.31559" cy="4.31559"/>
   </g>
  </g>
 </g>
 <g partID="858643121">
  <g transform="translate(217.294,164.885)">
   <g  id="copper1">
    <circle  stroke-width="2.16" r="1.99559" stroke="black" id="connector0pin" fill="black" cx="4.31559" cy="4.31559"/>
   </g>
  </g>
 </g>
 <g partID="858346331">
  <g transform="translate(217.294,146.885)">
   <g  id="copper1">
    <circle  stroke-width="2.16" r="1.99559" stroke="black" id="connector0pin" fill="black" cx="4.31559" cy="4.31559"/>
   </g>
  </g>
 </g>
 <g partID="858340691">
  <g transform="translate(276.694,175.685)">
   <g  id="copper1">
    <circle  stroke-width="2.16" r="1.99559" stroke="black" id="connector0pin" fill="black" cx="4.31559" cy="4.31559"/>
   </g>
  </g>
 </g>
 <g partID="858340781">
  <g transform="translate(305.494,163.085)">
   <g  id="copper1">
    <circle  stroke-width="2.16" r="1.99559" stroke="black" id="connector0pin" fill="black" cx="4.31559" cy="4.31559"/>
   </g>
  </g>
 </g>
 <g partID="858341471">
  <g transform="translate(273.094,170.285)">
   <g  id="copper1">
    <circle  stroke-width="2.16" r="1.99559" stroke="black" id="connector0pin" fill="black" cx="4.31559" cy="4.31559"/>
   </g>
  </g>
 </g>
 <g partID="858341831">
  <g transform="translate(305.494,155.885)">
   <g  id="copper1">
    <circle  stroke-width="2.16" r="1.99559" stroke="black" id="connector0pin" fill="black" cx="4.31559" cy="4.31559"/>
   </g>
  </g>
 </g>
 <g partID="858346561">
  <g transform="translate(96.6936,130.685)">
   <g  id="copper1">
    <circle  stroke-width="2.16" r="1.99559" stroke="black" id="connector0pin" fill="black" cx="4.31559" cy="4.31559"/>
   </g>
  </g>
 </g>
 <g partID="858346991">
  <g transform="translate(334.294,134.285)">
   <g  id="copper1">
    <circle  stroke-width="2.16" r="1.99559" stroke="black" id="connector0pin" fill="black" cx="4.31559" cy="4.31559"/>
   </g>
  </g>
 </g>
 <g partID="858636581">
  <g transform="translate(168.694,96.4848)">
   <g  id="copper1">
    <circle  stroke-width="2.16" r="1.99559" stroke="black" id="connector0pin" fill="black" cx="4.31559" cy="4.31559"/>
   </g>
  </g>
 </g>
 <g partID="858636051">
  <g transform="translate(474.694,179.285)">
   <g  id="copper1">
    <circle  stroke-width="2.16" r="1.99559" stroke="black" id="connector0pin" fill="black" cx="4.31559" cy="4.31559"/>
   </g>
  </g>
 </g>
 <g partID="858636031">
  <g transform="translate(485.494,179.285)">
   <g  id="copper1">
    <circle  stroke-width="2.16" r="1.99559" stroke="black" id="connector0pin" fill="black" cx="4.31559" cy="4.31559"/>
   </g>
  </g>
 </g>
 <g partID="858636011">
  <g transform="translate(492.694,193.685)">
   <g  id="copper1">
    <circle  stroke-width="2.16" r="1.99559" stroke="black" id="connector0pin" fill="black" cx="4.31559" cy="4.31559"/>
   </g>
  </g>
 </g>
 <g partID="858633171">
  <g transform="translate(492.694,110.885)">
   <g  id="copper1">
    <circle  stroke-width="2.16" r="1.99559" stroke="black" id="connector0pin" fill="black" cx="4.31559" cy="4.31559"/>
   </g>
  </g>
 </g>
 <g partID="858632721">
  <g transform="translate(363.094,141.485)">
   <g  id="copper1">
    <circle  stroke-width="2.16" r="1.99559" stroke="black" id="connector0pin" fill="black" cx="4.31559" cy="4.31559"/>
   </g>
  </g>
 </g>
 <g partID="858346961">
  <g transform="translate(318.094,83.8848)">
   <g  id="copper1">
    <circle  stroke-width="2.16" r="1.99559" stroke="black" id="connector0pin" fill="black" cx="4.31559" cy="4.31559"/>
   </g>
  </g>
 </g>
 <g partID="858356721">
  <g transform="translate(264.094,96.4848)">
   <g  id="copper1">
    <circle  stroke-width="2.16" r="1.99559" stroke="black" id="connector0pin" fill="black" cx="4.31559" cy="4.31559"/>
   </g>
  </g>
 </g>
 <g partID="858356531">
  <g transform="translate(256.894,96.4848)">
   <g  id="copper1">
    <circle  stroke-width="2.16" r="1.99559" stroke="black" id="connector0pin" fill="black" cx="4.31559" cy="4.31559"/>
   </g>
  </g>
 </g>
 <g partID="858456942">
  <g transform="translate(164.369,169.56)">
   <g transform="matrix(-1,0,0,-1,0,0)">
    <g  id="copper1">
     <g  id="copper0">
      <rect height="3.96" y="5.58"  stroke-width="2.16" stroke="black" id="rect11" width="3.96" x="1.98" fill="black"/>
      <circle  stroke-width="2.16" r="1.98" stroke="black" id="connector0pin" cx="3.96" fill="black" cy="7.56"/>
      <circle  stroke-width="2.16" r="1.98" stroke="black" id="connector1pin" cx="11.16" fill="black" cy="7.56"/>
     </g>
    </g>
   </g>
  </g>
 </g>
 <g partID="858440851">
  <g transform="translate(181.294,58.6844)">
   <g  id="copper1">
    <circle  stroke-width="2.16" r="1.99559" stroke="black" id="connector0pin" fill="black" cx="4.31559" cy="4.31559"/>
   </g>
  </g>
 </g>
 <g partID="858798891">
  <g transform="translate(404.494,65.8844)">
   <g  id="copper1">
    <circle  stroke-width="2.16" r="1.99559" stroke="black" id="connector0pin" fill="black" cx="4.31559" cy="4.31559"/>
   </g>
  </g>
 </g>
 <g partID="858794721">
  <g transform="translate(289.294,65.8844)">
   <g  id="copper1">
    <circle  stroke-width="2.16" r="1.99559" stroke="black" id="connector0pin" fill="black" cx="4.31559" cy="4.31559"/>
   </g>
  </g>
 </g>
 <g partID="858791861">
  <g transform="translate(267.694,58.6844)">
   <g  id="copper1">
    <circle  stroke-width="2.16" r="1.99559" stroke="black" id="connector0pin" fill="black" cx="4.31559" cy="4.31559"/>
   </g>
  </g>
 </g>
 <g partID="858442501">
  <g transform="translate(260.494,58.6844)">
   <g  id="copper1">
    <circle  stroke-width="2.16" r="1.99559" stroke="black" id="connector0pin" fill="black" cx="4.31559" cy="4.31559"/>
   </g>
  </g>
 </g>
 <g partID="858447691">
  <g transform="translate(217.294,58.6844)">
   <g  id="copper1">
    <circle  stroke-width="2.16" r="1.99559" stroke="black" id="connector0pin" fill="black" cx="4.31559" cy="4.31559"/>
   </g>
  </g>
 </g>
 <g partID="858451181">
  <g transform="translate(181.294,51.4844)">
   <g  id="copper1">
    <circle  stroke-width="2.16" r="1.99559" stroke="black" id="connector0pin" fill="black" cx="4.31559" cy="4.31559"/>
   </g>
  </g>
 </g>
 <g partID="857668212">
  <g transform="translate(61.9128,110.7)">
   <g transform="matrix(0,-1,1,0,0,0)">
    <g  id="copper1">
     <!-- <rect width="55" x="10" y="15.5" fill="none" height="55" stroke="rgb(255, 191, 0)" stroke-width="20" />  -->
     <circle  stroke-width="2.16" stroke="black" r="1.98" id="connector0pin" fill="black" cx="2.7" cy="3.096"/>
     <circle  stroke-width="2.16" stroke="black" r="1.98" id="connector1pin" fill="black" cx="31.5" cy="3.096"/>
    </g>
   </g>
  </g>
 </g>
 <g partID="857668842">
  <g transform="translate(59.9768,39.072)">
   <g  id="copper1">
    <g  id="copper0">
     <circle  stroke-width="1.72" stroke="black" r="2.088" id="connector0pin" fill="black" cx="5.032" cy="11.327"/>
     <circle  stroke-width="1.72" stroke="black" r="2.088" id="connector1pin" fill="black" cx="5.031" cy="18.527"/>
     <circle  stroke-width="1.72" stroke="black" r="2.089" id="connector2pin" fill="black" cx="5.032" cy="25.728"/>
     <g >
      <circle  stroke-width="2.0044" stroke="black" r="3.823" id="noconnector" fill="black" cx="26.292" cy="4.548"/>
      <circle  stroke-width="2.0044" stroke="black" r="3.823" id="noconnector_1_" fill="black" cx="26.292" cy="32.506"/>
     </g>
    </g>
   </g>
  </g>
 </g>
 <g partID="855524242">
  <g transform="translate(379.649,172.44)">
   <g transform="matrix(-1,0,0,-1,0,0)">
    <g  id="copper1">
     <g  id="copper0">
      <circle  stroke-width="2.16" r="2.088" stroke="black" id="connector0pin" cx="5.04" fill="black" cy="5.04"/>
      <circle  stroke-width="2.16" r="2.088" stroke="black" id="connector1pin" cx="5.04" fill="black" cy="12.24"/>
      <circle  stroke-width="2.16" r="2.088" stroke="black" id="connector2pin" cx="5.04" fill="black" cy="19.44"/>
      <circle  stroke-width="2.16" r="2.088" stroke="black" id="connector3pin" cx="5.04" fill="black" cy="26.64"/>
     </g>
    </g>
   </g>
  </g>
 </g>
 <g partID="855524222">
  <g transform="translate(343.649,172.44)">
   <g transform="matrix(-1,0,0,-1,0,0)">
    <g  id="copper1">
     <g  id="copper0">
      <circle  stroke-width="2.16" r="2.088" stroke="black" id="connector0pin" cx="5.04" fill="black" cy="5.04"/>
      <circle  stroke-width="2.16" r="2.088" stroke="black" id="connector1pin" cx="5.04" fill="black" cy="12.24"/>
      <circle  stroke-width="2.16" r="2.088" stroke="black" id="connector2pin" cx="5.04" fill="black" cy="19.44"/>
      <circle  stroke-width="2.16" r="2.088" stroke="black" id="connector3pin" cx="5.04" fill="black" cy="26.64"/>
     </g>
    </g>
   </g>
  </g>
 </g>
 <g partID="855846541">
  <g transform="translate(357.482,193.886)">
   <g  id="copper1">
    <circle  stroke-width="0.72" r="4.53543" stroke="black" id="nonconn0" fill="black" cx="6.13543" cy="6.13543"/>
   </g>
  </g>
 </g>
 <g partID="855846521">
  <g transform="translate(491.75,9.90776)">
   <g  id="copper1">
    <circle  stroke-width="0.72" r="4.53543" stroke="black" id="nonconn0" fill="black" cx="6.13543" cy="6.13543"/>
   </g>
  </g>
 </g>
 <g partID="855846501">
  <g transform="translate(3.0342,194.118)">
   <g  id="copper1">
    <circle  stroke-width="0.72" r="4.53543" stroke="black" id="nonconn0" fill="black" cx="6.13543" cy="6.13543"/>
   </g>
  </g>
 </g>
 <g partID="855846471">
  <g transform="translate(3.1994,9.97512)">
   <g  id="copper1">
    <circle  stroke-width="0.72" r="4.53543" stroke="black" id="nonconn0" fill="black" cx="6.13543" cy="6.13543"/>
   </g>
  </g>
 </g>
 <g partID="857001522">
  <g transform="translate(27.2088,208.8)">
   <g transform="matrix(0,-1,1,0,0,0)">
    <g  id="copper1">
     <g  id="copper0">
      <rect height="4.55811" y="6.72095"  stroke-width="2.16" stroke="black" id="square" width="4.55811" x="12.1209" fill="black"/>
      <circle  stroke-width="2.16" r="2.27905" stroke="black" id="connector0pin" cx="14.4" fill="black" cy="9"/>
      <circle  stroke-width="2.16" r="2.27905" stroke="black" id="connector1pin" cx="14.4" fill="black" cy="23.4"/>
     </g>
    </g>
   </g>
  </g>
 </g>
 <g partID="857572482">
  <g transform="translate(173.369,50.76)">
   <g  id="copper1">
    <g  id="copper0">
     <circle  stroke-width="2.16" r="2.088" stroke="black" id="connector0pin" cx="5.04" fill="black" cy="5.04"/>
     <circle  stroke-width="2.16" r="2.088" stroke="black" id="connector1pin" cx="5.04" fill="black" cy="12.24"/>
     <circle  stroke-width="2.16" r="2.088" stroke="black" id="connector2pin" cx="5.04" fill="black" cy="19.44"/>
    </g>
   </g>
  </g>
 </g>
 <g partID="857572302">
  <g transform="translate(166.169,50.76)">
   <g  id="copper1">
    <g  id="copper0">
     <circle  stroke-width="2.16" r="2.088" stroke="black" id="connector0pin" cx="5.04" fill="black" cy="5.04"/>
     <circle  stroke-width="2.16" r="2.088" stroke="black" id="connector1pin" cx="5.04" fill="black" cy="12.24"/>
     <circle  stroke-width="2.16" r="2.088" stroke="black" id="connector2pin" cx="5.04" fill="black" cy="19.44"/>
    </g>
   </g>
  </g>
 </g>
 <g partID="857572142">
  <g transform="translate(158.969,50.76)">
   <g  id="copper1">
    <g  id="copper0">
     <circle  stroke-width="2.16" r="2.088" stroke="black" id="connector0pin" cx="5.04" fill="black" cy="5.04"/>
     <circle  stroke-width="2.16" r="2.088" stroke="black" id="connector1pin" cx="5.04" fill="black" cy="12.24"/>
     <circle  stroke-width="2.16" r="2.088" stroke="black" id="connector2pin" cx="5.04" fill="black" cy="19.44"/>
    </g>
   </g>
  </g>
 </g>
 <g partID="857571982">
  <g transform="translate(151.769,50.76)">
   <g  id="copper1">
    <g  id="copper0">
     <circle  stroke-width="2.16" r="2.088" stroke="black" id="connector0pin" cx="5.04" fill="black" cy="5.04"/>
     <circle  stroke-width="2.16" r="2.088" stroke="black" id="connector1pin" cx="5.04" fill="black" cy="12.24"/>
     <circle  stroke-width="2.16" r="2.088" stroke="black" id="connector2pin" cx="5.04" fill="black" cy="19.44"/>
    </g>
   </g>
  </g>
 </g>
 <g partID="857504372">
  <g transform="translate(144.569,50.76)">
   <g  id="copper1">
    <g  id="copper0">
     <circle  stroke-width="2.16" r="2.088" stroke="black" id="connector0pin" cx="5.04" fill="black" cy="5.04"/>
     <circle  stroke-width="2.16" r="2.088" stroke="black" id="connector1pin" cx="5.04" fill="black" cy="12.24"/>
     <circle  stroke-width="2.16" r="2.088" stroke="black" id="connector2pin" cx="5.04" fill="black" cy="19.44"/>
    </g>
   </g>
  </g>
 </g>
 <g partID="857505612">
  <g transform="translate(137.369,50.76)">
   <g  id="copper1">
    <g  id="copper0">
     <circle  stroke-width="2.16" r="2.088" stroke="black" id="connector0pin" cx="5.04" fill="black" cy="5.04"/>
     <circle  stroke-width="2.16" r="2.088" stroke="black" id="connector1pin" cx="5.04" fill="black" cy="12.24"/>
     <circle  stroke-width="2.16" r="2.088" stroke="black" id="connector2pin" cx="5.04" fill="black" cy="19.44"/>
    </g>
   </g>
  </g>
 </g>
 <g partID="857506872">
  <g transform="translate(130.169,50.76)">
   <g  id="copper1">
    <g  id="copper0">
     <circle  stroke-width="2.16" r="2.088" stroke="black" id="connector0pin" cx="5.04" fill="black" cy="5.04"/>
     <circle  stroke-width="2.16" r="2.088" stroke="black" id="connector1pin" cx="5.04" fill="black" cy="12.24"/>
     <circle  stroke-width="2.16" r="2.088" stroke="black" id="connector2pin" cx="5.04" fill="black" cy="19.44"/>
    </g>
   </g>
  </g>
 </g>
 <g partID="857554092">
  <g transform="translate(277.049,65.16)">
   <g transform="matrix(0,1,-1,0,0,0)">
    <g  id="copper1">
     <g  id="copper0">
      <circle  stroke-width="2.16" r="2.088" stroke="black" id="connector0pin" cx="5.04" fill="black" cy="5.04"/>
      <circle  stroke-width="2.16" r="2.088" stroke="black" id="connector1pin" cx="5.04" fill="black" cy="12.24"/>
      <circle  stroke-width="2.16" r="2.088" stroke="black" id="connector2pin" cx="5.04" fill="black" cy="19.44"/>
      <circle  stroke-width="2.16" r="2.088" stroke="black" id="connector3pin" cx="5.04" fill="black" cy="26.64"/>
      <circle  stroke-width="2.16" r="2.088" stroke="black" id="connector4pin" cx="5.04" fill="black" cy="33.84"/>
      <circle  stroke-width="2.16" r="2.088" stroke="black" id="connector5pin" cx="5.04" fill="black" cy="41.04"/>
      <circle  stroke-width="2.16" r="2.088" stroke="black" id="connector6pin" cx="5.04" fill="black" cy="48.24"/>
      <circle  stroke-width="2.16" r="2.088" stroke="black" id="connector7pin" cx="5.04" fill="black" cy="55.44"/>
      <circle  stroke-width="2.16" r="2.088" stroke="black" id="connector8pin" cx="5.04" fill="black" cy="62.64"/>
     </g>
    </g>
   </g>
  </g>
 </g>
 <g partID="857604522">
  <g transform="translate(396.569,57.96)">
   <g  id="copper1">
    <g  id="copper0">
     <circle  stroke-width="2.16" r="2.088" stroke="black" id="connector0pin" cx="5.04" fill="black" cy="5.04"/>
     <circle  stroke-width="2.16" r="2.088" stroke="black" id="connector1pin" cx="5.04" fill="black" cy="12.24"/>
    </g>
   </g>
  </g>
 </g>
 <g partID="857604482">
  <g transform="translate(389.369,57.96)">
   <g  id="copper1">
    <g  id="copper0">
     <circle  stroke-width="2.16" r="2.088" stroke="black" id="connector0pin" cx="5.04" fill="black" cy="5.04"/>
     <circle  stroke-width="2.16" r="2.088" stroke="black" id="connector1pin" cx="5.04" fill="black" cy="12.24"/>
    </g>
   </g>
  </g>
 </g>
 <g partID="857604442">
  <g transform="translate(382.169,57.96)">
   <g  id="copper1">
    <g  id="copper0">
     <circle  stroke-width="2.16" r="2.088" stroke="black" id="connector0pin" cx="5.04" fill="black" cy="5.04"/>
     <circle  stroke-width="2.16" r="2.088" stroke="black" id="connector1pin" cx="5.04" fill="black" cy="12.24"/>
    </g>
   </g>
  </g>
 </g>
 <g partID="857604402">
  <g transform="translate(374.969,57.96)">
   <g  id="copper1">
    <g  id="copper0">
     <circle  stroke-width="2.16" r="2.088" stroke="black" id="connector0pin" cx="5.04" fill="black" cy="5.04"/>
     <circle  stroke-width="2.16" r="2.088" stroke="black" id="connector1pin" cx="5.04" fill="black" cy="12.24"/>
    </g>
   </g>
  </g>
 </g>
 <g partID="857604362">
  <g transform="translate(367.769,57.96)">
   <g  id="copper1">
    <g  id="copper0">
     <circle  stroke-width="2.16" r="2.088" stroke="black" id="connector0pin" cx="5.04" fill="black" cy="5.04"/>
     <circle  stroke-width="2.16" r="2.088" stroke="black" id="connector1pin" cx="5.04" fill="black" cy="12.24"/>
    </g>
   </g>
  </g>
 </g>
 <g partID="857604322">
  <g transform="translate(360.569,57.96)">
   <g  id="copper1">
    <g  id="copper0">
     <circle  stroke-width="2.16" r="2.088" stroke="black" id="connector0pin" cx="5.04" fill="black" cy="5.04"/>
     <circle  stroke-width="2.16" r="2.088" stroke="black" id="connector1pin" cx="5.04" fill="black" cy="12.24"/>
    </g>
   </g>
  </g>
 </g>
 <g partID="857604282">
  <g transform="translate(353.369,57.96)">
   <g  id="copper1">
    <g  id="copper0">
     <circle  stroke-width="2.16" r="2.088" stroke="black" id="connector0pin" cx="5.04" fill="black" cy="5.04"/>
     <circle  stroke-width="2.16" r="2.088" stroke="black" id="connector1pin" cx="5.04" fill="black" cy="12.24"/>
    </g>
   </g>
  </g>
 </g>
 <g partID="855412632">
  <g transform="translate(346.169,57.96)">
   <g  id="copper1">
    <g  id="copper0">
     <circle  stroke-width="2.16" r="2.088" stroke="black" id="connector0pin" cx="5.04" fill="black" cy="5.04"/>
     <circle  stroke-width="2.16" r="2.088" stroke="black" id="connector1pin" cx="5.04" fill="black" cy="12.24"/>
    </g>
   </g>
  </g>
 </g>
 <g partID="855410532">
  <g transform="translate(338.969,57.96)">
   <g  id="copper1">
    <g  id="copper0">
     <circle  stroke-width="2.16" r="2.088" stroke="black" id="connector0pin" cx="5.04" fill="black" cy="5.04"/>
     <circle  stroke-width="2.16" r="2.088" stroke="black" id="connector1pin" cx="5.04" fill="black" cy="12.24"/>
    </g>
   </g>
  </g>
 </g>
 <g partID="855408492">
  <g transform="translate(331.769,57.96)">
   <g  id="copper1">
    <g  id="copper0">
     <circle  stroke-width="2.16" r="2.088" stroke="black" id="connector0pin" cx="5.04" fill="black" cy="5.04"/>
     <circle  stroke-width="2.16" r="2.088" stroke="black" id="connector1pin" cx="5.04" fill="black" cy="12.24"/>
    </g>
   </g>
  </g>
 </g>
 <g partID="855399512">
  <g transform="translate(324.569,57.96)">
   <g  id="copper1">
    <g  id="copper0">
     <circle  stroke-width="2.16" r="2.088" stroke="black" id="connector0pin" cx="5.04" fill="black" cy="5.04"/>
     <circle  stroke-width="2.16" r="2.088" stroke="black" id="connector1pin" cx="5.04" fill="black" cy="12.24"/>
    </g>
   </g>
  </g>
 </g>
 <g partID="855396612">
  <g transform="translate(317.369,57.96)">
   <g  id="copper1">
    <g  id="copper0">
     <circle  stroke-width="2.16" r="2.088" stroke="black" id="connector0pin" cx="5.04" fill="black" cy="5.04"/>
     <circle  stroke-width="2.16" r="2.088" stroke="black" id="connector1pin" cx="5.04" fill="black" cy="12.24"/>
    </g>
   </g>
  </g>
 </g>
 <g partID="855395852">
  <g transform="translate(310.169,57.96)">
   <g  id="copper1">
    <g  id="copper0">
     <circle  stroke-width="2.16" r="2.088" stroke="black" id="connector0pin" cx="5.04" fill="black" cy="5.04"/>
     <circle  stroke-width="2.16" r="2.088" stroke="black" id="connector1pin" cx="5.04" fill="black" cy="12.24"/>
    </g>
   </g>
  </g>
 </g>
 <g partID="857594842">
  <g transform="translate(295.769,57.96)">
   <g  id="copper1">
    <g  id="copper0">
     <circle  stroke-width="2.16" r="2.088" stroke="black" id="connector0pin" cx="5.04" fill="black" cy="5.04"/>
     <circle  stroke-width="2.16" r="2.088" stroke="black" id="connector1pin" cx="5.04" fill="black" cy="12.24"/>
    </g>
   </g>
  </g>
 </g>
 <g partID="855391462">
  <g transform="translate(302.969,57.96)">
   <g  id="copper1">
    <g  id="copper0">
     <circle  stroke-width="2.16" r="2.088" stroke="black" id="connector0pin" cx="5.04" fill="black" cy="5.04"/>
     <circle  stroke-width="2.16" r="2.088" stroke="black" id="connector1pin" cx="5.04" fill="black" cy="12.24"/>
    </g>
   </g>
  </g>
 </g>
 <g partID="857723812">
  <g transform="translate(33.3288,129.6)">
   <g  id="copper1">
    <circle  stroke-width="2.16" r="1.8" stroke="black" id="connector0pin" cx="2.88" fill="black" cy="7.2"/>
    <circle  stroke-width="2.16" r="1.8" stroke="black" id="connector1pin" cx="17.28" fill="black" cy="7.2"/>
   </g>
  </g>
 </g>
 <g partID="855279112">
  <g transform="translate(47.0088,25.776)">
   <g transform="matrix(0,1,-1,0,0,0)">
    <g  id="copper1">
     <g  id="copper0">
      <rect height="4.464" y="1.368"  stroke-width="2.16" stroke="black" width="4.464" fill="black" x="0.72"/>
      <circle  stroke-width="2.16" r="2.232" stroke="black" id="connector0pin" cx="3.024" fill="black" cy="3.6"/>
      <circle  stroke-width="2.16" r="2.232" stroke="black" id="connector1pin" cx="24.48" fill="black" cy="3.6"/>
     </g>
    </g>
   </g>
  </g>
 </g>
 <g partID="855280682">
  <g transform="translate(47.0088,111.024)">
   <g transform="matrix(0,-1,1,0,0,0)">
    <g  id="copper1">
     <g  id="copper0">
      <rect height="4.464" y="1.368"  stroke-width="2.16" stroke="black" width="4.464" fill="black" x="0.72"/>
      <circle  stroke-width="2.16" r="2.232" stroke="black" id="connector0pin" cx="3.024" fill="black" cy="3.6"/>
      <circle  stroke-width="2.16" r="2.232" stroke="black" id="connector1pin" cx="24.48" fill="black" cy="3.6"/>
     </g>
    </g>
   </g>
  </g>
 </g>
 <g partID="854973202">
  <g transform="translate(257.255,125.887)">
   <g transform="matrix(-1,0,0,-1,0,0)">
    <g  id="copper1">
     <circle  stroke-width="2.13732" r="1.84465" stroke="black" id="connector1pin" cx="22.5479" fill="black" cy="7.08448"/>
     <circle  stroke-width="2.13732" r="1.84252" stroke="black" id="connector0pin" cx="8.64567" fill="black" cy="7.08661"/>
    </g>
   </g>
  </g>
 </g>
 <g partID="854973232">
  <g transform="translate(251.489,96.12)">
   <g transform="matrix(0,1,-1,0,0,0)">
    <g  id="copper1">
     <circle  stroke-width="2.16" r="1.8" stroke="black" id="connector0pin" cx="2.88" fill="black" cy="2.88"/>
     <circle  stroke-width="2.16" r="1.8" stroke="black" id="connector1pin" cx="10.0933" fill="black" cy="2.88"/>
    </g>
   </g>
  </g>
 </g>
 <g partID="854973302">
  <g transform="translate(231.329,109.08)">
   <g transform="matrix(0,-1,1,0,0,0)">
    <g  id="copper1">
     <circle  stroke-width="2.16" r="1.8" stroke="black" id="connector0pin" cx="2.88" fill="black" cy="2.88"/>
     <circle  stroke-width="2.16" r="1.8" stroke="black" id="connector1pin" cx="10.0933" fill="black" cy="2.88"/>
    </g>
   </g>
  </g>
 </g>
 <g partID="854974052">
  <g transform="translate(97.9128,125.1)">
   <g transform="matrix(0,-1,1,0,0,0)">
    <g  id="copper1">
     <!-- <rect width="55" x="10" y="15.5" fill="none" height="55" stroke="rgb(255, 191, 0)" stroke-width="20" />  -->
     <circle  stroke-width="2.16" stroke="black" r="1.98" id="connector0pin" fill="black" cx="2.7" cy="3.096"/>
     <circle  stroke-width="2.16" stroke="black" r="1.98" id="connector1pin" fill="black" cx="31.5" cy="3.096"/>
    </g>
   </g>
  </g>
 </g>
 <g partID="857951772">
  <g transform="translate(163.289,177.48)">
   <g transform="matrix(-1,-1.66533e-16,1.66533e-16,-1,0,0)">
    <g  id="copper1">
     <circle  stroke-width="2.16" r="1.8" stroke="black" id="connector0pin" cx="2.88" fill="black" cy="2.88"/>
     <circle  stroke-width="2.16" r="1.8" stroke="black" id="connector1pin" cx="10.0933" fill="black" cy="2.88"/>
    </g>
   </g>
  </g>
 </g>
 <g partID="857948602">
  <g transform="translate(179.489,164.506)">
   <g transform="matrix(1.66533e-16,1,-1,1.66533e-16,0,0)">
    <g  id="copper1">
     <circle  stroke-width="2.16" r="1.8" stroke="black" id="connector0pin" cx="2.88" fill="black" cy="2.88"/>
     <circle  stroke-width="2.16" r="1.8" stroke="black" id="connector1pin" cx="10.0933" fill="black" cy="2.88"/>
    </g>
   </g>
  </g>
 </g>
 <g partID="857938612">
  <g transform="translate(168.689,164.506)">
   <g transform="matrix(0,1,-1,0,0,0)">
    <g  id="copper1">
     <circle  stroke-width="2.16" r="1.8" stroke="black" id="connector0pin" cx="2.88" fill="black" cy="2.88"/>
     <circle  stroke-width="2.16" r="1.8" stroke="black" id="connector1pin" cx="10.0933" fill="black" cy="2.88"/>
    </g>
   </g>
  </g>
 </g>
 <g partID="854975152">
  <g transform="translate(258.689,80.28)">
   <g transform="matrix(-1,0,0,-1,0,0)">
    <g  id="copper1">
     <circle  stroke-width="2.16" r="1.8" stroke="black" id="connector0pin" cx="2.88" fill="black" cy="2.88"/>
     <circle  stroke-width="2.16" r="1.8" stroke="black" id="connector1pin" cx="10.0933" fill="black" cy="2.88"/>
    </g>
   </g>
  </g>
 </g>
 <g partID="855110322">
  <g transform="translate(-23.4072,65.376)">
   <g transform="matrix(0,-1,1,0,0,0)">
    <g  id="copper1">
     <g  id="copper0">
      <g  id="connector1pad">
       <circle  stroke-width="0.974" stroke="black" r="1.8" fill="black" cx="7.776" cy="52.416"/>
       <path d="M7.776,48.096c1.192,0,2.16,0.967,2.16,2.158l0,4.32c0,1.193,-0.968,2.16,-2.16,2.16l0,0c-1.193,0,-2.16,-0.967,-2.16,-2.16l0,-4.32C5.616,49.063,6.583,48.096,7.776,48.096L7.776,48.096zM6.336,52.416c0,0.796,0.645,1.44,1.44,1.44s1.439,-0.646,1.439,-1.44s-0.645,-1.438,-1.439,-1.438C6.98,50.976,6.336,51.621,6.336,52.416z"  stroke-width="0.72" stroke="black" fill="black"/>
      </g>
      <g  id="connector0pad">
       <circle  stroke-width="0.974" stroke="black" r="1.8" fill="black" cx="14.976" cy="52.416"/>
       <path d="M14.976,48.096c1.191,0,2.158,0.967,2.158,2.158l0,4.32c0,1.193,-0.967,2.16,-2.158,2.16l0,0c-1.193,0,-2.16,-0.967,-2.16,-2.16l0,-4.32C12.816,49.063,13.783,48.096,14.976,48.096L14.976,48.096zM13.536,52.416c0,0.796,0.644,1.44,1.439,1.441c0.795,0,1.44,-0.645,1.44,-1.439c0,0,0,-0.001,0,-0.002c0,-0.795,-0.645,-1.439,-1.438,-1.439c-0.796,-0.001,-1.44,0.644,-1.441,1.438C13.536,52.415,13.536,52.416,13.536,52.416z"  stroke-width="0.72" stroke="black" fill="black"/>
      </g>
      <g  id="connector2pad">
       <circle  stroke-width="0.974" stroke="black" r="1.8" fill="black" cx="22.175" cy="52.416"/>
       <path d="M22.175,48.096c1.193,0,2.16,0.967,2.16,2.158l0,4.32c0,1.193,-0.967,2.16,-2.16,2.16l0,0c-1.191,0,-2.158,-0.967,-2.158,-2.16l0,-4.32C20.016,49.063,20.983,48.096,22.175,48.096L22.175,48.096zM20.736,52.416c-0.001,0.796,0.645,1.44,1.439,1.441c0.795,0,1.438,-0.645,1.439,-1.439c0,0,0,-0.001,0,-0.002c0.002,-0.795,-0.644,-1.439,-1.439,-1.439c-0.795,-0.001,-1.439,0.644,-1.439,1.438C20.736,52.415,20.736,52.416,20.736,52.416z"  stroke-width="0.72" stroke="black" fill="black"/>
      </g>
      <circle  stroke-width="0" r="4.68" id="nonconn1" cx="14.976" cy="9.936"/>
     </g>
    </g>
   </g>
  </g>
 </g>
 <g partID="857729272">
  <g transform="translate(33.3288,64.8)">
   <g  id="copper1">
    <circle  stroke-width="2.16" r="1.8" stroke="black" id="connector0pin" cx="2.88" fill="black" cy="7.2"/>
    <circle  stroke-width="2.16" r="1.8" stroke="black" id="connector1pin" cx="17.28" fill="black" cy="7.2"/>
   </g>
  </g>
 </g>
 <g partID="858809712">
  <g transform="translate(28.6488,147.24)">
   <g  id="copper1">
    <g  id="copper0">
     <rect height="3.96" y="12.78"  stroke-width="2.16" stroke="black" id="rect11" width="3.96" x="5.58" fill="black"/>
     <circle  stroke-width="2.16" r="1.98" stroke="black" id="connector0pin" cx="7.56" fill="black" cy="14.76"/>
     <circle  stroke-width="2.16" r="1.98" stroke="black" id="connector1pin" cx="21.96" fill="black" cy="14.76"/>
    </g>
   </g>
  </g>
 </g>
 <g partID="855115682">
  <g transform="translate(-23.4071,115.776)">
   <g transform="matrix(0,-1,1,0,0,0)">
    <g  id="copper1">
     <g  id="copper0">
      <g  id="connector1pad">
       <circle  stroke-width="0.974" stroke="black" r="1.8" fill="black" cx="7.776" cy="52.416"/>
       <path d="M7.776,48.096c1.192,0,2.16,0.967,2.16,2.158l0,4.32c0,1.193,-0.968,2.16,-2.16,2.16l0,0c-1.193,0,-2.16,-0.967,-2.16,-2.16l0,-4.32C5.616,49.063,6.583,48.096,7.776,48.096L7.776,48.096zM6.336,52.416c0,0.796,0.645,1.44,1.44,1.44s1.439,-0.646,1.439,-1.44s-0.645,-1.438,-1.439,-1.438C6.98,50.976,6.336,51.621,6.336,52.416z"  stroke-width="0.72" stroke="black" fill="black"/>
      </g>
      <g  id="connector0pad">
       <circle  stroke-width="0.974" stroke="black" r="1.8" fill="black" cx="14.976" cy="52.416"/>
       <path d="M14.976,48.096c1.191,0,2.158,0.967,2.158,2.158l0,4.32c0,1.193,-0.967,2.16,-2.158,2.16l0,0c-1.193,0,-2.16,-0.967,-2.16,-2.16l0,-4.32C12.816,49.063,13.783,48.096,14.976,48.096L14.976,48.096zM13.536,52.416c0,0.796,0.644,1.44,1.439,1.441c0.795,0,1.44,-0.645,1.44,-1.439c0,0,0,-0.001,0,-0.002c0,-0.795,-0.645,-1.439,-1.438,-1.439c-0.796,-0.001,-1.44,0.644,-1.441,1.438C13.536,52.415,13.536,52.416,13.536,52.416z"  stroke-width="0.72" stroke="black" fill="black"/>
      </g>
      <g  id="connector2pad">
       <circle  stroke-width="0.974" stroke="black" r="1.8" fill="black" cx="22.175" cy="52.416"/>
       <path d="M22.175,48.096c1.193,0,2.16,0.967,2.16,2.158l0,4.32c0,1.193,-0.967,2.16,-2.16,2.16l0,0c-1.191,0,-2.158,-0.967,-2.158,-2.16l0,-4.32C20.016,49.063,20.983,48.096,22.175,48.096L22.175,48.096zM20.736,52.416c-0.001,0.796,0.645,1.44,1.439,1.441c0.795,0,1.438,-0.645,1.439,-1.439c0,0,0,-0.001,0,-0.002c0.002,-0.795,-0.644,-1.439,-1.439,-1.439c-0.795,-0.001,-1.439,0.644,-1.439,1.438C20.736,52.415,20.736,52.416,20.736,52.416z"  stroke-width="0.72" stroke="black" fill="black"/>
      </g>
      <circle  stroke-width="0" r="4.68" id="nonconn1" cx="14.976" cy="9.936"/>
     </g>
    </g>
   </g>
  </g>
 </g>
 <g partID="855254512">
  <g transform="translate(118.955,185.613)">
   <g transform="matrix(0,1,-1,0,0,0)">
    <g  id="copper1">
     <circle  stroke-width="1.85384" r="1.7008" stroke="black" id="connector1pad" cx="8.7876" fill="black" cy="10.6336"/>
     <rect y="8.9328" height="3.4016"  stroke-width="1.85384" stroke="black" width="3.4016" fill="black" x="7.0868"/>
     <circle  stroke-width="1.85384" r="1.7008" stroke="black" id="connector0pad" cx="8.7876" fill="black" cy="3.5464"/>
    </g>
   </g>
  </g>
 </g>
 <g partID="855254542">
  <g transform="translate(105.113,186.3)">
   <g transform="matrix(0,-1,1,0,0,0)">
    <g  id="copper1">
     <!-- <rect width="55" x="10" y="15.5" fill="none" height="55" stroke="rgb(255, 191, 0)" stroke-width="20" />  -->
     <circle  stroke-width="2.16" stroke="black" r="1.98" id="connector0pin" fill="black" cx="2.7" cy="3.096"/>
     <circle  stroke-width="2.16" stroke="black" r="1.98" id="connector1pin" fill="black" cx="31.5" cy="3.096"/>
    </g>
   </g>
  </g>
 </g>
 <g partID="855255782">
  <g transform="translate(90.2088,151.776)">
   <g transform="matrix(0,1,-1,0,0,0)">
    <g  id="copper1">
     <g  id="copper0">
      <rect height="4.464" y="1.368"  stroke-width="2.16" stroke="black" width="4.464" fill="black" x="0.72"/>
      <circle  stroke-width="2.16" r="2.232" stroke="black" id="connector0pin" cx="3.024" fill="black" cy="3.6"/>
      <circle  stroke-width="2.16" r="2.232" stroke="black" id="connector1pin" cx="24.48" fill="black" cy="3.6"/>
     </g>
    </g>
   </g>
  </g>
 </g>
 <g partID="855257342">
  <g transform="translate(67.1688,199.44)">
   <g transform="matrix(0,-1,1,0,0,0)">
    <g  id="copper1">
     <g  id="copper0">
      <rect height="4.176" y="2.952"  stroke-width="2.16" stroke="black" id="square" width="4.176" fill="black" x="2.952"/>
      <circle  stroke-width="2.16" r="2.088" stroke="black" id="connector0pin" cx="5.04" fill="black" cy="5.04"/>
      <circle  stroke-width="2.16" r="2.088" stroke="black" id="connector1pin" cx="5.04" fill="black" cy="12.24"/>
      <circle  stroke-width="2.16" r="2.088" stroke="black" id="connector2pin" cx="5.04" fill="black" cy="19.44"/>
     </g>
    </g>
   </g>
  </g>
 </g>
 <g partID="57912">
  <g transform="translate(120.449,138.96)">
   <g transform="matrix(0,1,-1,0,0,0)">
    <g  id="copper1">
     <g  id="copper0">
      <circle  stroke-width="2.16" r="2.088" stroke="black" id="connector0pin" cx="5.04" fill="black" cy="5.04"/>
      <circle  stroke-width="2.16" r="2.088" stroke="black" id="connector1pin" cx="5.04" fill="black" cy="12.24"/>
      <circle  stroke-width="2.16" r="2.088" stroke="black" id="connector2pin" cx="5.04" fill="black" cy="19.44"/>
     </g>
    </g>
   </g>
  </g>
 </g>
 <g partID="855358902">
  <g transform="translate(391.169,140.76)">
   <g  id="copper1">
    <g  id="copper0">
     <circle  stroke-width="2.16" r="2.088" stroke="black" id="connector0pin" cx="5.04" fill="black" cy="5.04"/>
     <circle  stroke-width="2.16" r="2.088" stroke="black" id="connector1pin" cx="5.04" fill="black" cy="12.24"/>
     <circle  stroke-width="2.16" r="2.088" stroke="black" id="connector2pin" cx="5.04" fill="black" cy="19.44"/>
     <circle  stroke-width="2.16" r="2.088" stroke="black" id="connector3pin" cx="5.04" fill="black" cy="26.64"/>
    </g>
   </g>
  </g>
 </g>
 <g partID="855355642">
  <g transform="translate(311.969,140.76)">
   <g  id="copper1">
    <g  id="copper0">
     <circle  stroke-width="2.16" r="2.088" stroke="black" id="connector0pin" cx="5.04" fill="black" cy="5.04"/>
     <circle  stroke-width="2.16" r="2.088" stroke="black" id="connector1pin" cx="5.04" fill="black" cy="12.24"/>
     <circle  stroke-width="2.16" r="2.088" stroke="black" id="connector2pin" cx="5.04" fill="black" cy="19.44"/>
     <circle  stroke-width="2.16" r="2.088" stroke="black" id="connector3pin" cx="5.04" fill="black" cy="26.64"/>
    </g>
   </g>
  </g>
 </g>
 <g partID="855353322">
  <g transform="translate(319.169,140.76)">
   <g  id="copper1">
    <g  id="copper0">
     <circle  stroke-width="2.16" r="2.088" stroke="black" id="connector0pin" cx="5.04" fill="black" cy="5.04"/>
     <circle  stroke-width="2.16" r="2.088" stroke="black" id="connector1pin" cx="5.04" fill="black" cy="12.24"/>
     <circle  stroke-width="2.16" r="2.088" stroke="black" id="connector2pin" cx="5.04" fill="black" cy="19.44"/>
     <circle  stroke-width="2.16" r="2.088" stroke="black" id="connector3pin" cx="5.04" fill="black" cy="26.64"/>
    </g>
   </g>
  </g>
 </g>
 <g partID="855332492">
  <g transform="translate(383.969,140.76)">
   <g  id="copper1">
    <g  id="copper0">
     <circle  stroke-width="2.16" r="2.088" stroke="black" id="connector0pin" cx="5.04" fill="black" cy="5.04"/>
     <circle  stroke-width="2.16" r="2.088" stroke="black" id="connector1pin" cx="5.04" fill="black" cy="12.24"/>
     <circle  stroke-width="2.16" r="2.088" stroke="black" id="connector2pin" cx="5.04" fill="black" cy="19.44"/>
     <circle  stroke-width="2.16" r="2.088" stroke="black" id="connector3pin" cx="5.04" fill="black" cy="26.64"/>
    </g>
   </g>
  </g>
 </g>
 <g partID="855852012">
  <g transform="translate(484.049,117.36)">
   <g transform="matrix(0,1,-1,0,0,0)">
    <g  id="copper1">
     <g  id="copper0">
      <circle  stroke-width="2.16" r="2.088" stroke="black" id="connector0pin" cx="5.04" fill="black" cy="5.04"/>
      <circle  stroke-width="2.16" r="2.088" stroke="black" id="connector1pin" cx="5.04" fill="black" cy="12.24"/>
      <circle  stroke-width="2.16" r="2.088" stroke="black" id="connector2pin" cx="5.04" fill="black" cy="19.44"/>
      <circle  stroke-width="2.16" r="2.088" stroke="black" id="connector3pin" cx="5.04" fill="black" cy="26.64"/>
      <circle  stroke-width="2.16" r="2.088" stroke="black" id="connector4pin" cx="5.04" fill="black" cy="33.84"/>
      <circle  stroke-width="2.16" r="2.088" stroke="black" id="connector5pin" cx="5.04" fill="black" cy="41.04"/>
      <circle  stroke-width="2.16" r="2.088" stroke="black" id="connector6pin" cx="5.04" fill="black" cy="48.24"/>
      <circle  stroke-width="2.16" r="2.088" stroke="black" id="connector7pin" cx="5.04" fill="black" cy="55.44"/>
     </g>
    </g>
   </g>
  </g>
 </g>
 <g partID="855499402">
  <g transform="translate(484.049,185.76)">
   <g transform="matrix(0,1,-1,0,0,0)">
    <g  id="copper1">
     <g  id="copper0">
      <circle  stroke-width="2.16" r="2.088" stroke="black" id="connector0pin" cx="5.04" fill="black" cy="5.04"/>
      <circle  stroke-width="2.16" r="2.088" stroke="black" id="connector1pin" cx="5.04" fill="black" cy="12.24"/>
      <circle  stroke-width="2.16" r="2.088" stroke="black" id="connector2pin" cx="5.04" fill="black" cy="19.44"/>
      <circle  stroke-width="2.16" r="2.088" stroke="black" id="connector3pin" cx="5.04" fill="black" cy="26.64"/>
      <circle  stroke-width="2.16" r="2.088" stroke="black" id="connector4pin" cx="5.04" fill="black" cy="33.84"/>
      <circle  stroke-width="2.16" r="2.088" stroke="black" id="connector5pin" cx="5.04" fill="black" cy="41.04"/>
      <circle  stroke-width="2.16" r="2.088" stroke="black" id="connector6pin" cx="5.04" fill="black" cy="48.24"/>
      <circle  stroke-width="2.16" r="2.088" stroke="black" id="connector7pin" cx="5.04" fill="black" cy="55.44"/>
     </g>
    </g>
   </g>
  </g>
 </g>
 <g partID="855852032">
  <g transform="translate(509.249,117.36)">
   <g transform="matrix(0,1,-1,0,0,0)">
    <g  id="copper1">
     <g  id="copper0">
      <circle  stroke-width="2.16" r="2.088" stroke="black" id="connector0pin" cx="5.04" fill="black" cy="5.04"/>
      <circle  stroke-width="2.16" r="2.088" stroke="black" id="connector1pin" cx="5.04" fill="black" cy="12.24"/>
      <circle  stroke-width="2.16" r="2.088" stroke="black" id="connector2pin" cx="5.04" fill="black" cy="19.44"/>
     </g>
    </g>
   </g>
  </g>
 </g>
 <g partID="855689312">
  <g transform="translate(509.249,185.76)">
   <g transform="matrix(0,1,-1,0,0,0)">
    <g  id="copper1">
     <g  id="copper0">
      <circle  stroke-width="2.16" r="2.088" stroke="black" id="connector0pin" cx="5.04" fill="black" cy="5.04"/>
      <circle  stroke-width="2.16" r="2.088" stroke="black" id="connector1pin" cx="5.04" fill="black" cy="12.24"/>
      <circle  stroke-width="2.16" r="2.088" stroke="black" id="connector2pin" cx="5.04" fill="black" cy="19.44"/>
     </g>
    </g>
   </g>
  </g>
 </g>
 <g partID="855020692">
  <g transform="translate(69.3627,143.246)">
   <g transform="matrix(0,-1,1,0,0,0)">
    <g  id="copper1">
     <g  id="copper0">
      <circle  stroke-width="2.16" r="1.98" stroke="black" id="connector0pad" cx="20.8462" fill="black" cy="15.6024"/>
      <circle  stroke-width="2.16" r="1.98" stroke="black" id="connector1pad" cx="2.42064" fill="black" cy="15.6024"/>
      <circle  stroke-width="2.16" r="1.98" stroke="black" id="connector2pad" cx="20.8462" fill="black" cy="2.84616"/>
      <circle  stroke-width="2.16" r="1.98" stroke="black" id="connector3pad" cx="2.42064" fill="black" cy="2.84616"/>
     </g>
    </g>
   </g>
  </g>
 </g>
 <g partID="854931492">
  <g transform="translate(326.081,17.1)">
   <g transform="matrix(0,1,-1,0,0,0)">
    <g  id="copper1">
     <!-- <rect width="55" x="10" y="23.5" fill="none" height="55" stroke="rgb(255, 191, 0)" stroke-width="20" /> -->
     <circle  stroke-width="2.16" stroke="black" r="1.98" id="connector0pin" fill="black" cx="2.7" cy="3.672"/>
     <circle  stroke-width="2.16" stroke="black" r="1.98" id="connector1pin" fill="black" cx="38.7" cy="3.672"/>
    </g>
   </g>
  </g>
 </g>
 <g partID="857604532">
  <g transform="translate(405.281,17.1)">
   <g transform="matrix(0,1,-1,0,0,0)">
    <g  id="copper1">
     <!-- <rect width="55" x="10" y="23.5" fill="none" height="55" stroke="rgb(255, 191, 0)" stroke-width="20" /> -->
     <circle  stroke-width="2.16" stroke="black" r="1.98" id="connector0pin" fill="black" cx="2.7" cy="3.672"/>
     <circle  stroke-width="2.16" stroke="black" r="1.98" id="connector1pin" fill="black" cx="38.7" cy="3.672"/>
    </g>
   </g>
  </g>
 </g>
 <g partID="857604492">
  <g transform="translate(398.081,17.1)">
   <g transform="matrix(0,1,-1,0,0,0)">
    <g  id="copper1">
     <!-- <rect width="55" x="10" y="23.5" fill="none" height="55" stroke="rgb(255, 191, 0)" stroke-width="20" /> -->
     <circle  stroke-width="2.16" stroke="black" r="1.98" id="connector0pin" fill="black" cx="2.7" cy="3.672"/>
     <circle  stroke-width="2.16" stroke="black" r="1.98" id="connector1pin" fill="black" cx="38.7" cy="3.672"/>
    </g>
   </g>
  </g>
 </g>
 <g partID="857604452">
  <g transform="translate(390.881,17.1)">
   <g transform="matrix(0,1,-1,0,0,0)">
    <g  id="copper1">
     <!-- <rect width="55" x="10" y="23.5" fill="none" height="55" stroke="rgb(255, 191, 0)" stroke-width="20" /> -->
     <circle  stroke-width="2.16" stroke="black" r="1.98" id="connector0pin" fill="black" cx="2.7" cy="3.672"/>
     <circle  stroke-width="2.16" stroke="black" r="1.98" id="connector1pin" fill="black" cx="38.7" cy="3.672"/>
    </g>
   </g>
  </g>
 </g>
 <g partID="857604412">
  <g transform="translate(383.681,17.1)">
   <g transform="matrix(0,1,-1,0,0,0)">
    <g  id="copper1">
     <!-- <rect width="55" x="10" y="23.5" fill="none" height="55" stroke="rgb(255, 191, 0)" stroke-width="20" /> -->
     <circle  stroke-width="2.16" stroke="black" r="1.98" id="connector0pin" fill="black" cx="2.7" cy="3.672"/>
     <circle  stroke-width="2.16" stroke="black" r="1.98" id="connector1pin" fill="black" cx="38.7" cy="3.672"/>
    </g>
   </g>
  </g>
 </g>
 <g partID="857604372">
  <g transform="translate(376.481,17.1)">
   <g transform="matrix(0,1,-1,0,0,0)">
    <g  id="copper1">
     <!-- <rect width="55" x="10" y="23.5" fill="none" height="55" stroke="rgb(255, 191, 0)" stroke-width="20" /> -->
     <circle  stroke-width="2.16" stroke="black" r="1.98" id="connector0pin" fill="black" cx="2.7" cy="3.672"/>
     <circle  stroke-width="2.16" stroke="black" r="1.98" id="connector1pin" fill="black" cx="38.7" cy="3.672"/>
    </g>
   </g>
  </g>
 </g>
 <g partID="857604332">
  <g transform="translate(369.281,17.1)">
   <g transform="matrix(0,1,-1,0,0,0)">
    <g  id="copper1">
     <!-- <rect width="55" x="10" y="23.5" fill="none" height="55" stroke="rgb(255, 191, 0)" stroke-width="20" /> -->
     <circle  stroke-width="2.16" stroke="black" r="1.98" id="connector0pin" fill="black" cx="2.7" cy="3.672"/>
     <circle  stroke-width="2.16" stroke="black" r="1.98" id="connector1pin" fill="black" cx="38.7" cy="3.672"/>
    </g>
   </g>
  </g>
 </g>
 <g partID="857604292">
  <g transform="translate(362.081,17.1)">
   <g transform="matrix(0,1,-1,0,0,0)">
    <g  id="copper1">
     <!-- <rect width="55" x="10" y="23.5" fill="none" height="55" stroke="rgb(255, 191, 0)" stroke-width="20" /> -->
     <circle  stroke-width="2.16" stroke="black" r="1.98" id="connector0pin" fill="black" cx="2.7" cy="3.672"/>
     <circle  stroke-width="2.16" stroke="black" r="1.98" id="connector1pin" fill="black" cx="38.7" cy="3.672"/>
    </g>
   </g>
  </g>
 </g>
 <g partID="855412652">
  <g transform="translate(354.881,17.1)">
   <g transform="matrix(0,1,-1,0,0,0)">
    <g  id="copper1">
     <!-- <rect width="55" x="10" y="23.5" fill="none" height="55" stroke="rgb(255, 191, 0)" stroke-width="20" /> -->
     <circle  stroke-width="2.16" stroke="black" r="1.98" id="connector0pin" fill="black" cx="2.7" cy="3.672"/>
     <circle  stroke-width="2.16" stroke="black" r="1.98" id="connector1pin" fill="black" cx="38.7" cy="3.672"/>
    </g>
   </g>
  </g>
 </g>
 <g partID="855410552">
  <g transform="translate(347.681,17.1)">
   <g transform="matrix(0,1,-1,0,0,0)">
    <g  id="copper1">
     <!-- <rect width="55" x="10" y="23.5" fill="none" height="55" stroke="rgb(255, 191, 0)" stroke-width="20" /> -->
     <circle  stroke-width="2.16" stroke="black" r="1.98" id="connector0pin" fill="black" cx="2.7" cy="3.672"/>
     <circle  stroke-width="2.16" stroke="black" r="1.98" id="connector1pin" fill="black" cx="38.7" cy="3.672"/>
    </g>
   </g>
  </g>
 </g>
 <g partID="855408512">
  <g transform="translate(340.481,17.1)">
   <g transform="matrix(0,1,-1,0,0,0)">
    <g  id="copper1">
     <!-- <rect width="55" x="10" y="23.5" fill="none" height="55" stroke="rgb(255, 191, 0)" stroke-width="20" /> -->
     <circle  stroke-width="2.16" stroke="black" r="1.98" id="connector0pin" fill="black" cx="2.7" cy="3.672"/>
     <circle  stroke-width="2.16" stroke="black" r="1.98" id="connector1pin" fill="black" cx="38.7" cy="3.672"/>
    </g>
   </g>
  </g>
 </g>
 <g partID="855033082">
  <g transform="translate(333.281,17.1)">
   <g transform="matrix(0,1,-1,0,0,0)">
    <g  id="copper1">
     <!-- <rect width="55" x="10" y="23.5" fill="none" height="55" stroke="rgb(255, 191, 0)" stroke-width="20" /> -->
     <circle  stroke-width="2.16" stroke="black" r="1.98" id="connector0pin" fill="black" cx="2.7" cy="3.672"/>
     <circle  stroke-width="2.16" stroke="black" r="1.98" id="connector1pin" fill="black" cx="38.7" cy="3.672"/>
    </g>
   </g>
  </g>
 </g>
 <g partID="857594882">
  <g transform="translate(304.481,17.1)">
   <g transform="matrix(0,1,-1,0,0,0)">
    <g  id="copper1">
     <!-- <rect width="55" x="10" y="23.5" fill="none" height="55" stroke="rgb(255, 191, 0)" stroke-width="20" /> -->
     <circle  stroke-width="2.16" stroke="black" r="1.98" id="connector0pin" fill="black" cx="2.7" cy="3.672"/>
     <circle  stroke-width="2.16" stroke="black" r="1.98" id="connector1pin" fill="black" cx="38.7" cy="3.672"/>
    </g>
   </g>
  </g>
 </g>
 <g partID="854930062">
  <g transform="translate(311.681,17.1)">
   <g transform="matrix(0,1,-1,0,0,0)">
    <g  id="copper1">
     <!-- <rect width="55" x="10" y="23.5" fill="none" height="55" stroke="rgb(255, 191, 0)" stroke-width="20" /> -->
     <circle  stroke-width="2.16" stroke="black" r="1.98" id="connector0pin" fill="black" cx="2.7" cy="3.672"/>
     <circle  stroke-width="2.16" stroke="black" r="1.98" id="connector1pin" fill="black" cx="38.7" cy="3.672"/>
    </g>
   </g>
  </g>
 </g>
 <g partID="854927002">
  <g transform="translate(318.881,17.1)">
   <g transform="matrix(0,1,-1,0,0,0)">
    <g  id="copper1">
     <!-- <rect width="55" x="10" y="23.5" fill="none" height="55" stroke="rgb(255, 191, 0)" stroke-width="20" /> -->
     <circle  stroke-width="2.16" stroke="black" r="1.98" id="connector0pin" fill="black" cx="2.7" cy="3.672"/>
     <circle  stroke-width="2.16" stroke="black" r="1.98" id="connector1pin" fill="black" cx="38.7" cy="3.672"/>
    </g>
   </g>
  </g>
 </g>
</svg>
