<?xml version='1.0' encoding='UTF-8' standalone='no'?>
<!-- Created with Fritzing (http://www.fritzing.org/) -->
<svg xmlns="http://www.w3.org/2000/svg" y="0in"  height="0.590551in" xmlns:svg="http://www.w3.org/2000/svg" version="1.2" baseProfile="tiny" width="1.1811in" viewBox="0 0 85.0394 42.5197" x="0in">
 <g transform="matrix(-1, 0, 0, 1, 85.0394, 0)">
  <g partID="57560">
   <g  id="board">
    <rect y="0.288"  height="41.9437" stroke-width="0.5" fill="none" width="84.4634" id="boardoutline" fill-opacity="0.5" stroke="black" x="0.288"/>
   </g>
  </g>
  <g partID="58990">
   <g transform="translate(68.7194,3.43568)">
    <g  id="copper1">
     <rect y="1.6"  height="4.25197" stroke-width="0" fill="black" width="14.1732" id="0" fill-opacity="1" stroke="none" x="1.6"/>
     <g y="1.6"  height="4.25197" stroke-width="0" fill="none" width="14.1732" id="1" stroke="none" x="1.6"/>
    </g>
   </g>
  </g>
  <g partID="58970">
   <g transform="translate(68.7194,32.2357)">
    <g  id="copper1">
     <rect y="1.6"  height="4.25197" stroke-width="0" fill="black" width="14.1732" id="2" fill-opacity="1" stroke="none" x="1.6"/>
     <g y="1.6"  height="4.25197" stroke-width="0" fill="none" width="14.1732" id="3" stroke="none" x="1.6"/>
    </g>
   </g>
  </g>
  <g partID="58950">
   <g transform="translate(68.7194,10.6357)">
    <g  id="copper1">
     <rect y="1.6"  height="4.25197" stroke-width="0" fill="black" width="14.1732" id="4" fill-opacity="1" stroke="none" x="1.6"/>
     <g y="1.6"  height="4.25197" stroke-width="0" fill="none" width="14.1732" id="5" stroke="none" x="1.6"/>
    </g>
   </g>
  </g>
  <g partID="58930">
   <g transform="translate(68.7194,25.0357)">
    <g  id="copper1">
     <rect y="1.6"  height="4.25197" stroke-width="0" fill="black" width="14.1732" id="6" fill-opacity="1" stroke="none" x="1.6"/>
     <g y="1.6"  height="4.25197" stroke-width="0" fill="none" width="14.1732" id="7" stroke="none" x="1.6"/>
    </g>
   </g>
  </g>
  <g partID="58910">
   <g transform="translate(68.7194,17.8357)">
    <g  id="copper1">
     <rect y="1.6"  height="4.25197" stroke-width="0" fill="black" width="14.1732" id="8" fill-opacity="1" stroke="none" x="1.6"/>
     <g y="1.6"  height="4.25197" stroke-width="0" fill="none" width="14.1732" id="9" stroke="none" x="1.6"/>
    </g>
   </g>
  </g>
  <g partID="58180">
   <g transform="translate(-1.36724,23.2357)">
    <g  id="copper1">
     <rect y="1.6"  height="4.25197" stroke-width="0" fill="black" width="28.3465" id="10" fill-opacity="1" stroke="none" x="1.6"/>
     <g y="1.6"  height="4.25197" stroke-width="0" fill="none" width="28.3465" id="11" stroke="none" x="1.6"/>
    </g>
   </g>
  </g>
  <g partID="58150">
   <g transform="translate(-1.36724,12.4357)">
    <g  id="copper1">
     <rect y="1.6"  height="4.25197" stroke-width="0" fill="black" width="28.3465" id="12" fill-opacity="1" stroke="none" x="1.6"/>
     <g y="1.6"  height="4.25197" stroke-width="0" fill="none" width="28.3465" id="13" stroke="none" x="1.6"/>
    </g>
   </g>
  </g>
  <g partID="58231">
   <g transform="translate(62.2904,6.44607)">
    <g  id="copper1">
     <g  r="1.99559" stroke-width="1.44" fill="none" id="14" cy="4.31559" cx="4.31559" stroke="black"/>
    </g>
   </g>
  </g>
  <g partID="58201">
   <g transform="translate(51.4904,17.2461)">
    <g  id="copper1">
     <g  r="1.99559" stroke-width="1.44" fill="none" id="15" cy="4.31559" cx="4.31559" stroke="black"/>
    </g>
   </g>
  </g>
 </g>
</svg>
