<?xml version='1.0' encoding='UTF-8' standalone='no'?>
<!-- Created with Fritzing (http://www.fritzing.org/) -->
<svg xmlns="http://www.w3.org/2000/svg" y="0in"  height="0.590551in" xmlns:svg="http://www.w3.org/2000/svg" version="1.2" baseProfile="tiny" width="1.1811in" viewBox="0 0 85.0394 42.5197" x="0in">
 <g transform="matrix(-1, 0, 0, 1, 85.0394, 0)">
  <g partID="57560">
   <g  id="board">
    <rect y="0.288"  height="41.9437" stroke-width="0.5" fill="none" width="84.4634" id="boardoutline" fill-opacity="0.5" stroke="black" x="0.288"/>
   </g>
  </g>
  <g partID="60040">
   <g transform="translate(2.88,2.88)">
    <g  id="groundplane">
     <g  id="connector0pad">
      <polygon  stroke-width="0" fill="black" stroke="none" points="0,0,0,3.744,64.512,3.744,64.512,3.888,65.088,3.888,65.088,4.032,65.376,4.032,65.376,4.176,65.664,4.176,65.664,4.32,79.2,4.32,79.2,0"/>
      <polygon  stroke-width="0" fill="black" stroke="none" points="0,3.744,0,9.648,27.072,9.648,27.072,10.944,54.864,10.944,54.864,11.088,55.584,11.088,55.584,11.232,55.872,11.232,55.872,11.376,56.016,11.376,56.016,11.52,56.304,11.52,56.304,11.664,56.448,11.664,56.448,11.808,56.592,11.808,56.592,11.952,56.736,11.952,56.736,12.096,56.88,12.096,56.88,12.24,57.024,12.24,57.024,12.384,57.168,12.384,57.168,12.528,57.312,12.528,57.312,12.672,57.456,12.672,57.456,12.816,61.632,12.816,61.632,11.376,61.344,11.376,61.344,11.232,61.2,11.232,61.2,11.088,61.056,11.088,61.056,10.944,60.912,10.944,60.912,10.8,60.768,10.8,60.768,10.656,60.624,10.656,60.624,10.512,60.48,10.512,60.48,10.368,60.336,10.368,60.336,10.224,60.192,10.224,60.192,9.936,60.048,9.936,60.048,9.648,59.904,9.648,59.904,9.36,59.76,9.36,59.76,8.784,59.616,8.784,59.616,6.912,59.76,6.912,59.76,6.48,59.904,6.48,59.904,6.048,60.048,6.048,60.048,5.904,60.192,5.904,60.192,5.616,60.336,5.616,60.336,5.472,60.48,5.472,60.48,5.184,60.624,5.184,60.624,5.04,60.768,5.04,60.768,4.896,60.912,4.896,60.912,4.752,61.056,4.752,61.056,4.608,61.344,4.608,61.344,4.464,61.488,4.464,61.488,4.32,61.776,4.32,61.776,4.176,62.064,4.176,62.064,4.032,62.352,4.032,62.352,3.888,62.928,3.888,62.928,3.744"/>
     </g>
    </g>
   </g>
  </g>
  <g partID="60050">
   <g transform="translate(2.88,18.432)">
    <g  id="groundplane">
     <g  id="connector0pad">
      <polygon  stroke-width="0" fill="black" stroke="none" points="27.072,0,27.072,1.296,0,1.296,0,4.896,27.072,4.896,27.072,6.192,49.104,6.192,49.104,4.608,48.96,4.608,48.96,4.032,48.816,4.032,48.816,2.16,48.96,2.16,48.96,1.728,49.104,1.728,49.104,0"/>
     </g>
    </g>
   </g>
  </g>
  <g partID="60060">
   <g transform="translate(59.904,20.304)">
    <g  id="groundplane">
     <g  id="connector0pad">
      <polygon  stroke-width="0" fill="black" stroke="none" points="0,0,0,2.16,0.144,2.16,0.144,2.304,0.288,2.304,0.288,2.448,0.432,2.448,0.432,2.592,8.928,2.592,8.928,0"/>
     </g>
    </g>
   </g>
  </g>
  <g partID="60070">
   <g transform="translate(59.184,27.504)">
    <g  id="groundplane">
     <g  id="connector0pad">
      <polygon  stroke-width="0" fill="black" stroke="none" points="0,0,0,1.44,0.144,1.44,0.144,1.584,0.288,1.584,0.288,1.728,0.432,1.728,0.432,1.872,0.576,1.872,0.576,2.016,0.72,2.016,0.72,2.16,0.864,2.16,0.864,2.304,1.008,2.304,1.008,2.448,1.152,2.448,1.152,2.592,9.648,2.592,9.648,0"/>
     </g>
    </g>
   </g>
  </g>
  <g partID="60080">
   <g transform="translate(2.88,29.232)">
    <g  id="groundplane">
     <polygon  stroke-width="0" fill="black" stroke="none" points="27.072,0,27.072,1.296,0,1.296,0,10.368,79.2,10.368,79.2,6.768,66.096,6.768,66.096,6.624,65.952,6.624,65.952,5.472,56.304,5.472,56.304,5.328,55.728,5.328,55.728,5.184,55.44,5.184,55.44,5.04,55.152,5.04,55.152,4.896,55.008,4.896,55.008,4.752,54.864,4.752,54.864,4.608,54.72,4.608,54.72,4.464,54.576,4.464,54.576,4.32,54.432,4.32,54.432,4.176,54.288,4.176,54.288,4.032,54.144,4.032,54.144,3.888,54,3.888,54,3.744,53.856,3.744,53.856,3.6,53.712,3.6,53.712,3.456,53.568,3.456,53.568,3.312,53.424,3.312,53.424,3.168,53.28,3.168,53.28,3.024,53.136,3.024,53.136,2.88,52.992,2.88,52.992,2.736,52.848,2.736,52.848,2.592,52.704,2.592,52.704,2.448,52.56,2.448,52.56,2.304,52.416,2.304,52.416,2.16,52.272,2.16,52.272,2.016,52.128,2.016,52.128,1.872,51.984,1.872,51.984,1.728,51.84,1.728,51.84,1.584,51.696,1.584,51.696,1.44,51.552,1.44,51.552,1.296,51.408,1.296,51.408,1.152,51.264,1.152,51.264,1.008,51.12,1.008,51.12,0.864,50.976,0.864,50.976,0.72,50.832,0.72,50.832,0.576,50.688,0.576,50.688,0.432,50.544,0.432,50.544,0.288,50.256,0.288,50.256,0.144,50.112,0.144,50.112,0"/>
     <g  id="connector0pad">
      <circle  r="2.7" stroke-width="0" fill="black" cy="4.2975" cx="30.8833" stroke="none"/>
     </g>
    </g>
   </g>
  </g>
  <g partID="57850">
   <g transform="translate(68.7194,28.6357)">
    <g  id="copper0">
     <rect y="1.6"  height="4.25197" stroke-width="0" fill="black" width="14.1732" id="connector0pad" fill-opacity="1" stroke="none" x="1.6"/>
     <g y="1.6"  height="4.25197" stroke-width="0" fill="none" width="14.1732" id="connector0terminal" stroke="none" x="1.6"/>
    </g>
   </g>
  </g>
  <g partID="57830">
   <g transform="translate(68.7194,21.4357)">
    <g  id="copper0">
     <rect y="1.6"  height="4.25197" stroke-width="0" fill="black" width="14.1732" id="connector0pad" fill-opacity="1" stroke="none" x="1.6"/>
     <g y="1.6"  height="4.25197" stroke-width="0" fill="none" width="14.1732" id="connector0terminal" stroke="none" x="1.6"/>
    </g>
   </g>
  </g>
  <g partID="57810">
   <g transform="translate(68.7194,14.2357)">
    <g  id="copper0">
     <rect y="1.6"  height="4.25197" stroke-width="0" fill="black" width="14.1732" id="connector0pad" fill-opacity="1" stroke="none" x="1.6"/>
     <g y="1.6"  height="4.25197" stroke-width="0" fill="none" width="14.1732" id="connector0terminal" stroke="none" x="1.6"/>
    </g>
   </g>
  </g>
  <g partID="57790">
   <g transform="translate(68.7194,7.03568)">
    <g  id="copper0">
     <rect y="1.6"  height="4.25197" stroke-width="0" fill="black" width="14.1732" id="connector0pad" fill-opacity="1" stroke="none" x="1.6"/>
     <g y="1.6"  height="4.25197" stroke-width="0" fill="none" width="14.1732" id="connector0terminal" stroke="none" x="1.6"/>
    </g>
   </g>
  </g>
  <g partID="57650">
   <g transform="translate(-1.36724,23.2357)">
    <g  id="copper0">
     <rect y="1.6"  height="4.25197" stroke-width="0" fill="black" width="28.3465" id="connector0pad" fill-opacity="1" stroke="none" x="1.6"/>
     <g y="1.6"  height="4.25197" stroke-width="0" fill="none" width="28.3465" id="connector0terminal" stroke="none" x="1.6"/>
    </g>
   </g>
  </g>
  <g partID="57600">
   <g transform="translate(-1.36724,12.4357)">
    <g  id="copper0">
     <rect y="1.6"  height="4.25197" stroke-width="0" fill="black" width="28.3465" id="connector0pad" fill-opacity="1" stroke="none" x="1.6"/>
     <g y="1.6"  height="4.25197" stroke-width="0" fill="none" width="28.3465" id="connector0terminal" stroke="none" x="1.6"/>
    </g>
   </g>
  </g>
  <g partID="58230">
   <g transform="translate(62.2904,6.44607)">
    <g  id="copper0">
     <circle  r="1.99559" stroke-width="1.44" fill="none" id="connector0pin" cy="4.31559" cx="4.31559" stroke="black"/>
    </g>
   </g>
  </g>
  <g partID="58200">
   <g transform="translate(51.4904,17.2461)">
    <g  id="copper0">
     <circle  r="1.99559" stroke-width="1.44" fill="none" id="connector0pin" cy="4.31559" cx="4.31559" stroke="black"/>
    </g>
   </g>
  </g>
  <g partID="59710">
   <line stroke-width="1.728" y2="25.1661" x1="59.4179" y1="25.1736" stroke="black" x2="70.7194" stroke-linecap="round"/>
  </g>
  <g partID="59680">
   <line stroke-width="1.728" y2="25.1736" x1="57.2737" y1="23.0293" stroke="black" x2="59.4179" stroke-linecap="round"/>
  </g>
  <g partID="59620">
   <line stroke-width="1.728" y2="16.1855" x1="59.4179" y1="17.9379" stroke="black" x2="57.609" stroke-linecap="round"/>
  </g>
  <g partID="58430">
   <line stroke-width="1.728" y2="17.9379" x1="70.7194" y1="17.9528" stroke="black" x2="59.4179" stroke-linecap="round"/>
  </g>
  <g partID="58400">
   <line stroke-width="1.728" y2="16.1693" x1="57.609" y1="16.1855" stroke="black" x2="28.1792" stroke-linecap="round"/>
  </g>
  <g partID="59590">
   <line stroke-width="1.728" y2="26.9825" x1="59.4179" y1="32.3528" stroke="black" x2="53.9911" stroke-linecap="round"/>
  </g>
  <g partID="58520">
   <line stroke-width="1.728" y2="32.3528" x1="70.7194" y1="32.3584" stroke="black" x2="59.418" stroke-linecap="round"/>
  </g>
  <g partID="58460">
   <line stroke-width="1.728" y2="26.9689" x1="53.9911" y1="26.9825" stroke="black" x2="28.1792" stroke-linecap="round"/>
  </g>
  <g partID="58550">
   <line stroke-width="1.728" y2="10.7617" x1="68.6816" y1="10.7617" stroke="black" x2="70.7194" stroke-linecap="round"/>
  </g>
 </g>
</svg>
