<?xml version='1.0' encoding='UTF-8' standalone='no'?>
<!-- Created with Fritzing (http://www.fritzing.org/) -->
<svg xmlns="http://www.w3.org/2000/svg" y="0in"  height="0.590551in" xmlns:svg="http://www.w3.org/2000/svg" version="1.2" baseProfile="tiny" width="1.1811in" viewBox="0 0 85.0394 42.5197" x="0in">
 <g transform="matrix(-1, 0, 0, 1, 85.0394, 0)">
  <g partID="57560">
   <g  id="board">
    <rect y="0.288"  height="41.9437" stroke-width="0.5" fill="none" width="84.4634" id="boardoutline" fill-opacity="0.5" stroke="black" x="0.288"/>
   </g>
  </g>
  <g partID="60090">
   <g transform="translate(2.88,2.88)">
    <g  id="groundplane1">
     <polygon  stroke-width="0" fill="black" stroke="none" points="0,0,0,3.744,64.512,3.744,64.512,3.888,65.952,3.888,65.952,0"/>
     <polygon  stroke-width="0" fill="black" stroke="none" points="0,3.744,0,9.648,27.072,9.648,27.072,10.944,47.664,10.944,47.664,11.088,48.384,11.088,48.384,11.232,48.672,11.232,48.672,11.376,48.96,11.376,48.96,11.52,49.104,11.52,49.104,11.664,49.248,11.664,49.248,11.808,49.392,11.808,49.392,11.952,49.536,11.952,49.536,12.096,49.68,12.096,49.68,12.24,49.824,12.24,49.824,12.384,49.968,12.384,49.968,12.528,50.112,12.528,50.112,12.672,50.256,12.672,50.256,12.816,50.4,12.816,50.4,12.96,50.544,12.96,50.544,13.104,50.688,13.104,50.688,13.248,50.832,13.248,50.832,13.392,50.976,13.392,50.976,13.536,51.12,13.536,51.12,13.68,51.264,13.68,51.264,13.824,51.408,13.824,51.408,13.968,51.552,13.968,51.552,14.112,51.696,14.112,51.696,14.256,51.84,14.256,51.84,14.4,51.984,14.4,51.984,14.544,53.712,14.544,53.712,14.688,54.288,14.688,54.288,14.832,54.576,14.832,54.576,14.976,54.864,14.976,54.864,15.12,55.152,15.12,55.152,15.264,55.296,15.264,55.296,15.408,55.584,15.408,55.584,15.552,55.728,15.552,55.728,15.696,55.872,15.696,55.872,15.84,56.016,15.84,56.016,15.984,56.16,15.984,56.16,16.128,56.304,16.128,56.304,16.416,57.744,16.416,57.744,11.232,57.888,11.232,57.888,10.656,58.032,10.656,58.032,10.368,58.176,10.368,58.176,10.08,58.32,10.08,58.32,9.936,58.464,9.936,58.464,9.792,58.608,9.792,58.608,9.648,58.752,9.648,58.752,9.504,58.896,9.504,58.896,9.36,59.04,9.36,59.04,9.216,59.184,9.216,59.184,9.072,59.328,9.072,59.328,8.928,59.472,8.928,59.472,8.784,59.616,8.784,59.616,6.912,59.76,6.912,59.76,6.48,59.904,6.48,59.904,6.048,60.048,6.048,60.048,5.904,60.192,5.904,60.192,5.616,60.336,5.616,60.336,5.472,60.48,5.472,60.48,5.184,60.624,5.184,60.624,5.04,60.768,5.04,60.768,4.896,60.912,4.896,60.912,4.752,61.056,4.752,61.056,4.608,61.344,4.608,61.344,4.464,61.488,4.464,61.488,4.32,61.776,4.32,61.776,4.176,62.064,4.176,62.064,4.032,62.352,4.032,62.352,3.888,62.928,3.888,62.928,3.744"/>
     <g  id="connector0pad">
      <circle  r="2.7" stroke-width="0" fill="black" cy="8.3178" cx="52.2881" stroke="none"/>
     </g>
    </g>
   </g>
  </g>
  <g partID="60100">
   <g transform="translate(2.88,14.832)">
    <g  id="groundplane1">
     <polygon  stroke-width="0" fill="black" stroke="none" points="63.936,0,63.936,0.144,62.64,0.144,62.64,0.288,62.496,0.288,62.496,0.432,62.352,0.432,62.352,9.216,62.208,9.216,62.208,9.648,62.064,9.648,62.064,9.792,61.92,9.792,61.92,10.08,61.776,10.08,61.776,10.224,61.632,10.224,61.632,10.368,61.488,10.368,61.488,10.512,61.344,10.512,61.344,10.656,61.2,10.656,61.2,10.8,61.056,10.8,61.056,10.944,60.912,10.944,60.912,11.088,60.768,11.088,60.768,11.232,60.624,11.232,60.624,11.376,60.48,11.376,60.48,11.52,60.336,11.52,60.336,11.664,60.192,11.664,60.192,11.808,60.048,11.808,60.048,11.952,59.904,11.952,59.904,12.096,59.76,12.096,59.76,12.24,59.616,12.24,59.616,12.384,59.472,12.384,59.472,12.528,59.328,12.528,59.328,12.672,59.184,12.672,59.184,12.816,59.04,12.816,59.04,12.96,58.896,12.96,58.896,13.104,58.752,13.104,58.752,13.248,58.608,13.248,58.608,13.392,58.464,13.392,58.464,13.536,58.32,13.536,58.32,13.68,58.176,13.68,58.176,13.824,58.032,13.824,58.032,13.968,57.888,13.968,57.888,14.112,57.6,14.112,57.6,14.256,57.312,14.256,57.312,14.4,27.072,14.4,27.072,15.696,0,15.696,0,24.768,65.952,24.768,65.952,0"/>
     <g  id="connector0pad">
      <circle  r="2.7" stroke-width="0" fill="black" cy="17.445" cx="60.1793" stroke="none"/>
     </g>
    </g>
   </g>
  </g>
  <g partID="60110">
   <g transform="translate(2.88,18.432)">
    <g  id="groundplane1">
     <g  id="connector0pad">
      <polygon  stroke-width="0" fill="black" stroke="none" points="27.072,0,27.072,1.296,0,1.296,0,4.896,27.072,4.896,27.072,6.192,49.104,6.192,49.104,4.608,48.96,4.608,48.96,4.032,48.816,4.032,48.816,2.16,48.672,2.16,48.672,2.016,48.528,2.016,48.528,1.872,48.384,1.872,48.384,1.728,48.24,1.728,48.24,1.584,48.096,1.584,48.096,1.44,47.952,1.44,47.952,1.296,47.808,1.296,47.808,1.152,47.664,1.152,47.664,1.008,47.52,1.008,47.52,0.864,47.376,0.864,47.376,0.72,47.232,0.72,47.232,0.576,47.088,0.576,47.088,0.432,46.944,0.432,46.944,0.288,46.8,0.288,46.8,0.144,46.656,0.144,46.656,0"/>
     </g>
    </g>
   </g>
  </g>
  <g partID="58990">
   <g transform="translate(68.7194,3.43568)">
    <g  id="copper1">
     <rect y="1.6"  height="4.25197" stroke-width="0" fill="black" width="14.1732" id="connector0pad" fill-opacity="1" stroke="none" x="1.6"/>
     <g y="1.6"  height="4.25197" stroke-width="0" fill="none" width="14.1732" id="connector0terminal" stroke="none" x="1.6"/>
    </g>
   </g>
  </g>
  <g partID="58970">
   <g transform="translate(68.7194,32.2357)">
    <g  id="copper1">
     <rect y="1.6"  height="4.25197" stroke-width="0" fill="black" width="14.1732" id="connector0pad" fill-opacity="1" stroke="none" x="1.6"/>
     <g y="1.6"  height="4.25197" stroke-width="0" fill="none" width="14.1732" id="connector0terminal" stroke="none" x="1.6"/>
    </g>
   </g>
  </g>
  <g partID="58950">
   <g transform="translate(68.7194,10.6357)">
    <g  id="copper1">
     <rect y="1.6"  height="4.25197" stroke-width="0" fill="black" width="14.1732" id="connector0pad" fill-opacity="1" stroke="none" x="1.6"/>
     <g y="1.6"  height="4.25197" stroke-width="0" fill="none" width="14.1732" id="connector0terminal" stroke="none" x="1.6"/>
    </g>
   </g>
  </g>
  <g partID="58930">
   <g transform="translate(68.7194,25.0357)">
    <g  id="copper1">
     <rect y="1.6"  height="4.25197" stroke-width="0" fill="black" width="14.1732" id="connector0pad" fill-opacity="1" stroke="none" x="1.6"/>
     <g y="1.6"  height="4.25197" stroke-width="0" fill="none" width="14.1732" id="connector0terminal" stroke="none" x="1.6"/>
    </g>
   </g>
  </g>
  <g partID="58910">
   <g transform="translate(68.7194,17.8357)">
    <g  id="copper1">
     <rect y="1.6"  height="4.25197" stroke-width="0" fill="black" width="14.1732" id="connector0pad" fill-opacity="1" stroke="none" x="1.6"/>
     <g y="1.6"  height="4.25197" stroke-width="0" fill="none" width="14.1732" id="connector0terminal" stroke="none" x="1.6"/>
    </g>
   </g>
  </g>
  <g partID="58180">
   <g transform="translate(-1.36724,23.2357)">
    <g  id="copper1">
     <rect y="1.6"  height="4.25197" stroke-width="0" fill="black" width="28.3465" id="connector0pad" fill-opacity="1" stroke="none" x="1.6"/>
     <g y="1.6"  height="4.25197" stroke-width="0" fill="none" width="28.3465" id="connector0terminal" stroke="none" x="1.6"/>
    </g>
   </g>
  </g>
  <g partID="58150">
   <g transform="translate(-1.36724,12.4357)">
    <g  id="copper1">
     <rect y="1.6"  height="4.25197" stroke-width="0" fill="black" width="28.3465" id="connector0pad" fill-opacity="1" stroke="none" x="1.6"/>
     <g y="1.6"  height="4.25197" stroke-width="0" fill="none" width="28.3465" id="connector0terminal" stroke="none" x="1.6"/>
    </g>
   </g>
  </g>
  <g partID="58231">
   <g transform="translate(62.2904,6.44607)">
    <g  id="copper1">
     <circle  r="1.99559" stroke-width="1.44" fill="none" id="connector0pin" cy="4.31559" cx="4.31559" stroke="black"/>
    </g>
   </g>
  </g>
  <g partID="58201">
   <g transform="translate(51.4904,17.2461)">
    <g  id="copper1">
     <circle  r="1.99559" stroke-width="1.44" fill="none" id="connector0pin" cy="4.31559" cx="4.31559" stroke="black"/>
    </g>
   </g>
  </g>
  <g partID="58310">
   <line stroke-width="1.728" y2="16.1708" x1="50.4298" y1="16.1855" stroke="black" x2="28.1792" stroke-linecap="round"/>
  </g>
  <g partID="58250">
   <line stroke-width="1.728" y2="16.1855" x1="54.3383" y1="20.094" stroke="black" x2="50.4298" stroke-linecap="round"/>
  </g>
  <g partID="58370">
   <line stroke-width="1.728" y2="26.968" x1="59.4179" y1="26.9825" stroke="black" x2="28.1792" stroke-linecap="round"/>
  </g>
  <g partID="59790">
   <line stroke-width="1.728" y2="26.9825" x1="62.9793" y1="23.3646" stroke="black" x2="59.418" stroke-linecap="round"/>
  </g>
  <g partID="59650">
   <line stroke-width="1.728" y2="23.3646" x1="62.9793" y1="14.3765" stroke="black" x2="62.9793" stroke-linecap="round"/>
  </g>
  <g partID="58280">
   <line stroke-width="1.728" y2="14.3765" x1="65.1359" y1="12.2269" stroke="black" x2="62.9792" stroke-linecap="round"/>
  </g>
 </g>
</svg>
